<svg width="429" height="597" viewBox="0 0 429 597" fill="none" xmlns="http://www.w3.org/2000/svg">
<path d="M356.303 525.47C299.463 535.84 240.553 525.87 190.573 497.31C168.633 484.76 149.113 469.21 132.353 451.18C105.803 422.56 86.3425 387.78 75.7425 349.02C72.8025 338.31 70.6725 327.48 69.2325 316.66C62.0325 263.62 72.3425 210.01 99.2325 162.85C112.363 139.93 129.063 119.32 148.933 101.58C167.243 85.17 187.803 71.75 210.143 61.56L183.833 0C154.863 13.07 128.143 30.46 104.363 51.65C79.2525 74.05 58.0025 100.37 41.2525 129.79C-0.0874825 202.18 -10.8075 286.26 11.1325 366.59C33.0725 446.92 85.0125 513.95 157.513 555.36C221.263 591.75 296.123 604.6 368.163 591.41C387.453 587.84 406.513 582.48 424.773 575.4C426.023 574.02 427.143 572.57 428.363 571.17V500.01C405.883 512.1 381.583 520.85 356.303 525.48V525.47Z" fill="url(#paint0_linear_193_796)" fill-opacity="0.1"/>
<defs>
<linearGradient id="paint0_linear_193_796" x1="619.993" y1="687.61" x2="137.773" y2="252.93" gradientUnits="userSpaceOnUse">
<stop stop-color="#9FDB23"/>
<stop offset="0.99" stop-color="#24DBD7"/>
</linearGradient>
</defs>
</svg>
