<svg width="354" height="597" viewBox="0 0 354 597" fill="none" xmlns="http://www.w3.org/2000/svg">
<path d="M281.303 525.47C224.463 535.84 165.553 525.87 115.573 497.31C93.6325 484.76 74.1125 469.21 57.3525 451.18C30.8025 422.56 11.3425 387.78 0.742516 349.02C-2.19749 338.31 -4.32748 327.48 -5.76748 316.66C-12.9675 263.62 -2.65748 210.01 24.2325 162.85C37.3625 139.93 54.0625 119.32 73.9325 101.58C92.2425 85.17 112.803 71.75 135.143 61.56L108.833 0C79.8625 13.07 53.1425 30.46 29.3625 51.65C4.25252 74.05 -16.9975 100.37 -33.7475 129.79C-75.0875 202.18 -85.8075 286.26 -63.8675 366.59C-41.9275 446.92 10.0125 513.95 82.5125 555.36C146.263 591.75 221.123 604.6 293.163 591.41C312.453 587.84 331.513 582.48 349.773 575.4C351.023 574.02 352.143 572.57 353.363 571.17V500.01C330.883 512.1 306.583 520.85 281.303 525.48V525.47Z" fill="url(#paint0_linear_147_1672)" fill-opacity="0.1"/>
<defs>
<linearGradient id="paint0_linear_147_1672" x1="544.993" y1="687.61" x2="62.7725" y2="252.93" gradientUnits="userSpaceOnUse">
<stop stop-color="#9FDB23"/>
<stop offset="0.99" stop-color="#24DBD7"/>
</linearGradient>
</defs>
</svg>
