<svg width="526" height="615" viewBox="0 0 526 615" fill="none" xmlns="http://www.w3.org/2000/svg">
<path d="M152.707 19.24C150.487 19.24 148.247 18.58 147.007 17.62L148.107 15.18C149.287 16.04 151.047 16.64 152.727 16.64C154.647 16.64 155.427 16 155.427 15.14C155.427 12.52 147.287 14.32 147.287 9.12C147.287 6.74 149.207 4.76 153.187 4.76C154.947 4.76 156.747 5.18 158.047 6L157.047 8.46C155.747 7.72 154.407 7.36 153.167 7.36C151.247 7.36 150.507 8.08 150.507 8.96C150.507 11.54 158.647 9.76 158.647 14.9C158.647 17.24 156.707 19.24 152.707 19.24ZM164.081 16.4H171.701V19H160.861V5H171.441V7.6H164.081V10.64H170.581V13.16H164.081V16.4ZM174.279 19V5H177.519V16.36H184.539V19H174.279ZM189.569 16.4H197.189V19H186.349V5H196.929V7.6H189.569V10.64H196.069V13.16H189.569V16.4ZM206.428 19.24C202.088 19.24 198.848 16.22 198.848 12C198.848 7.78 202.088 4.76 206.448 4.76C208.868 4.76 210.888 5.64 212.208 7.24L210.128 9.16C209.188 8.08 208.008 7.52 206.608 7.52C203.988 7.52 202.128 9.36 202.128 12C202.128 14.64 203.988 16.48 206.608 16.48C208.008 16.48 209.188 15.92 210.128 14.82L212.208 16.74C210.888 18.36 208.868 19.24 206.428 19.24ZM217.16 19V7.64H212.68V5H224.88V7.64H220.4V19H217.16ZM226.623 19V5H229.863V19H226.623ZM239.965 19.24C235.545 19.24 232.305 16.16 232.305 12C232.305 7.84 235.545 4.76 239.965 4.76C244.365 4.76 247.625 7.82 247.625 12C247.625 16.18 244.365 19.24 239.965 19.24ZM239.965 16.48C242.465 16.48 244.345 14.66 244.345 12C244.345 9.34 242.465 7.52 239.965 7.52C237.465 7.52 235.585 9.34 235.585 12C235.585 14.66 237.465 16.48 239.965 16.48ZM259.7 5H262.9V19H260.24L253.26 10.5V19H250.06V5H252.74L259.7 13.5V5Z" fill="#393939"/>
<path d="M130.842 57.096C129.162 57.096 127.514 56.504 126.682 55.64L127.146 54.728C127.946 55.512 129.37 56.088 130.842 56.088C132.938 56.088 133.85 55.208 133.85 54.104C133.85 51.032 126.954 52.92 126.954 48.776C126.954 47.128 128.234 45.704 131.082 45.704C132.346 45.704 133.658 46.072 134.554 46.696L134.154 47.64C133.194 47.016 132.074 46.712 131.082 46.712C129.034 46.712 128.122 47.624 128.122 48.744C128.122 51.816 135.018 49.96 135.018 54.04C135.018 55.688 133.706 57.096 130.842 57.096ZM140.845 57.08C138.333 57.08 136.509 55.304 136.509 52.792C136.509 50.28 138.333 48.52 140.845 48.52C142.269 48.52 143.469 49.08 144.141 50.184L143.293 50.76C142.717 49.912 141.821 49.512 140.845 49.512C139.005 49.512 137.661 50.824 137.661 52.792C137.661 54.776 139.005 56.072 140.845 56.072C141.821 56.072 142.717 55.688 143.293 54.84L144.141 55.416C143.469 56.504 142.269 57.08 140.845 57.08ZM147.461 50.232C147.989 49.112 149.061 48.52 150.613 48.52V49.624C150.517 49.624 150.421 49.608 150.341 49.608C148.581 49.608 147.509 50.728 147.509 52.712V57H146.373V48.584H147.461V50.232ZM159.936 52.792C159.936 52.888 159.92 53.016 159.92 53.144H152.88C153.008 54.904 154.352 56.072 156.192 56.072C157.216 56.072 158.128 55.704 158.768 54.968L159.408 55.704C158.656 56.6 157.488 57.08 156.16 57.08C153.536 57.08 151.744 55.288 151.744 52.792C151.744 50.296 153.488 48.52 155.856 48.52C158.224 48.52 159.936 50.264 159.936 52.792ZM155.856 49.496C154.224 49.496 153.024 50.648 152.88 52.296H158.848C158.704 50.648 157.504 49.496 155.856 49.496ZM169.592 52.792C169.592 52.888 169.576 53.016 169.576 53.144H162.536C162.664 54.904 164.008 56.072 165.848 56.072C166.872 56.072 167.784 55.704 168.424 54.968L169.064 55.704C168.312 56.6 167.144 57.08 165.816 57.08C163.192 57.08 161.4 55.288 161.4 52.792C161.4 50.296 163.144 48.52 165.512 48.52C167.88 48.52 169.592 50.264 169.592 52.792ZM165.512 49.496C163.88 49.496 162.68 50.648 162.536 52.296H168.504C168.36 50.648 167.16 49.496 165.512 49.496ZM176.192 48.52C178.24 48.52 179.648 49.704 179.648 52.12V57H178.512V52.232C178.512 50.456 177.584 49.544 175.984 49.544C174.176 49.544 173.04 50.664 173.04 52.584V57H171.904V48.584H172.992V50.136C173.6 49.112 174.736 48.52 176.192 48.52ZM183.308 46.744C182.844 46.744 182.476 46.376 182.476 45.928C182.476 45.496 182.844 45.128 183.308 45.128C183.772 45.128 184.14 45.48 184.14 45.912C184.14 46.376 183.788 46.744 183.308 46.744ZM182.732 57V48.584H183.868V57H182.732ZM191.317 48.52C193.365 48.52 194.773 49.704 194.773 52.12V57H193.637V52.232C193.637 50.456 192.709 49.544 191.109 49.544C189.301 49.544 188.165 50.664 188.165 52.584V57H187.029V48.584H188.117V50.136C188.725 49.112 189.861 48.52 191.317 48.52ZM204.593 48.584H205.681V55.976C205.681 58.872 204.257 60.184 201.473 60.184C199.937 60.184 198.433 59.72 197.553 58.888L198.129 58.024C198.929 58.744 200.145 59.176 201.441 59.176C203.569 59.176 204.545 58.2 204.545 56.12V55.048C203.841 56.12 202.641 56.68 201.265 56.68C198.865 56.68 197.041 55 197.041 52.584C197.041 50.168 198.865 48.52 201.265 48.52C202.673 48.52 203.889 49.096 204.593 50.2V48.584ZM201.377 55.672C203.233 55.672 204.577 54.408 204.577 52.584C204.577 50.76 203.233 49.512 201.377 49.512C199.521 49.512 198.193 50.76 198.193 52.584C198.193 54.408 199.521 55.672 201.377 55.672ZM217.381 48.52C219.781 48.52 221.573 50.248 221.573 52.792C221.573 55.336 219.781 57.08 217.381 57.08C215.989 57.08 214.821 56.472 214.133 55.336V57H213.045V45.128H214.181V50.184C214.885 49.096 216.037 48.52 217.381 48.52ZM217.301 56.072C219.077 56.072 220.437 54.76 220.437 52.792C220.437 50.824 219.077 49.512 217.301 49.512C215.509 49.512 214.165 50.824 214.165 52.792C214.165 54.76 215.509 56.072 217.301 56.072ZM226.786 48.52C228.962 48.52 230.194 49.608 230.194 51.784V57H229.106V55.688C228.594 56.552 227.602 57.08 226.21 57.08C224.306 57.08 223.138 56.088 223.138 54.632C223.138 53.336 223.97 52.248 226.386 52.248H229.058V51.736C229.058 50.296 228.242 49.512 226.674 49.512C225.586 49.512 224.562 49.896 223.874 50.504L223.362 49.656C224.21 48.936 225.458 48.52 226.786 48.52ZM226.386 56.184C227.666 56.184 228.61 55.576 229.058 54.472V53.096H226.418C224.786 53.096 224.258 53.736 224.258 54.6C224.258 55.576 225.042 56.184 226.386 56.184ZM235.535 57.08C234.143 57.08 232.799 56.632 232.111 56.04L232.623 55.144C233.295 55.672 234.431 56.088 235.615 56.088C237.215 56.088 237.871 55.544 237.871 54.712C237.871 52.52 232.415 54.248 232.415 50.92C232.415 49.544 233.599 48.52 235.743 48.52C236.831 48.52 238.015 48.824 238.719 49.304L238.223 50.216C237.487 49.704 236.607 49.496 235.743 49.496C234.223 49.496 233.551 50.088 233.551 50.888C233.551 53.16 239.007 51.448 239.007 54.68C239.007 56.136 237.727 57.08 235.535 57.08ZM248.451 52.792C248.451 52.888 248.435 53.016 248.435 53.144H241.395C241.523 54.904 242.867 56.072 244.707 56.072C245.731 56.072 246.643 55.704 247.283 54.968L247.923 55.704C247.171 56.6 246.003 57.08 244.675 57.08C242.051 57.08 240.259 55.288 240.259 52.792C240.259 50.296 242.003 48.52 244.371 48.52C246.739 48.52 248.451 50.264 248.451 52.792ZM244.371 49.496C242.739 49.496 241.539 50.648 241.395 52.296H247.363C247.219 50.648 246.019 49.496 244.371 49.496ZM257.308 45.128H258.444V57H257.356V55.336C256.668 56.472 255.5 57.08 254.108 57.08C251.708 57.08 249.916 55.336 249.916 52.792C249.916 50.248 251.708 48.52 254.108 48.52C255.452 48.52 256.604 49.096 257.308 50.184V45.128ZM254.204 56.072C255.98 56.072 257.324 54.76 257.324 52.792C257.324 50.824 255.98 49.512 254.204 49.512C252.412 49.512 251.068 50.824 251.068 52.792C251.068 54.76 252.412 56.072 254.204 56.072ZM269.235 57.08C266.771 57.08 264.947 55.288 264.947 52.792C264.947 50.296 266.771 48.52 269.235 48.52C271.699 48.52 273.507 50.296 273.507 52.792C273.507 55.288 271.699 57.08 269.235 57.08ZM269.235 56.072C271.027 56.072 272.355 54.76 272.355 52.792C272.355 50.824 271.027 49.512 269.235 49.512C267.443 49.512 266.099 50.824 266.099 52.792C266.099 54.76 267.443 56.072 269.235 56.072ZM280.114 48.52C282.162 48.52 283.57 49.704 283.57 52.12V57H282.434V52.232C282.434 50.456 281.506 49.544 279.906 49.544C278.098 49.544 276.962 50.664 276.962 52.584V57H275.826V48.584H276.914V50.136C277.522 49.112 278.658 48.52 280.114 48.52ZM114.598 81.08C113.206 81.08 111.862 80.632 111.174 80.04L111.686 79.144C112.358 79.672 113.494 80.088 114.678 80.088C116.278 80.088 116.934 79.544 116.934 78.712C116.934 76.52 111.478 78.248 111.478 74.92C111.478 73.544 112.662 72.52 114.806 72.52C115.894 72.52 117.078 72.824 117.782 73.304L117.286 74.216C116.55 73.704 115.67 73.496 114.806 73.496C113.286 73.496 112.614 74.088 112.614 74.888C112.614 77.16 118.07 75.448 118.07 78.68C118.07 80.136 116.79 81.08 114.598 81.08ZM124.202 79.672L124.602 80.488C124.154 80.888 123.482 81.08 122.826 81.08C121.242 81.08 120.362 80.184 120.362 78.632V73.544H118.858V72.584H120.362V70.744H121.498V72.584H124.058V73.544H121.498V78.568C121.498 79.56 122.01 80.104 122.954 80.104C123.418 80.104 123.882 79.96 124.202 79.672ZM127.758 74.232C128.286 73.112 129.358 72.52 130.91 72.52V73.624C130.814 73.624 130.718 73.608 130.638 73.608C128.878 73.608 127.806 74.728 127.806 76.712V81H126.67V72.584H127.758V74.232ZM139.54 72.584H140.676V81H139.588V79.464C138.996 80.488 137.908 81.08 136.564 81.08C134.42 81.08 133.012 79.88 133.012 77.464V72.584H134.148V77.352C134.148 79.144 135.076 80.056 136.676 80.056C138.436 80.056 139.54 78.92 139.54 77V72.584ZM147.345 81.08C144.833 81.08 143.009 79.304 143.009 76.792C143.009 74.28 144.833 72.52 147.345 72.52C148.769 72.52 149.969 73.08 150.641 74.184L149.793 74.76C149.217 73.912 148.321 73.512 147.345 73.512C145.505 73.512 144.161 74.824 144.161 76.792C144.161 78.776 145.505 80.072 147.345 80.072C148.321 80.072 149.217 79.688 149.793 78.84L150.641 79.416C149.969 80.504 148.769 81.08 147.345 81.08ZM156.999 79.672L157.399 80.488C156.951 80.888 156.279 81.08 155.623 81.08C154.039 81.08 153.159 80.184 153.159 78.632V73.544H151.655V72.584H153.159V70.744H154.295V72.584H156.855V73.544H154.295V78.568C154.295 79.56 154.807 80.104 155.751 80.104C156.215 80.104 156.679 79.96 156.999 79.672ZM165.915 72.584H167.051V81H165.963V79.464C165.371 80.488 164.283 81.08 162.939 81.08C160.795 81.08 159.387 79.88 159.387 77.464V72.584H160.523V77.352C160.523 79.144 161.451 80.056 163.051 80.056C164.811 80.056 165.915 78.92 165.915 77V72.584ZM171.32 74.232C171.848 73.112 172.92 72.52 174.472 72.52V73.624C174.376 73.624 174.28 73.608 174.2 73.608C172.44 73.608 171.368 74.728 171.368 76.712V81H170.232V72.584H171.32V74.232ZM183.795 76.792C183.795 76.888 183.779 77.016 183.779 77.144H176.739C176.867 78.904 178.211 80.072 180.051 80.072C181.075 80.072 181.987 79.704 182.627 78.968L183.267 79.704C182.515 80.6 181.347 81.08 180.019 81.08C177.395 81.08 175.603 79.288 175.603 76.792C175.603 74.296 177.347 72.52 179.715 72.52C182.083 72.52 183.795 74.264 183.795 76.792ZM179.715 73.496C178.083 73.496 176.883 74.648 176.739 76.296H182.707C182.563 74.648 181.363 73.496 179.715 73.496ZM185.64 77.16V76.168H189.832V77.16H185.64ZM194.629 81.08C193.237 81.08 191.893 80.632 191.205 80.04L191.717 79.144C192.389 79.672 193.525 80.088 194.709 80.088C196.309 80.088 196.965 79.544 196.965 78.712C196.965 76.52 191.509 78.248 191.509 74.92C191.509 73.544 192.693 72.52 194.837 72.52C195.925 72.52 197.109 72.824 197.813 73.304L197.317 74.216C196.581 73.704 195.701 73.496 194.837 73.496C193.317 73.496 192.645 74.088 192.645 74.888C192.645 77.16 198.101 75.448 198.101 78.68C198.101 80.136 196.821 81.08 194.629 81.08ZM207.545 76.792C207.545 76.888 207.529 77.016 207.529 77.144H200.489C200.617 78.904 201.961 80.072 203.801 80.072C204.825 80.072 205.737 79.704 206.377 78.968L207.017 79.704C206.265 80.6 205.097 81.08 203.769 81.08C201.145 81.08 199.353 79.288 199.353 76.792C199.353 74.296 201.097 72.52 203.465 72.52C205.833 72.52 207.545 74.264 207.545 76.792ZM203.465 73.496C201.833 73.496 200.633 74.648 200.489 76.296H206.457C206.313 74.648 205.113 73.496 203.465 73.496ZM209.857 81V69.128H210.993V81H209.857ZM221.498 76.792C221.498 76.888 221.482 77.016 221.482 77.144H214.442C214.57 78.904 215.914 80.072 217.754 80.072C218.778 80.072 219.69 79.704 220.33 78.968L220.97 79.704C220.218 80.6 219.05 81.08 217.722 81.08C215.098 81.08 213.306 79.288 213.306 76.792C213.306 74.296 215.05 72.52 217.418 72.52C219.786 72.52 221.498 74.264 221.498 76.792ZM217.418 73.496C215.786 73.496 214.586 74.648 214.442 76.296H220.41C220.266 74.648 219.066 73.496 217.418 73.496ZM227.299 81.08C224.787 81.08 222.963 79.304 222.963 76.792C222.963 74.28 224.787 72.52 227.299 72.52C228.723 72.52 229.923 73.08 230.595 74.184L229.747 74.76C229.171 73.912 228.275 73.512 227.299 73.512C225.459 73.512 224.115 74.824 224.115 76.792C224.115 78.776 225.459 80.072 227.299 80.072C228.275 80.072 229.171 79.688 229.747 78.84L230.595 79.416C229.923 80.504 228.723 81.08 227.299 81.08ZM236.952 79.672L237.352 80.488C236.904 80.888 236.232 81.08 235.576 81.08C233.992 81.08 233.112 80.184 233.112 78.632V73.544H231.608V72.584H233.112V70.744H234.248V72.584H236.808V73.544H234.248V78.568C234.248 79.56 234.76 80.104 235.704 80.104C236.168 80.104 236.632 79.96 236.952 79.672ZM239.996 70.744C239.532 70.744 239.164 70.376 239.164 69.928C239.164 69.496 239.532 69.128 239.996 69.128C240.46 69.128 240.828 69.48 240.828 69.912C240.828 70.376 240.476 70.744 239.996 70.744ZM239.42 81V72.584H240.556V81H239.42ZM247.157 81.08C244.693 81.08 242.869 79.288 242.869 76.792C242.869 74.296 244.693 72.52 247.157 72.52C249.621 72.52 251.429 74.296 251.429 76.792C251.429 79.288 249.621 81.08 247.157 81.08ZM247.157 80.072C248.949 80.072 250.277 78.76 250.277 76.792C250.277 74.824 248.949 73.512 247.157 73.512C245.365 73.512 244.021 74.824 244.021 76.792C244.021 78.76 245.365 80.072 247.157 80.072ZM258.036 72.52C260.084 72.52 261.492 73.704 261.492 76.12V81H260.356V76.232C260.356 74.456 259.428 73.544 257.828 73.544C256.02 73.544 254.884 74.664 254.884 76.584V81H253.748V72.584H254.836V74.136C255.444 73.112 256.58 72.52 258.036 72.52ZM263.952 77.16V76.168H268.144V77.16H263.952ZM271.774 74.232C272.302 73.112 273.374 72.52 274.926 72.52V73.624C274.83 73.624 274.734 73.608 274.654 73.608C272.894 73.608 271.822 74.728 271.822 76.712V81H270.686V72.584H271.774V74.232ZM283.555 72.584H284.691V81H283.603V79.464C283.011 80.488 281.923 81.08 280.579 81.08C278.435 81.08 277.027 79.88 277.027 77.464V72.584H278.163V77.352C278.163 79.144 279.091 80.056 280.691 80.056C282.451 80.056 283.555 78.92 283.555 77V72.584ZM287.873 81V69.128H289.009V81H287.873ZM299.514 76.792C299.514 76.888 299.498 77.016 299.498 77.144H292.458C292.586 78.904 293.93 80.072 295.77 80.072C296.794 80.072 297.706 79.704 298.346 78.968L298.986 79.704C298.234 80.6 297.066 81.08 295.738 81.08C293.114 81.08 291.322 79.288 291.322 76.792C291.322 74.296 293.066 72.52 295.434 72.52C297.802 72.52 299.514 74.264 299.514 76.792ZM295.434 73.496C293.802 73.496 292.602 74.648 292.458 76.296H298.426C298.282 74.648 297.082 73.496 295.434 73.496ZM110.614 96.52C112.79 96.52 114.022 97.608 114.022 99.784V105H112.934V103.688C112.422 104.552 111.43 105.08 110.038 105.08C108.134 105.08 106.966 104.088 106.966 102.632C106.966 101.336 107.798 100.248 110.214 100.248H112.886V99.736C112.886 98.296 112.07 97.512 110.502 97.512C109.414 97.512 108.39 97.896 107.702 98.504L107.19 97.656C108.038 96.936 109.286 96.52 110.614 96.52ZM110.214 104.184C111.494 104.184 112.438 103.576 112.886 102.472V101.096H110.246C108.614 101.096 108.086 101.736 108.086 102.6C108.086 103.576 108.87 104.184 110.214 104.184ZM121.395 96.52C123.443 96.52 124.851 97.704 124.851 100.12V105H123.715V100.232C123.715 98.456 122.787 97.544 121.187 97.544C119.379 97.544 118.243 98.664 118.243 100.584V105H117.107V96.584H118.195V98.136C118.803 97.112 119.939 96.52 121.395 96.52ZM134.511 93.128H135.647V105H134.559V103.336C133.871 104.472 132.703 105.08 131.311 105.08C128.911 105.08 127.119 103.336 127.119 100.792C127.119 98.248 128.911 96.52 131.311 96.52C132.655 96.52 133.807 97.096 134.511 98.184V93.128ZM131.407 104.072C133.183 104.072 134.527 102.76 134.527 100.792C134.527 98.824 133.183 97.512 131.407 97.512C129.615 97.512 128.271 98.824 128.271 100.792C128.271 102.76 129.615 104.072 131.407 104.072ZM147.03 103.672L147.43 104.488C146.982 104.888 146.31 105.08 145.654 105.08C144.07 105.08 143.19 104.184 143.19 102.632V97.544H141.686V96.584H143.19V94.744H144.326V96.584H146.886V97.544H144.326V102.568C144.326 103.56 144.838 104.104 145.782 104.104C146.246 104.104 146.71 103.96 147.03 103.672ZM152.442 96.52C154.618 96.52 155.85 97.608 155.85 99.784V105H154.762V103.688C154.25 104.552 153.258 105.08 151.866 105.08C149.962 105.08 148.794 104.088 148.794 102.632C148.794 101.336 149.626 100.248 152.042 100.248H154.714V99.736C154.714 98.296 153.898 97.512 152.33 97.512C151.242 97.512 150.218 97.896 149.53 98.504L149.018 97.656C149.866 96.936 151.114 96.52 152.442 96.52ZM152.042 104.184C153.322 104.184 154.266 103.576 154.714 102.472V101.096H152.074C150.442 101.096 149.914 101.736 149.914 102.6C149.914 103.576 150.698 104.184 152.042 104.184ZM160.024 98.232C160.552 97.112 161.624 96.52 163.176 96.52V97.624C163.08 97.624 162.984 97.608 162.904 97.608C161.144 97.608 160.072 98.728 160.072 100.712V105H158.936V96.584H160.024V98.232ZM171.858 96.584H172.946V103.976C172.946 106.872 171.522 108.184 168.738 108.184C167.202 108.184 165.698 107.72 164.818 106.888L165.394 106.024C166.194 106.744 167.41 107.176 168.706 107.176C170.834 107.176 171.81 106.2 171.81 104.12V103.048C171.106 104.12 169.906 104.68 168.53 104.68C166.13 104.68 164.306 103 164.306 100.584C164.306 98.168 166.13 96.52 168.53 96.52C169.938 96.52 171.154 97.096 171.858 98.2V96.584ZM168.642 103.672C170.498 103.672 171.842 102.408 171.842 100.584C171.842 98.76 170.498 97.512 168.642 97.512C166.786 97.512 165.458 98.76 165.458 100.584C165.458 102.408 166.786 103.672 168.642 103.672ZM183.467 100.792C183.467 100.888 183.451 101.016 183.451 101.144H176.411C176.539 102.904 177.883 104.072 179.723 104.072C180.747 104.072 181.659 103.704 182.299 102.968L182.939 103.704C182.187 104.6 181.019 105.08 179.691 105.08C177.067 105.08 175.275 103.288 175.275 100.792C175.275 98.296 177.019 96.52 179.387 96.52C181.755 96.52 183.467 98.264 183.467 100.792ZM179.387 97.496C177.755 97.496 176.555 98.648 176.411 100.296H182.379C182.235 98.648 181.035 97.496 179.387 97.496ZM189.811 103.672L190.211 104.488C189.763 104.888 189.091 105.08 188.435 105.08C186.851 105.08 185.971 104.184 185.971 102.632V97.544H184.467V96.584H185.971V94.744H187.107V96.584H189.667V97.544H187.107V102.568C187.107 103.56 187.619 104.104 188.563 104.104C189.027 104.104 189.491 103.96 189.811 103.672ZM199.326 100.792C199.326 100.888 199.31 101.016 199.31 101.144H192.27C192.398 102.904 193.742 104.072 195.582 104.072C196.606 104.072 197.518 103.704 198.158 102.968L198.798 103.704C198.046 104.6 196.878 105.08 195.55 105.08C192.926 105.08 191.134 103.288 191.134 100.792C191.134 98.296 192.878 96.52 195.246 96.52C197.614 96.52 199.326 98.264 199.326 100.792ZM195.246 97.496C193.614 97.496 192.414 98.648 192.27 100.296H198.238C198.094 98.648 196.894 97.496 195.246 97.496ZM208.183 93.128H209.319V105H208.231V103.336C207.543 104.472 206.375 105.08 204.983 105.08C202.583 105.08 200.791 103.336 200.791 100.792C200.791 98.248 202.583 96.52 204.983 96.52C206.327 96.52 207.479 97.096 208.183 98.184V93.128ZM205.079 104.072C206.855 104.072 208.199 102.76 208.199 100.792C208.199 98.824 206.855 97.512 205.079 97.512C203.287 97.512 201.943 98.824 201.943 100.792C201.943 102.76 203.287 104.072 205.079 104.072ZM219.614 96.52C221.79 96.52 223.022 97.608 223.022 99.784V105H221.934V103.688C221.422 104.552 220.43 105.08 219.038 105.08C217.134 105.08 215.966 104.088 215.966 102.632C215.966 101.336 216.798 100.248 219.214 100.248H221.886V99.736C221.886 98.296 221.07 97.512 219.502 97.512C218.414 97.512 217.39 97.896 216.702 98.504L216.19 97.656C217.038 96.936 218.286 96.52 219.614 96.52ZM219.214 104.184C220.494 104.184 221.438 103.576 221.886 102.472V101.096H219.246C217.614 101.096 217.086 101.736 217.086 102.6C217.086 103.576 217.87 104.184 219.214 104.184ZM230.443 96.52C232.843 96.52 234.635 98.248 234.635 100.792C234.635 103.352 232.843 105.08 230.443 105.08C229.099 105.08 227.947 104.504 227.243 103.416V108.104H226.107V96.584H227.195V98.248C227.883 97.128 229.051 96.52 230.443 96.52ZM230.363 104.072C232.139 104.072 233.499 102.76 233.499 100.792C233.499 98.84 232.139 97.512 230.363 97.512C228.571 97.512 227.227 98.84 227.227 100.792C227.227 102.76 228.571 104.072 230.363 104.072ZM241.287 96.52C243.687 96.52 245.479 98.248 245.479 100.792C245.479 103.352 243.687 105.08 241.287 105.08C239.943 105.08 238.791 104.504 238.087 103.416V108.104H236.951V96.584H238.039V98.248C238.727 97.128 239.895 96.52 241.287 96.52ZM241.207 104.072C242.983 104.072 244.343 102.76 244.343 100.792C244.343 98.84 242.983 97.512 241.207 97.512C239.415 97.512 238.071 98.84 238.071 100.792C238.071 102.76 239.415 104.072 241.207 104.072ZM247.795 105V93.128H248.931V105H247.795ZM252.668 94.744C252.204 94.744 251.836 94.376 251.836 93.928C251.836 93.496 252.204 93.128 252.668 93.128C253.132 93.128 253.5 93.48 253.5 93.912C253.5 94.376 253.148 94.744 252.668 94.744ZM252.092 105V96.584H253.228V105H252.092ZM259.877 105.08C257.365 105.08 255.541 103.304 255.541 100.792C255.541 98.28 257.365 96.52 259.877 96.52C261.301 96.52 262.501 97.08 263.173 98.184L262.325 98.76C261.749 97.912 260.853 97.512 259.877 97.512C258.037 97.512 256.693 98.824 256.693 100.792C256.693 102.776 258.037 104.072 259.877 104.072C260.853 104.072 261.749 103.688 262.325 102.84L263.173 103.416C262.501 104.504 261.301 105.08 259.877 105.08ZM268.348 96.52C270.524 96.52 271.756 97.608 271.756 99.784V105H270.668V103.688C270.156 104.552 269.164 105.08 267.772 105.08C265.868 105.08 264.7 104.088 264.7 102.632C264.7 101.336 265.532 100.248 267.948 100.248H270.62V99.736C270.62 98.296 269.804 97.512 268.236 97.512C267.148 97.512 266.124 97.896 265.436 98.504L264.924 97.656C265.772 96.936 267.02 96.52 268.348 96.52ZM267.948 104.184C269.228 104.184 270.172 103.576 270.62 102.472V101.096H267.98C266.348 101.096 265.82 101.736 265.82 102.6C265.82 103.576 266.604 104.184 267.948 104.184ZM278.874 103.672L279.274 104.488C278.826 104.888 278.154 105.08 277.498 105.08C275.914 105.08 275.034 104.184 275.034 102.632V97.544H273.53V96.584H275.034V94.744H276.17V96.584H278.73V97.544H276.17V102.568C276.17 103.56 276.682 104.104 277.626 104.104C278.09 104.104 278.554 103.96 278.874 103.672ZM281.918 94.744C281.454 94.744 281.086 94.376 281.086 93.928C281.086 93.496 281.454 93.128 281.918 93.128C282.382 93.128 282.75 93.48 282.75 93.912C282.75 94.376 282.398 94.744 281.918 94.744ZM281.342 105V96.584H282.478V105H281.342ZM289.079 105.08C286.615 105.08 284.791 103.288 284.791 100.792C284.791 98.296 286.615 96.52 289.079 96.52C291.543 96.52 293.351 98.296 293.351 100.792C293.351 103.288 291.543 105.08 289.079 105.08ZM289.079 104.072C290.871 104.072 292.199 102.76 292.199 100.792C292.199 98.824 290.871 97.512 289.079 97.512C287.287 97.512 285.943 98.824 285.943 100.792C285.943 102.76 287.287 104.072 289.079 104.072ZM299.958 96.52C302.006 96.52 303.414 97.704 303.414 100.12V105H302.278V100.232C302.278 98.456 301.35 97.544 299.75 97.544C297.942 97.544 296.806 98.664 296.806 100.584V105H295.67V96.584H296.758V98.136C297.366 97.112 298.502 96.52 299.958 96.52Z" fill="black"/>
<path d="M151 29H259" stroke="#5AF3BB" stroke-width="2" stroke-linecap="round"/>
<path d="M54.762 179.24C52.542 179.24 50.302 178.58 49.062 177.62L50.162 175.18C51.342 176.04 53.102 176.64 54.782 176.64C56.702 176.64 57.482 176 57.482 175.14C57.482 172.52 49.342 174.32 49.342 169.12C49.342 166.74 51.262 164.76 55.242 164.76C57.002 164.76 58.802 165.18 60.102 166L59.102 168.46C57.802 167.72 56.462 167.36 55.222 167.36C53.302 167.36 52.562 168.08 52.562 168.96C52.562 171.54 60.702 169.76 60.702 174.9C60.702 177.24 58.762 179.24 54.762 179.24ZM74.7829 165L69.3429 174.04V179H66.1029V174L60.6829 165H64.1229L67.8629 171.22L71.6029 165H74.7829ZM85.6418 165H88.8418V179H86.1818L79.2018 170.5V179H76.0018V165H78.6818L85.6418 173.5V165ZM95.0541 179V167.64H90.5741V165H102.774V167.64H98.2941V179H95.0541ZM114.117 165H117.357V179H114.117V173.26H107.757V179H104.517V165H107.757V170.52H114.117V165ZM123.89 176.4H131.51V179H120.67V165H131.25V167.6H123.89V170.64H130.39V173.16H123.89V176.4ZM138.688 179.24C136.468 179.24 134.228 178.58 132.988 177.62L134.088 175.18C135.268 176.04 137.028 176.64 138.708 176.64C140.628 176.64 141.408 176 141.408 175.14C141.408 172.52 133.268 174.32 133.268 169.12C133.268 166.74 135.188 164.76 139.168 164.76C140.928 164.76 142.728 165.18 144.028 166L143.028 168.46C141.728 167.72 140.388 167.36 139.148 167.36C137.228 167.36 136.488 168.08 136.488 168.96C136.488 171.54 144.628 169.76 144.628 174.9C144.628 177.24 142.688 179.24 138.688 179.24ZM146.842 179V165H150.082V179H146.842ZM158.004 179.24C155.784 179.24 153.544 178.58 152.304 177.62L153.404 175.18C154.584 176.04 156.344 176.64 158.024 176.64C159.944 176.64 160.724 176 160.724 175.14C160.724 172.52 152.584 174.32 152.584 169.12C152.584 166.74 154.504 164.76 158.484 164.76C160.244 164.76 162.044 165.18 163.344 166L162.344 168.46C161.044 167.72 159.704 167.36 158.464 167.36C156.544 167.36 155.804 168.08 155.804 168.96C155.804 171.54 163.944 169.76 163.944 174.9C163.944 177.24 162.004 179.24 158.004 179.24Z" fill="#393939"/>
<path d="M13.9412 217V205.8H18.5012C22.0852 205.8 24.5012 208.104 24.5012 211.4C24.5012 214.696 22.0852 217 18.5012 217H13.9412ZM15.1252 215.976H18.4372C21.4132 215.976 23.3332 214.088 23.3332 211.4C23.3332 208.712 21.4132 206.824 18.4372 206.824H15.1252V215.976ZM34.2639 212.792C34.2639 212.888 34.2479 213.016 34.2479 213.144H27.2079C27.3359 214.904 28.6799 216.072 30.5199 216.072C31.5439 216.072 32.4559 215.704 33.0959 214.968L33.7359 215.704C32.9839 216.6 31.8159 217.08 30.4879 217.08C27.8639 217.08 26.0719 215.288 26.0719 212.792C26.0719 210.296 27.8159 208.52 30.1839 208.52C32.5519 208.52 34.2639 210.264 34.2639 212.792ZM30.1839 209.496C28.5519 209.496 27.3519 210.648 27.2079 212.296H33.1759C33.0319 210.648 31.8319 209.496 30.1839 209.496ZM42.3719 208.584H43.4919L39.7479 217H38.5799L34.8519 208.584H36.0359L39.1879 215.752L42.3719 208.584ZM52.2014 212.792C52.2014 212.888 52.1854 213.016 52.1854 213.144H45.1454C45.2734 214.904 46.6174 216.072 48.4574 216.072C49.4814 216.072 50.3934 215.704 51.0334 214.968L51.6734 215.704C50.9214 216.6 49.7534 217.08 48.4254 217.08C45.8014 217.08 44.0094 215.288 44.0094 212.792C44.0094 210.296 45.7534 208.52 48.1214 208.52C50.4894 208.52 52.2014 210.264 52.2014 212.792ZM48.1214 209.496C46.4894 209.496 45.2894 210.648 45.1454 212.296H51.1134C50.9694 210.648 49.7694 209.496 48.1214 209.496ZM54.5137 217V205.128H55.6497V217H54.5137ZM62.2506 217.08C59.7866 217.08 57.9626 215.288 57.9626 212.792C57.9626 210.296 59.7866 208.52 62.2506 208.52C64.7146 208.52 66.5226 210.296 66.5226 212.792C66.5226 215.288 64.7146 217.08 62.2506 217.08ZM62.2506 216.072C64.0426 216.072 65.3706 214.76 65.3706 212.792C65.3706 210.824 64.0426 209.512 62.2506 209.512C60.4586 209.512 59.1146 210.824 59.1146 212.792C59.1146 214.76 60.4586 216.072 62.2506 216.072ZM73.1778 208.52C75.5778 208.52 77.3698 210.248 77.3698 212.792C77.3698 215.352 75.5778 217.08 73.1778 217.08C71.8338 217.08 70.6818 216.504 69.9778 215.416V220.104H68.8418V208.584H69.9298V210.248C70.6178 209.128 71.7858 208.52 73.1778 208.52ZM73.0978 216.072C74.8738 216.072 76.2338 214.76 76.2338 212.792C76.2338 210.84 74.8738 209.512 73.0978 209.512C71.3058 209.512 69.9618 210.84 69.9618 212.792C69.9618 214.76 71.3058 216.072 73.0978 216.072ZM80.2616 206.744C79.7976 206.744 79.4296 206.376 79.4296 205.928C79.4296 205.496 79.7976 205.128 80.2616 205.128C80.7256 205.128 81.0936 205.48 81.0936 205.912C81.0936 206.376 80.7416 206.744 80.2616 206.744ZM79.6856 217V208.584H80.8216V217H79.6856ZM88.2704 208.52C90.3184 208.52 91.7264 209.704 91.7264 212.12V217H90.5904V212.232C90.5904 210.456 89.6624 209.544 88.0624 209.544C86.2544 209.544 85.1184 210.664 85.1184 212.584V217H83.9824V208.584H85.0704V210.136C85.6784 209.112 86.8144 208.52 88.2704 208.52ZM101.546 208.584H102.634V215.976C102.634 218.872 101.21 220.184 98.4258 220.184C96.8898 220.184 95.3858 219.72 94.5058 218.888L95.0818 218.024C95.8818 218.744 97.0978 219.176 98.3938 219.176C100.522 219.176 101.498 218.2 101.498 216.12V215.048C100.794 216.12 99.5938 216.68 98.2178 216.68C95.8178 216.68 93.9938 215 93.9938 212.584C93.9938 210.168 95.8178 208.52 98.2178 208.52C99.6258 208.52 100.842 209.096 101.546 210.2V208.584ZM98.3298 215.672C100.186 215.672 101.53 214.408 101.53 212.584C101.53 210.76 100.186 209.512 98.3298 209.512C96.4738 209.512 95.1458 210.76 95.1458 212.584C95.1458 214.408 96.4738 215.672 98.3298 215.672ZM112.942 208.52C115.118 208.52 116.35 209.608 116.35 211.784V217H115.262V215.688C114.75 216.552 113.758 217.08 112.366 217.08C110.462 217.08 109.294 216.088 109.294 214.632C109.294 213.336 110.126 212.248 112.542 212.248H115.214V211.736C115.214 210.296 114.398 209.512 112.83 209.512C111.742 209.512 110.718 209.896 110.03 210.504L109.518 209.656C110.366 208.936 111.614 208.52 112.942 208.52ZM112.542 216.184C113.822 216.184 114.766 215.576 115.214 214.472V213.096H112.574C110.942 213.096 110.414 213.736 110.414 214.6C110.414 215.576 111.198 216.184 112.542 216.184ZM123.724 208.52C125.772 208.52 127.18 209.704 127.18 212.12V217H126.044V212.232C126.044 210.456 125.116 209.544 123.516 209.544C121.708 209.544 120.572 210.664 120.572 212.584V217H119.436V208.584H120.524V210.136C121.132 209.112 122.268 208.52 123.724 208.52ZM141.795 212.792C141.795 212.888 141.779 213.016 141.779 213.144H134.739C134.867 214.904 136.211 216.072 138.051 216.072C139.075 216.072 139.987 215.704 140.627 214.968L141.267 215.704C140.515 216.6 139.347 217.08 138.019 217.08C135.395 217.08 133.603 215.288 133.603 212.792C133.603 210.296 135.347 208.52 137.715 208.52C140.083 208.52 141.795 210.264 141.795 212.792ZM137.715 209.496C136.083 209.496 134.883 210.648 134.739 212.296H140.707C140.563 210.648 139.363 209.496 137.715 209.496ZM146.891 206.008C145.915 206.008 145.403 206.552 145.403 207.592V208.584H147.995V209.544H145.435V217H144.299V209.544H142.795V208.584H144.299V207.544C144.299 206.04 145.195 205.048 146.843 205.048C147.467 205.048 148.107 205.224 148.523 205.576L148.139 206.424C147.819 206.152 147.371 206.008 146.891 206.008ZM152.313 206.008C151.337 206.008 150.825 206.552 150.825 207.592V208.584H153.417V209.544H150.857V217H149.721V209.544H148.217V208.584H149.721V207.544C149.721 206.04 150.617 205.048 152.265 205.048C152.889 205.048 153.529 205.224 153.945 205.576L153.561 206.424C153.241 206.152 152.793 206.008 152.313 206.008ZM162.155 212.792C162.155 212.888 162.139 213.016 162.139 213.144H155.099C155.227 214.904 156.571 216.072 158.411 216.072C159.435 216.072 160.347 215.704 160.987 214.968L161.627 215.704C160.875 216.6 159.707 217.08 158.379 217.08C155.755 217.08 153.963 215.288 153.963 212.792C153.963 210.296 155.707 208.52 158.075 208.52C160.443 208.52 162.155 210.264 162.155 212.792ZM158.075 209.496C156.443 209.496 155.243 210.648 155.099 212.296H161.067C160.923 210.648 159.723 209.496 158.075 209.496ZM167.955 217.08C165.443 217.08 163.619 215.304 163.619 212.792C163.619 210.28 165.443 208.52 167.955 208.52C169.379 208.52 170.579 209.08 171.251 210.184L170.403 210.76C169.827 209.912 168.931 209.512 167.955 209.512C166.115 209.512 164.771 210.824 164.771 212.792C164.771 214.776 166.115 216.072 167.955 216.072C168.931 216.072 169.827 215.688 170.403 214.84L171.251 215.416C170.579 216.504 169.379 217.08 167.955 217.08ZM177.608 215.672L178.008 216.488C177.56 216.888 176.888 217.08 176.232 217.08C174.648 217.08 173.768 216.184 173.768 214.632V209.544H172.264V208.584H173.768V206.744H174.904V208.584H177.464V209.544H174.904V214.568C174.904 215.56 175.416 216.104 176.36 216.104C176.824 216.104 177.288 215.96 177.608 215.672ZM180.652 206.744C180.188 206.744 179.82 206.376 179.82 205.928C179.82 205.496 180.188 205.128 180.652 205.128C181.116 205.128 181.484 205.48 181.484 205.912C181.484 206.376 181.132 206.744 180.652 206.744ZM180.076 217V208.584H181.212V217H180.076ZM190.325 208.584H191.445L187.701 217H186.533L182.805 208.584H183.989L187.141 215.752L190.325 208.584ZM200.155 212.792C200.155 212.888 200.139 213.016 200.139 213.144H193.099C193.227 214.904 194.571 216.072 196.411 216.072C197.435 216.072 198.347 215.704 198.987 214.968L199.627 215.704C198.875 216.6 197.707 217.08 196.379 217.08C193.755 217.08 191.963 215.288 191.963 212.792C191.963 210.296 193.707 208.52 196.075 208.52C198.443 208.52 200.155 210.264 200.155 212.792ZM196.075 209.496C194.443 209.496 193.243 210.648 193.099 212.296H199.067C198.923 210.648 197.723 209.496 196.075 209.496ZM19.9963 241.08C18.6043 241.08 17.2603 240.632 16.5723 240.04L17.0843 239.144C17.7563 239.672 18.8923 240.088 20.0763 240.088C21.6763 240.088 22.3323 239.544 22.3323 238.712C22.3323 236.52 16.8763 238.248 16.8763 234.92C16.8763 233.544 18.0603 232.52 20.2043 232.52C21.2923 232.52 22.4763 232.824 23.1803 233.304L22.6843 234.216C21.9483 233.704 21.0683 233.496 20.2043 233.496C18.6843 233.496 18.0123 234.088 18.0123 234.888C18.0123 237.16 23.4683 235.448 23.4683 238.68C23.4683 240.136 22.1883 241.08 19.9963 241.08ZM31.3641 232.584H32.4841L28.2761 242.008C27.5721 243.656 26.6761 244.184 25.4761 244.184C24.6921 244.184 23.9401 243.928 23.4281 243.416L23.9561 242.568C24.3721 242.984 24.8841 243.208 25.4921 243.208C26.2441 243.208 26.7561 242.856 27.2361 241.8L27.6041 240.984L23.8441 232.584H25.0281L28.1961 239.736L31.3641 232.584ZM38.372 232.52C40.42 232.52 41.828 233.704 41.828 236.12V241H40.692V236.232C40.692 234.456 39.764 233.544 38.164 233.544C36.356 233.544 35.22 234.664 35.22 236.584V241H34.084V232.584H35.172V234.136C35.78 233.112 36.916 232.52 38.372 232.52ZM48.9441 239.672L49.3441 240.488C48.8961 240.888 48.2241 241.08 47.5681 241.08C45.9841 241.08 45.1041 240.184 45.1041 238.632V233.544H43.6001V232.584H45.1041V230.744H46.2401V232.584H48.8001V233.544H46.2401V238.568C46.2401 239.56 46.7521 240.104 47.6961 240.104C48.1601 240.104 48.6241 239.96 48.9441 239.672ZM55.7001 232.52C57.7481 232.52 59.1561 233.704 59.1561 236.12V241H58.0201V236.232C58.0201 234.456 57.0921 233.544 55.4921 233.544C53.6841 233.544 52.5481 234.664 52.5481 236.584V241H51.4121V229.128H52.5481V234.056C53.1721 233.08 54.2761 232.52 55.7001 232.52ZM69.6155 236.792C69.6155 236.888 69.5995 237.016 69.5995 237.144H62.5595C62.6875 238.904 64.0315 240.072 65.8715 240.072C66.8955 240.072 67.8075 239.704 68.4475 238.968L69.0875 239.704C68.3355 240.6 67.1675 241.08 65.8395 241.08C63.2155 241.08 61.4235 239.288 61.4235 236.792C61.4235 234.296 63.1675 232.52 65.5355 232.52C67.9035 232.52 69.6155 234.264 69.6155 236.792ZM65.5355 233.496C63.9035 233.496 62.7035 234.648 62.5595 236.296H68.5275C68.3835 234.648 67.1835 233.496 65.5355 233.496ZM75.9598 239.672L76.3598 240.488C75.9118 240.888 75.2398 241.08 74.5838 241.08C72.9998 241.08 72.1198 240.184 72.1198 238.632V233.544H70.6158V232.584H72.1198V230.744H73.2558V232.584H75.8158V233.544H73.2558V238.568C73.2558 239.56 73.7678 240.104 74.7118 240.104C75.1758 240.104 75.6398 239.96 75.9598 239.672ZM79.0038 230.744C78.5398 230.744 78.1718 230.376 78.1718 229.928C78.1718 229.496 78.5398 229.128 79.0038 229.128C79.4678 229.128 79.8358 229.48 79.8358 229.912C79.8358 230.376 79.4838 230.744 79.0038 230.744ZM78.4278 241V232.584H79.5638V241H78.4278ZM86.2126 241.08C83.7006 241.08 81.8766 239.304 81.8766 236.792C81.8766 234.28 83.7006 232.52 86.2126 232.52C87.6366 232.52 88.8366 233.08 89.5086 234.184L88.6606 234.76C88.0846 233.912 87.1886 233.512 86.2126 233.512C84.3726 233.512 83.0286 234.824 83.0286 236.792C83.0286 238.776 84.3726 240.072 86.2126 240.072C87.1886 240.072 88.0846 239.688 88.6606 238.84L89.5086 239.416C88.8366 240.504 87.6366 241.08 86.2126 241.08ZM98.8718 232.52C101.048 232.52 102.28 233.608 102.28 235.784V241H101.192V239.688C100.68 240.552 99.6878 241.08 98.2958 241.08C96.3918 241.08 95.2238 240.088 95.2238 238.632C95.2238 237.336 96.0558 236.248 98.4718 236.248H101.144V235.736C101.144 234.296 100.328 233.512 98.7598 233.512C97.6718 233.512 96.6478 233.896 95.9598 234.504L95.4478 233.656C96.2958 232.936 97.5438 232.52 98.8718 232.52ZM98.4718 240.184C99.7518 240.184 100.696 239.576 101.144 238.472V237.096H98.5038C96.8718 237.096 96.3438 237.736 96.3438 238.6C96.3438 239.576 97.1278 240.184 98.4718 240.184ZM109.653 232.52C111.701 232.52 113.109 233.704 113.109 236.12V241H111.973V236.232C111.973 234.456 111.045 233.544 109.445 233.544C107.637 233.544 106.501 234.664 106.501 236.584V241H105.365V232.584H106.453V234.136C107.061 233.112 108.197 232.52 109.653 232.52ZM122.769 229.128H123.905V241H122.817V239.336C122.129 240.472 120.961 241.08 119.569 241.08C117.169 241.08 115.377 239.336 115.377 236.792C115.377 234.248 117.169 232.52 119.569 232.52C120.913 232.52 122.065 233.096 122.769 234.184V229.128ZM119.665 240.072C121.441 240.072 122.785 238.76 122.785 236.792C122.785 234.824 121.441 233.512 119.665 233.512C117.873 233.512 116.529 234.824 116.529 236.792C116.529 238.76 117.873 240.072 119.665 240.072ZM137.96 232.584H139.048V239.976C139.048 242.872 137.624 244.184 134.84 244.184C133.304 244.184 131.8 243.72 130.92 242.888L131.496 242.024C132.296 242.744 133.512 243.176 134.808 243.176C136.936 243.176 137.912 242.2 137.912 240.12V239.048C137.208 240.12 136.008 240.68 134.632 240.68C132.232 240.68 130.408 239 130.408 236.584C130.408 234.168 132.232 232.52 134.632 232.52C136.04 232.52 137.256 233.096 137.96 234.2V232.584ZM134.744 239.672C136.6 239.672 137.944 238.408 137.944 236.584C137.944 234.76 136.6 233.512 134.744 233.512C132.888 233.512 131.56 234.76 131.56 236.584C131.56 238.408 132.888 239.672 134.744 239.672ZM143.313 234.232C143.841 233.112 144.913 232.52 146.465 232.52V233.624C146.369 233.624 146.273 233.608 146.193 233.608C144.433 233.608 143.361 234.728 143.361 236.712V241H142.225V232.584H143.313V234.232ZM151.883 241.08C149.419 241.08 147.595 239.288 147.595 236.792C147.595 234.296 149.419 232.52 151.883 232.52C154.347 232.52 156.155 234.296 156.155 236.792C156.155 239.288 154.347 241.08 151.883 241.08ZM151.883 240.072C153.675 240.072 155.003 238.76 155.003 236.792C155.003 234.824 153.675 233.512 151.883 233.512C150.091 233.512 148.747 234.824 148.747 236.792C148.747 238.76 150.091 240.072 151.883 240.072ZM169.552 232.584H170.592L167.408 241H166.336L163.68 234.104L161.024 241H159.952L156.784 232.584H157.872L160.512 239.736L163.216 232.584H164.192L166.88 239.736L169.552 232.584ZM172.879 230.744C172.415 230.744 172.047 230.376 172.047 229.928C172.047 229.496 172.415 229.128 172.879 229.128C173.343 229.128 173.711 229.48 173.711 229.912C173.711 230.376 173.359 230.744 172.879 230.744ZM172.303 241V232.584H173.439V241H172.303ZM180.888 232.52C182.936 232.52 184.344 233.704 184.344 236.12V241H183.208V236.232C183.208 234.456 182.28 233.544 180.68 233.544C178.872 233.544 177.736 234.664 177.736 236.584V241H176.6V232.584H177.688V234.136C178.296 233.112 179.432 232.52 180.888 232.52ZM194.163 232.584H195.251V239.976C195.251 242.872 193.827 244.184 191.043 244.184C189.507 244.184 188.003 243.72 187.123 242.888L187.699 242.024C188.499 242.744 189.715 243.176 191.011 243.176C193.139 243.176 194.115 242.2 194.115 240.12V239.048C193.411 240.12 192.211 240.68 190.835 240.68C188.435 240.68 186.611 239 186.611 236.584C186.611 234.168 188.435 232.52 190.835 232.52C192.243 232.52 193.459 233.096 194.163 234.2V232.584ZM190.947 239.672C192.803 239.672 194.147 238.408 194.147 236.584C194.147 234.76 192.803 233.512 190.947 233.512C189.091 233.512 187.763 234.76 187.763 236.584C187.763 238.408 189.091 239.672 190.947 239.672ZM77.8341 256.52C80.2341 256.52 82.0261 258.248 82.0261 260.792C82.0261 263.352 80.2341 265.08 77.8341 265.08C76.4901 265.08 75.3381 264.504 74.6341 263.416V268.104H73.4981V256.584H74.5861V258.248C75.2741 257.128 76.4421 256.52 77.8341 256.52ZM77.7541 264.072C79.5301 264.072 80.8901 262.76 80.8901 260.792C80.8901 258.84 79.5301 257.512 77.7541 257.512C75.9621 257.512 74.6181 258.84 74.6181 260.792C74.6181 262.76 75.9621 264.072 77.7541 264.072ZM87.2389 256.52C89.4149 256.52 90.6469 257.608 90.6469 259.784V265H89.5589V263.688C89.0469 264.552 88.0549 265.08 86.6629 265.08C84.7589 265.08 83.5909 264.088 83.5909 262.632C83.5909 261.336 84.4229 260.248 86.8389 260.248H89.5109V259.736C89.5109 258.296 88.6949 257.512 87.1269 257.512C86.0389 257.512 85.0149 257.896 84.3269 258.504L83.8149 257.656C84.6629 256.936 85.9109 256.52 87.2389 256.52ZM86.8389 264.184C88.1189 264.184 89.0629 263.576 89.5109 262.472V261.096H86.8709C85.2389 261.096 84.7109 261.736 84.7109 262.6C84.7109 263.576 85.4949 264.184 86.8389 264.184ZM97.7644 263.672L98.1644 264.488C97.7164 264.888 97.0444 265.08 96.3884 265.08C94.8044 265.08 93.9244 264.184 93.9244 262.632V257.544H92.4204V256.584H93.9244V254.744H95.0604V256.584H97.6204V257.544H95.0604V262.568C95.0604 263.56 95.5724 264.104 96.5164 264.104C96.9804 264.104 97.4444 263.96 97.7644 263.672ZM104.52 256.52C106.568 256.52 107.976 257.704 107.976 260.12V265H106.84V260.232C106.84 258.456 105.912 257.544 104.312 257.544C102.504 257.544 101.368 258.664 101.368 260.584V265H100.232V253.128H101.368V258.056C101.992 257.08 103.096 256.52 104.52 256.52ZM122.216 256.584H123.256L120.072 265H119L116.344 258.104L113.688 265H112.616L109.448 256.584H110.536L113.176 263.736L115.88 256.584H116.856L119.544 263.736L122.216 256.584ZM127.661 256.52C129.837 256.52 131.069 257.608 131.069 259.784V265H129.981V263.688C129.469 264.552 128.477 265.08 127.085 265.08C125.181 265.08 124.013 264.088 124.013 262.632C124.013 261.336 124.845 260.248 127.261 260.248H129.933V259.736C129.933 258.296 129.117 257.512 127.549 257.512C126.461 257.512 125.437 257.896 124.749 258.504L124.237 257.656C125.085 256.936 126.333 256.52 127.661 256.52ZM127.261 264.184C128.541 264.184 129.485 263.576 129.933 262.472V261.096H127.293C125.661 261.096 125.133 261.736 125.133 262.6C125.133 263.576 125.917 264.184 127.261 264.184ZM139.95 256.584H141.07L136.862 266.008C136.158 267.656 135.262 268.184 134.062 268.184C133.278 268.184 132.526 267.928 132.014 267.416L132.542 266.568C132.958 266.984 133.47 267.208 134.078 267.208C134.83 267.208 135.342 266.856 135.822 265.8L136.19 264.984L132.43 256.584H133.614L136.782 263.736L139.95 256.584Z" fill="black"/>
<path d="M52 189H160" stroke="#5AF3BB" stroke-width="2" stroke-linecap="round"/>
<path d="M27.1861 339.24C22.7661 339.24 19.5261 336.16 19.5261 332C19.5261 327.84 22.7661 324.76 27.1861 324.76C31.5861 324.76 34.8461 327.82 34.8461 332C34.8461 336.18 31.5861 339.24 27.1861 339.24ZM27.1861 336.48C29.6861 336.48 31.5661 334.66 31.5661 332C31.5661 329.34 29.6861 327.52 27.1861 327.52C24.6861 327.52 22.8061 329.34 22.8061 332C22.8061 334.66 24.6861 336.48 27.1861 336.48ZM43.3411 325C47.0811 325 49.4211 326.94 49.4211 330.08C49.4211 333.2 47.0811 335.14 43.3411 335.14H40.5211V339H37.2811V325H43.3411ZM43.1611 332.5C45.1411 332.5 46.1411 331.6 46.1411 330.08C46.1411 328.54 45.1411 327.64 43.1611 327.64H40.5211V332.5H43.1611ZM54.2436 339V327.64H49.7636V325H61.9636V327.64H57.4836V339H54.2436ZM63.7069 339V325H66.9469V339H63.7069ZM86.0494 339H83.0094L82.9894 330.6L78.8694 337.52H77.4094L73.3094 330.78V339H70.2694V325H72.9494L78.1894 333.7L83.3494 325H86.0094L86.0494 339ZM89.3709 339V325H92.6109V339H89.3709ZM99.3134 336.36H107.273V339H95.0334V336.9L102.713 327.64H95.1934V325H106.973V327.1L99.3134 336.36ZM119.811 339L118.571 336H112.071L110.831 339H107.511L113.751 325H116.951L123.211 339H119.811ZM113.111 333.54H117.551L115.331 328.18L113.111 333.54ZM126.861 339V327.64H122.381V325H134.581V327.64H130.101V339H126.861ZM136.324 339V325H139.564V339H136.324ZM149.667 339.24C145.247 339.24 142.007 336.16 142.007 332C142.007 327.84 145.247 324.76 149.667 324.76C154.067 324.76 157.327 327.82 157.327 332C157.327 336.18 154.067 339.24 149.667 339.24ZM149.667 336.48C152.167 336.48 154.047 334.66 154.047 332C154.047 329.34 152.167 327.52 149.667 327.52C147.167 327.52 145.287 329.34 145.287 332C145.287 334.66 147.167 336.48 149.667 336.48ZM169.402 325H172.602V339H169.942L162.962 330.5V339H159.762V325H162.442L169.402 333.5V325Z" fill="#393939"/>
<path d="M27.6484 377V366.824H23.7124V365.8H32.7684V366.824H28.8324V377H27.6484ZM40.6492 368.584H41.7852V377H40.6972V375.464C40.1052 376.488 39.0172 377.08 37.6732 377.08C35.5292 377.08 34.1212 375.88 34.1212 373.464V368.584H35.2572V373.352C35.2572 375.144 36.1852 376.056 37.7852 376.056C39.5452 376.056 40.6492 374.92 40.6492 373V368.584ZM49.2548 368.52C51.3028 368.52 52.7108 369.704 52.7108 372.12V377H51.5748V372.232C51.5748 370.456 50.6468 369.544 49.0468 369.544C47.2388 369.544 46.1028 370.664 46.1028 372.584V377H44.9668V368.584H46.0548V370.136C46.6628 369.112 47.7988 368.52 49.2548 368.52ZM60.0829 368.52C62.1309 368.52 63.5389 369.704 63.5389 372.12V377H62.4029V372.232C62.4029 370.456 61.4749 369.544 59.8749 369.544C58.0669 369.544 56.9309 370.664 56.9309 372.584V377H55.7949V368.584H56.8829V370.136C57.4909 369.112 58.6269 368.52 60.0829 368.52ZM67.1991 366.744C66.7351 366.744 66.3671 366.376 66.3671 365.928C66.3671 365.496 66.7351 365.128 67.1991 365.128C67.6631 365.128 68.0311 365.48 68.0311 365.912C68.0311 366.376 67.6791 366.744 67.1991 366.744ZM66.6231 377V368.584H67.7591V377H66.6231ZM75.2079 368.52C77.2559 368.52 78.6639 369.704 78.6639 372.12V377H77.5279V372.232C77.5279 370.456 76.5999 369.544 74.9999 369.544C73.1919 369.544 72.0559 370.664 72.0559 372.584V377H70.9199V368.584H72.0079V370.136C72.6159 369.112 73.7519 368.52 75.2079 368.52ZM88.4833 368.584H89.5713V375.976C89.5713 378.872 88.1473 380.184 85.3633 380.184C83.8273 380.184 82.3233 379.72 81.4433 378.888L82.0193 378.024C82.8193 378.744 84.0353 379.176 85.3313 379.176C87.4593 379.176 88.4353 378.2 88.4353 376.12V375.048C87.7313 376.12 86.5313 376.68 85.1553 376.68C82.7553 376.68 80.9313 375 80.9313 372.584C80.9313 370.168 82.7553 368.52 85.1553 368.52C86.5633 368.52 87.7793 369.096 88.4833 370.2V368.584ZM85.2673 375.672C87.1233 375.672 88.4673 374.408 88.4673 372.584C88.4673 370.76 87.1233 369.512 85.2673 369.512C83.4113 369.512 82.0833 370.76 82.0833 372.584C82.0833 374.408 83.4113 375.672 85.2673 375.672ZM99.1916 377.08C97.7996 377.08 96.4556 376.632 95.7676 376.04L96.2796 375.144C96.9516 375.672 98.0876 376.088 99.2716 376.088C100.872 376.088 101.528 375.544 101.528 374.712C101.528 372.52 96.0716 374.248 96.0716 370.92C96.0716 369.544 97.2556 368.52 99.3996 368.52C100.488 368.52 101.672 368.824 102.376 369.304L101.88 370.216C101.144 369.704 100.264 369.496 99.3996 369.496C97.8796 369.496 97.2076 370.088 97.2076 370.888C97.2076 373.16 102.664 371.448 102.664 374.68C102.664 376.136 101.384 377.08 99.1916 377.08ZM110.559 368.584H111.679L107.471 378.008C106.767 379.656 105.871 380.184 104.671 380.184C103.887 380.184 103.135 379.928 102.623 379.416L103.151 378.568C103.567 378.984 104.079 379.208 104.687 379.208C105.439 379.208 105.951 378.856 106.431 377.8L106.799 376.984L103.039 368.584H104.223L107.391 375.736L110.559 368.584ZM117.567 368.52C119.615 368.52 121.023 369.704 121.023 372.12V377H119.887V372.232C119.887 370.456 118.959 369.544 117.359 369.544C115.551 369.544 114.415 370.664 114.415 372.584V377H113.279V368.584H114.367V370.136C114.975 369.112 116.111 368.52 117.567 368.52ZM128.139 375.672L128.539 376.488C128.091 376.888 127.419 377.08 126.763 377.08C125.179 377.08 124.299 376.184 124.299 374.632V369.544H122.795V368.584H124.299V366.744H125.435V368.584H127.995V369.544H125.435V374.568C125.435 375.56 125.947 376.104 126.891 376.104C127.355 376.104 127.819 375.96 128.139 375.672ZM134.895 368.52C136.943 368.52 138.351 369.704 138.351 372.12V377H137.215V372.232C137.215 370.456 136.287 369.544 134.687 369.544C132.879 369.544 131.743 370.664 131.743 372.584V377H130.607V365.128H131.743V370.056C132.367 369.08 133.471 368.52 134.895 368.52ZM148.811 372.792C148.811 372.888 148.795 373.016 148.795 373.144H141.755C141.883 374.904 143.227 376.072 145.067 376.072C146.091 376.072 147.003 375.704 147.643 374.968L148.283 375.704C147.531 376.6 146.363 377.08 145.035 377.08C142.411 377.08 140.619 375.288 140.619 372.792C140.619 370.296 142.363 368.52 144.731 368.52C147.099 368.52 148.811 370.264 148.811 372.792ZM144.731 369.496C143.099 369.496 141.899 370.648 141.755 372.296H147.723C147.579 370.648 146.379 369.496 144.731 369.496ZM155.155 375.672L155.555 376.488C155.107 376.888 154.435 377.08 153.779 377.08C152.195 377.08 151.315 376.184 151.315 374.632V369.544H149.811V368.584H151.315V366.744H152.451V368.584H155.011V369.544H152.451V374.568C152.451 375.56 152.963 376.104 153.907 376.104C154.371 376.104 154.835 375.96 155.155 375.672ZM158.199 366.744C157.735 366.744 157.367 366.376 157.367 365.928C157.367 365.496 157.735 365.128 158.199 365.128C158.663 365.128 159.031 365.48 159.031 365.912C159.031 366.376 158.679 366.744 158.199 366.744ZM157.623 377V368.584H158.759V377H157.623ZM165.408 377.08C162.896 377.08 161.072 375.304 161.072 372.792C161.072 370.28 162.896 368.52 165.408 368.52C166.832 368.52 168.032 369.08 168.704 370.184L167.856 370.76C167.28 369.912 166.384 369.512 165.408 369.512C163.568 369.512 162.224 370.824 162.224 372.792C162.224 374.776 163.568 376.072 165.408 376.072C166.384 376.072 167.28 375.688 167.856 374.84L168.704 375.416C168.032 376.504 166.832 377.08 165.408 377.08ZM68.7782 392.584H69.8982L66.1542 401H64.9862L61.2582 392.584H62.4422L65.5942 399.752L68.7782 392.584ZM74.1921 392.52C76.3681 392.52 77.6001 393.608 77.6001 395.784V401H76.5121V399.688C76.0001 400.552 75.0081 401.08 73.6161 401.08C71.7121 401.08 70.5441 400.088 70.5441 398.632C70.5441 397.336 71.3761 396.248 73.7921 396.248H76.4641V395.736C76.4641 394.296 75.6481 393.512 74.0801 393.512C72.9921 393.512 71.9681 393.896 71.2801 394.504L70.7681 393.656C71.6161 392.936 72.8641 392.52 74.1921 392.52ZM73.7921 400.184C75.0721 400.184 76.0161 399.576 76.4641 398.472V397.096H73.8241C72.1921 397.096 71.6641 397.736 71.6641 398.6C71.6641 399.576 72.4481 400.184 73.7921 400.184ZM81.7736 394.232C82.3016 393.112 83.3736 392.52 84.9256 392.52V393.624C84.8296 393.624 84.7336 393.608 84.6536 393.608C82.8936 393.608 81.8216 394.728 81.8216 396.712V401H80.6856V392.584H81.7736V394.232ZM87.5584 390.744C87.0944 390.744 86.7264 390.376 86.7264 389.928C86.7264 389.496 87.0944 389.128 87.5584 389.128C88.0224 389.128 88.3904 389.48 88.3904 389.912C88.3904 390.376 88.0384 390.744 87.5584 390.744ZM86.9824 401V392.584H88.1184V401H86.9824ZM94.2233 392.52C96.3993 392.52 97.6313 393.608 97.6313 395.784V401H96.5433V399.688C96.0313 400.552 95.0393 401.08 93.6473 401.08C91.7433 401.08 90.5753 400.088 90.5753 398.632C90.5753 397.336 91.4073 396.248 93.8233 396.248H96.4953V395.736C96.4953 394.296 95.6793 393.512 94.1113 393.512C93.0233 393.512 91.9993 393.896 91.3113 394.504L90.7993 393.656C91.6473 392.936 92.8953 392.52 94.2233 392.52ZM93.8233 400.184C95.1033 400.184 96.0473 399.576 96.4953 398.472V397.096H93.8553C92.2233 397.096 91.6953 397.736 91.6953 398.6C91.6953 399.576 92.4793 400.184 93.8233 400.184ZM105.053 392.52C107.453 392.52 109.245 394.248 109.245 396.792C109.245 399.336 107.453 401.08 105.053 401.08C103.661 401.08 102.493 400.472 101.805 399.336V401H100.717V389.128H101.853V394.184C102.557 393.096 103.709 392.52 105.053 392.52ZM104.973 400.072C106.749 400.072 108.109 398.76 108.109 396.792C108.109 394.824 106.749 393.512 104.973 393.512C103.181 393.512 101.837 394.824 101.837 396.792C101.837 398.76 103.181 400.072 104.973 400.072ZM111.561 401V389.128H112.697V401H111.561ZM123.201 396.792C123.201 396.888 123.185 397.016 123.185 397.144H116.145C116.273 398.904 117.617 400.072 119.457 400.072C120.481 400.072 121.393 399.704 122.033 398.968L122.673 399.704C121.921 400.6 120.753 401.08 119.425 401.08C116.801 401.08 115.009 399.288 115.009 396.792C115.009 394.296 116.753 392.52 119.121 392.52C121.489 392.52 123.201 394.264 123.201 396.792ZM119.121 393.496C117.489 393.496 116.289 394.648 116.145 396.296H122.113C121.969 394.648 120.769 393.496 119.121 393.496ZM127.77 401.08C126.378 401.08 125.034 400.632 124.346 400.04L124.858 399.144C125.53 399.672 126.666 400.088 127.85 400.088C129.45 400.088 130.106 399.544 130.106 398.712C130.106 396.52 124.65 398.248 124.65 394.92C124.65 393.544 125.834 392.52 127.978 392.52C129.066 392.52 130.25 392.824 130.954 393.304L130.458 394.216C129.722 393.704 128.842 393.496 127.978 393.496C126.458 393.496 125.786 394.088 125.786 394.888C125.786 397.16 131.242 395.448 131.242 398.68C131.242 400.136 129.962 401.08 127.77 401.08Z" fill="black"/>
<path d="M42 349H150" stroke="#5AF3BB" stroke-width="2" stroke-linecap="round"/>
<path d="M137.495 461C141.235 461 143.575 462.94 143.575 466.08C143.575 469.2 141.235 471.14 137.495 471.14H134.675V475H131.435V461H137.495ZM137.315 468.5C139.295 468.5 140.295 467.6 140.295 466.08C140.295 464.54 139.295 463.64 137.315 463.64H134.675V468.5H137.315ZM149.109 472.4H156.729V475H145.889V461H156.469V463.6H149.109V466.64H155.609V469.16H149.109V472.4ZM171.706 475H168.226L165.526 471.1H165.366H162.546V475H159.306V461H165.366C169.106 461 171.446 462.94 171.446 466.08C171.446 468.18 170.386 469.72 168.566 470.5L171.706 475ZM168.166 466.08C168.166 464.54 167.166 463.64 165.186 463.64H162.546V468.52H165.186C167.166 468.52 168.166 467.6 168.166 466.08ZM184.594 463.6H177.254V467.3H183.734V469.9H177.254V475H174.014V461H184.594V463.6ZM193.43 475.24C189.01 475.24 185.77 472.16 185.77 468C185.77 463.84 189.01 460.76 193.43 460.76C197.83 460.76 201.09 463.82 201.09 468C201.09 472.18 197.83 475.24 193.43 475.24ZM193.43 472.48C195.93 472.48 197.81 470.66 197.81 468C197.81 465.34 195.93 463.52 193.43 463.52C190.93 463.52 189.05 465.34 189.05 468C189.05 470.66 190.93 472.48 193.43 472.48ZM215.925 475H212.445L209.745 471.1H209.585H206.765V475H203.525V461H209.585C213.325 461 215.665 462.94 215.665 466.08C215.665 468.18 214.605 469.72 212.785 470.5L215.925 475ZM212.385 466.08C212.385 464.54 211.385 463.64 209.405 463.64H206.765V468.52H209.405C211.385 468.52 212.385 467.6 212.385 466.08ZM234.012 475H230.972L230.952 466.6L226.832 473.52H225.372L221.272 466.78V475H218.232V461H220.912L226.152 469.7L231.312 461H233.972L234.012 475ZM247.794 475L246.554 472H240.054L238.814 475H235.494L241.734 461H244.934L251.194 475H247.794ZM241.094 469.54H245.534L243.314 464.18L241.094 469.54ZM262.286 461H265.486V475H262.826L255.846 466.5V475H252.646V461H255.326L262.286 469.5V461ZM275.499 475.24C271.159 475.24 267.919 472.22 267.919 468C267.919 463.78 271.159 460.76 275.519 460.76C277.939 460.76 279.959 461.64 281.279 463.24L279.199 465.16C278.259 464.08 277.079 463.52 275.679 463.52C273.059 463.52 271.199 465.36 271.199 468C271.199 470.64 273.059 472.48 275.679 472.48C277.079 472.48 278.259 471.92 279.199 470.82L281.279 472.74C279.959 474.36 277.939 475.24 275.499 475.24ZM286.687 472.4H294.307V475H283.467V461H294.047V463.6H286.687V466.64H293.187V469.16H286.687V472.4Z" fill="#393939"/>
<path d="M150.439 513.096C147.047 513.096 144.551 510.664 144.551 507.4C144.551 504.136 147.047 501.704 150.439 501.704C153.799 501.704 156.311 504.12 156.311 507.4C156.311 510.68 153.799 513.096 150.439 513.096ZM150.439 512.04C153.127 512.04 155.127 510.072 155.127 507.4C155.127 504.728 153.127 502.76 150.439 502.76C147.735 502.76 145.719 504.728 145.719 507.4C145.719 510.072 147.735 512.04 150.439 512.04ZM163.061 504.52C165.461 504.52 167.253 506.248 167.253 508.792C167.253 511.352 165.461 513.08 163.061 513.08C161.717 513.08 160.565 512.504 159.861 511.416V516.104H158.725V504.584H159.813V506.248C160.501 505.128 161.669 504.52 163.061 504.52ZM162.981 512.072C164.757 512.072 166.117 510.76 166.117 508.792C166.117 506.84 164.757 505.512 162.981 505.512C161.189 505.512 159.845 506.84 159.845 508.792C159.845 510.76 161.189 512.072 162.981 512.072ZM173.6 511.672L174 512.488C173.552 512.888 172.88 513.08 172.224 513.08C170.64 513.08 169.76 512.184 169.76 510.632V505.544H168.256V504.584H169.76V502.744H170.896V504.584H173.456V505.544H170.896V510.568C170.896 511.56 171.408 512.104 172.352 512.104C172.816 512.104 173.28 511.96 173.6 511.672ZM176.644 502.744C176.18 502.744 175.812 502.376 175.812 501.928C175.812 501.496 176.18 501.128 176.644 501.128C177.108 501.128 177.476 501.48 177.476 501.912C177.476 502.376 177.124 502.744 176.644 502.744ZM176.068 513V504.584H177.204V513H176.068ZM190.861 504.52C192.909 504.52 194.253 505.704 194.253 508.12V513H193.117V508.232C193.117 506.456 192.221 505.544 190.701 505.544C188.973 505.544 187.885 506.664 187.885 508.584V513H186.749V508.232C186.749 506.456 185.853 505.544 184.317 505.544C182.605 505.544 181.501 506.664 181.501 508.584V513H180.365V504.584H181.453V506.12C182.045 505.112 183.133 504.52 184.541 504.52C185.933 504.52 187.021 505.112 187.533 506.296C188.141 505.208 189.341 504.52 190.861 504.52ZM197.91 502.744C197.446 502.744 197.078 502.376 197.078 501.928C197.078 501.496 197.446 501.128 197.91 501.128C198.374 501.128 198.742 501.48 198.742 501.912C198.742 502.376 198.39 502.744 197.91 502.744ZM197.334 513V504.584H198.47V513H197.334ZM202.175 512.056H207.567V513H200.719V512.248L206.015 505.544H200.815V504.584H207.471V505.336L202.175 512.056ZM217.006 508.792C217.006 508.888 216.99 509.016 216.99 509.144H209.95C210.078 510.904 211.422 512.072 213.262 512.072C214.286 512.072 215.198 511.704 215.838 510.968L216.478 511.704C215.726 512.6 214.558 513.08 213.23 513.08C210.606 513.08 208.814 511.288 208.814 508.792C208.814 506.296 210.558 504.52 212.926 504.52C215.294 504.52 217.006 506.264 217.006 508.792ZM212.926 505.496C211.294 505.496 210.094 506.648 209.95 508.296H215.918C215.774 506.648 214.574 505.496 212.926 505.496ZM225.862 501.128H226.998V513H225.91V511.336C225.222 512.472 224.054 513.08 222.662 513.08C220.262 513.08 218.47 511.336 218.47 508.792C218.47 506.248 220.262 504.52 222.662 504.52C224.006 504.52 225.158 505.096 225.862 506.184V501.128ZM222.758 512.072C224.534 512.072 225.878 510.76 225.878 508.792C225.878 506.824 224.534 505.512 222.758 505.512C220.966 505.512 219.622 506.824 219.622 508.792C219.622 510.76 220.966 512.072 222.758 512.072ZM237.79 513.08C235.326 513.08 233.502 511.288 233.502 508.792C233.502 506.296 235.326 504.52 237.79 504.52C240.254 504.52 242.062 506.296 242.062 508.792C242.062 511.288 240.254 513.08 237.79 513.08ZM237.79 512.072C239.582 512.072 240.91 510.76 240.91 508.792C240.91 506.824 239.582 505.512 237.79 505.512C235.998 505.512 234.654 506.824 234.654 508.792C234.654 510.76 235.998 512.072 237.79 512.072ZM248.717 504.52C251.117 504.52 252.909 506.248 252.909 508.792C252.909 511.352 251.117 513.08 248.717 513.08C247.373 513.08 246.221 512.504 245.517 511.416V516.104H244.381V504.584H245.469V506.248C246.157 505.128 247.325 504.52 248.717 504.52ZM248.637 512.072C250.413 512.072 251.773 510.76 251.773 508.792C251.773 506.84 250.413 505.512 248.637 505.512C246.845 505.512 245.501 506.84 245.501 508.792C245.501 510.76 246.845 512.072 248.637 512.072ZM259.257 511.672L259.657 512.488C259.209 512.888 258.537 513.08 257.881 513.08C256.297 513.08 255.417 512.184 255.417 510.632V505.544H253.913V504.584H255.417V502.744H256.553V504.584H259.113V505.544H256.553V510.568C256.553 511.56 257.065 512.104 258.009 512.104C258.473 512.104 258.937 511.96 259.257 511.672ZM262.301 502.744C261.837 502.744 261.469 502.376 261.469 501.928C261.469 501.496 261.837 501.128 262.301 501.128C262.765 501.128 263.133 501.48 263.133 501.912C263.133 502.376 262.781 502.744 262.301 502.744ZM261.725 513V504.584H262.861V513H261.725ZM269.51 513.08C266.998 513.08 265.174 511.304 265.174 508.792C265.174 506.28 266.998 504.52 269.51 504.52C270.934 504.52 272.134 505.08 272.806 506.184L271.958 506.76C271.382 505.912 270.486 505.512 269.51 505.512C267.67 505.512 266.326 506.824 266.326 508.792C266.326 510.776 267.67 512.072 269.51 512.072C270.486 512.072 271.382 511.688 271.958 510.84L272.806 511.416C272.134 512.504 270.934 513.08 269.51 513.08ZM277.293 513.08C275.901 513.08 274.557 512.632 273.869 512.04L274.381 511.144C275.053 511.672 276.189 512.088 277.373 512.088C278.973 512.088 279.629 511.544 279.629 510.712C279.629 508.52 274.173 510.248 274.173 506.92C274.173 505.544 275.357 504.52 277.501 504.52C278.589 504.52 279.773 504.824 280.477 505.304L279.981 506.216C279.245 505.704 278.365 505.496 277.501 505.496C275.981 505.496 275.309 506.088 275.309 506.888C275.309 509.16 280.765 507.448 280.765 510.68C280.765 512.136 279.485 513.08 277.293 513.08ZM146.634 526.008C145.658 526.008 145.146 526.552 145.146 527.592V528.584H147.738V529.544H145.178V537H144.042V529.544H142.538V528.584H144.042V527.544C144.042 526.04 144.938 525.048 146.586 525.048C147.21 525.048 147.85 525.224 148.266 525.576L147.882 526.424C147.562 526.152 147.114 526.008 146.634 526.008ZM152.571 537.08C150.107 537.08 148.283 535.288 148.283 532.792C148.283 530.296 150.107 528.52 152.571 528.52C155.035 528.52 156.843 530.296 156.843 532.792C156.843 535.288 155.035 537.08 152.571 537.08ZM152.571 536.072C154.363 536.072 155.691 534.76 155.691 532.792C155.691 530.824 154.363 529.512 152.571 529.512C150.779 529.512 149.435 530.824 149.435 532.792C149.435 534.76 150.779 536.072 152.571 536.072ZM160.25 530.232C160.778 529.112 161.85 528.52 163.402 528.52V529.624C163.306 529.624 163.21 529.608 163.13 529.608C161.37 529.608 160.298 530.728 160.298 532.712V537H159.162V528.584H160.25V530.232ZM172.028 537.08C170.636 537.08 169.292 536.632 168.604 536.04L169.116 535.144C169.788 535.672 170.924 536.088 172.108 536.088C173.708 536.088 174.364 535.544 174.364 534.712C174.364 532.52 168.908 534.248 168.908 530.92C168.908 529.544 170.092 528.52 172.236 528.52C173.324 528.52 174.508 528.824 175.212 529.304L174.716 530.216C173.98 529.704 173.1 529.496 172.236 529.496C170.716 529.496 170.044 530.088 170.044 530.888C170.044 533.16 175.5 531.448 175.5 534.68C175.5 536.136 174.22 537.08 172.028 537.08ZM181.936 528.52C184.336 528.52 186.128 530.248 186.128 532.792C186.128 535.352 184.336 537.08 181.936 537.08C180.592 537.08 179.44 536.504 178.736 535.416V540.104H177.6V528.584H178.688V530.248C179.376 529.128 180.544 528.52 181.936 528.52ZM181.856 536.072C183.632 536.072 184.992 534.76 184.992 532.792C184.992 530.84 183.632 529.512 181.856 529.512C180.064 529.512 178.72 530.84 178.72 532.792C178.72 534.76 180.064 536.072 181.856 536.072ZM195.787 532.792C195.787 532.888 195.771 533.016 195.771 533.144H188.731C188.859 534.904 190.203 536.072 192.043 536.072C193.067 536.072 193.979 535.704 194.619 534.968L195.259 535.704C194.507 536.6 193.339 537.08 192.011 537.08C189.387 537.08 187.595 535.288 187.595 532.792C187.595 530.296 189.339 528.52 191.707 528.52C194.075 528.52 195.787 530.264 195.787 532.792ZM191.707 529.496C190.075 529.496 188.875 530.648 188.731 532.296H194.699C194.555 530.648 193.355 529.496 191.707 529.496ZM201.588 537.08C199.076 537.08 197.252 535.304 197.252 532.792C197.252 530.28 199.076 528.52 201.588 528.52C203.012 528.52 204.212 529.08 204.884 530.184L204.036 530.76C203.46 529.912 202.564 529.512 201.588 529.512C199.748 529.512 198.404 530.824 198.404 532.792C198.404 534.776 199.748 536.072 201.588 536.072C202.564 536.072 203.46 535.688 204.036 534.84L204.884 535.416C204.212 536.504 203.012 537.08 201.588 537.08ZM207.691 526.744C207.227 526.744 206.859 526.376 206.859 525.928C206.859 525.496 207.227 525.128 207.691 525.128C208.155 525.128 208.523 525.48 208.523 525.912C208.523 526.376 208.171 526.744 207.691 526.744ZM207.115 537V528.584H208.251V537H207.115ZM211.604 527.544C211.604 526.04 212.5 525.048 214.148 525.048C214.772 525.048 215.412 525.224 215.828 525.576L215.444 526.424C215.124 526.152 214.676 526.008 214.196 526.008C213.22 526.008 212.708 526.552 212.708 527.592V528.584H215.3V529.544H212.74V537H211.604V529.544H210.1V528.584H211.604V527.544ZM218.692 525.128C219.156 525.128 219.524 525.48 219.524 525.912C219.524 526.376 219.172 526.744 218.692 526.744C218.228 526.744 217.86 526.376 217.86 525.928C217.86 525.496 218.228 525.128 218.692 525.128ZM218.116 537V528.584H219.252V537H218.116ZM225.916 537.08C223.404 537.08 221.58 535.304 221.58 532.792C221.58 530.28 223.404 528.52 225.916 528.52C227.34 528.52 228.54 529.08 229.212 530.184L228.364 530.76C227.788 529.912 226.892 529.512 225.916 529.512C224.076 529.512 222.732 530.824 222.732 532.792C222.732 534.776 224.076 536.072 225.916 536.072C226.892 536.072 227.788 535.688 228.364 534.84L229.212 535.416C228.54 536.504 227.34 537.08 225.916 537.08ZM242.079 528.584H243.215V537H242.127V535.464C241.535 536.488 240.447 537.08 239.103 537.08C236.959 537.08 235.551 535.88 235.551 533.464V528.584H236.687V533.352C236.687 535.144 237.615 536.056 239.215 536.056C240.975 536.056 242.079 534.92 242.079 533V528.584ZM248.653 537.08C247.261 537.08 245.917 536.632 245.229 536.04L245.741 535.144C246.413 535.672 247.549 536.088 248.733 536.088C250.333 536.088 250.989 535.544 250.989 534.712C250.989 532.52 245.533 534.248 245.533 530.92C245.533 529.544 246.717 528.52 248.861 528.52C249.949 528.52 251.133 528.824 251.837 529.304L251.341 530.216C250.605 529.704 249.725 529.496 248.861 529.496C247.341 529.496 246.669 530.088 246.669 530.888C246.669 533.16 252.125 531.448 252.125 534.68C252.125 536.136 250.845 537.08 248.653 537.08ZM257.169 528.52C259.345 528.52 260.577 529.608 260.577 531.784V537H259.489V535.688C258.977 536.552 257.985 537.08 256.593 537.08C254.689 537.08 253.521 536.088 253.521 534.632C253.521 533.336 254.353 532.248 256.769 532.248H259.441V531.736C259.441 530.296 258.625 529.512 257.057 529.512C255.969 529.512 254.945 529.896 254.257 530.504L253.745 529.656C254.593 528.936 255.841 528.52 257.169 528.52ZM256.769 536.184C258.049 536.184 258.993 535.576 259.441 534.472V533.096H256.801C255.169 533.096 254.641 533.736 254.641 534.6C254.641 535.576 255.425 536.184 256.769 536.184ZM270.397 528.584H271.485V535.976C271.485 538.872 270.061 540.184 267.277 540.184C265.741 540.184 264.237 539.72 263.357 538.888L263.933 538.024C264.733 538.744 265.949 539.176 267.245 539.176C269.373 539.176 270.349 538.2 270.349 536.12V535.048C269.645 536.12 268.445 536.68 267.069 536.68C264.669 536.68 262.845 535 262.845 532.584C262.845 530.168 264.669 528.52 267.069 528.52C268.477 528.52 269.693 529.096 270.397 530.2V528.584ZM267.181 535.672C269.037 535.672 270.381 534.408 270.381 532.584C270.381 530.76 269.037 529.512 267.181 529.512C265.325 529.512 263.997 530.76 263.997 532.584C263.997 534.408 265.325 535.672 267.181 535.672ZM282.006 532.792C282.006 532.888 281.99 533.016 281.99 533.144H274.95C275.078 534.904 276.422 536.072 278.262 536.072C279.286 536.072 280.198 535.704 280.838 534.968L281.478 535.704C280.726 536.6 279.558 537.08 278.23 537.08C275.606 537.08 273.814 535.288 273.814 532.792C273.814 530.296 275.558 528.52 277.926 528.52C280.294 528.52 282.006 530.264 282.006 532.792ZM277.926 529.496C276.294 529.496 275.094 530.648 274.95 532.296H280.918C280.774 530.648 279.574 529.496 277.926 529.496Z" fill="black"/>
<path d="M159 485H267" stroke="#5AF3BB" stroke-width="2" stroke-linecap="round"/>
<path d="M367.818 508C371.558 508 373.898 509.94 373.898 513.08C373.898 516.2 371.558 518.14 367.818 518.14H364.998V522H361.758V508H367.818ZM367.638 515.5C369.618 515.5 370.618 514.6 370.618 513.08C370.618 511.54 369.618 510.64 367.638 510.64H364.998V515.5H367.638ZM388.611 522H385.131L382.431 518.1H382.271H379.451V522H376.211V508H382.271C386.011 508 388.351 509.94 388.351 513.08C388.351 515.18 387.291 516.72 385.471 517.5L388.611 522ZM385.071 513.08C385.071 511.54 384.071 510.64 382.091 510.64H379.451V515.52H382.091C384.071 515.52 385.071 514.6 385.071 513.08ZM397.698 522.24C393.278 522.24 390.038 519.16 390.038 515C390.038 510.84 393.278 507.76 397.698 507.76C402.098 507.76 405.358 510.82 405.358 515C405.358 519.18 402.098 522.24 397.698 522.24ZM397.698 519.48C400.198 519.48 402.078 517.66 402.078 515C402.078 512.34 400.198 510.52 397.698 510.52C395.198 510.52 393.318 512.34 393.318 515C393.318 517.66 395.198 519.48 397.698 519.48ZM407.793 522V508H414.153C418.733 508 421.873 510.76 421.873 515C421.873 519.24 418.733 522 414.153 522H407.793ZM411.033 519.34H413.993C416.773 519.34 418.593 517.68 418.593 515C418.593 512.32 416.773 510.66 413.993 510.66H411.033V519.34ZM430.536 522.24C426.556 522.24 424.196 519.96 424.196 515.84V508H427.436V515.72C427.436 518.38 428.596 519.48 430.556 519.48C432.536 519.48 433.676 518.38 433.676 515.72V508H436.876V515.84C436.876 519.96 434.516 522.24 430.536 522.24ZM446.778 522.24C442.438 522.24 439.198 519.22 439.198 515C439.198 510.78 442.438 507.76 446.798 507.76C449.218 507.76 451.238 508.64 452.558 510.24L450.478 512.16C449.538 511.08 448.358 510.52 446.958 510.52C444.338 510.52 442.478 512.36 442.478 515C442.478 517.64 444.338 519.48 446.958 519.48C448.358 519.48 449.538 518.92 450.478 517.82L452.558 519.74C451.238 521.36 449.218 522.24 446.778 522.24ZM457.509 522V510.64H453.029V508H465.229V510.64H460.749V522H457.509ZM466.973 522V508H470.213V522H466.973ZM480.315 522.24C475.895 522.24 472.655 519.16 472.655 515C472.655 510.84 475.895 507.76 480.315 507.76C484.715 507.76 487.975 510.82 487.975 515C487.975 519.18 484.715 522.24 480.315 522.24ZM480.315 519.48C482.815 519.48 484.695 517.66 484.695 515C484.695 512.34 482.815 510.52 480.315 510.52C477.815 510.52 475.935 512.34 475.935 515C475.935 517.66 477.815 519.48 480.315 519.48ZM500.05 508H503.25V522H500.59L493.61 513.5V522H490.41V508H493.09L500.05 516.5V508Z" fill="#393939"/>
<path d="M408.053 561.096C406.373 561.096 404.725 560.504 403.893 559.64L404.357 558.728C405.157 559.512 406.581 560.088 408.053 560.088C410.149 560.088 411.061 559.208 411.061 558.104C411.061 555.032 404.165 556.92 404.165 552.776C404.165 551.128 405.445 549.704 408.293 549.704C409.557 549.704 410.869 550.072 411.765 550.696L411.365 551.64C410.405 551.016 409.285 550.712 408.293 550.712C406.245 550.712 405.333 551.624 405.333 552.744C405.333 555.816 412.229 553.96 412.229 558.04C412.229 559.688 410.917 561.096 408.053 561.096ZM418.056 561.08C415.544 561.08 413.72 559.304 413.72 556.792C413.72 554.28 415.544 552.52 418.056 552.52C419.48 552.52 420.68 553.08 421.352 554.184L420.504 554.76C419.928 553.912 419.032 553.512 418.056 553.512C416.216 553.512 414.872 554.824 414.872 556.792C414.872 558.776 416.216 560.072 418.056 560.072C419.032 560.072 419.928 559.688 420.504 558.84L421.352 559.416C420.68 560.504 419.48 561.08 418.056 561.08ZM426.528 552.52C428.704 552.52 429.936 553.608 429.936 555.784V561H428.848V559.688C428.336 560.552 427.344 561.08 425.952 561.08C424.048 561.08 422.88 560.088 422.88 558.632C422.88 557.336 423.712 556.248 426.128 556.248H428.8V555.736C428.8 554.296 427.984 553.512 426.416 553.512C425.328 553.512 424.304 553.896 423.616 554.504L423.104 553.656C423.952 552.936 425.2 552.52 426.528 552.52ZM426.128 560.184C427.408 560.184 428.352 559.576 428.8 558.472V557.096H426.16C424.528 557.096 424 557.736 424 558.6C424 559.576 424.784 560.184 426.128 560.184ZM433.022 561V549.128H434.158V561H433.022ZM437.894 550.744C437.43 550.744 437.062 550.376 437.062 549.928C437.062 549.496 437.43 549.128 437.894 549.128C438.358 549.128 438.726 549.48 438.726 549.912C438.726 550.376 438.374 550.744 437.894 550.744ZM437.318 561V552.584H438.454V561H437.318ZM445.903 552.52C447.951 552.52 449.359 553.704 449.359 556.12V561H448.223V556.232C448.223 554.456 447.295 553.544 445.695 553.544C443.887 553.544 442.751 554.664 442.751 556.584V561H441.615V552.584H442.703V554.136C443.311 553.112 444.447 552.52 445.903 552.52ZM459.179 552.584H460.267V559.976C460.267 562.872 458.843 564.184 456.059 564.184C454.523 564.184 453.019 563.72 452.139 562.888L452.715 562.024C453.515 562.744 454.731 563.176 456.027 563.176C458.155 563.176 459.131 562.2 459.131 560.12V559.048C458.427 560.12 457.227 560.68 455.851 560.68C453.451 560.68 451.627 559 451.627 556.584C451.627 554.168 453.451 552.52 455.851 552.52C457.259 552.52 458.475 553.096 459.179 554.2V552.584ZM455.963 559.672C457.819 559.672 459.163 558.408 459.163 556.584C459.163 554.76 457.819 553.512 455.963 553.512C454.107 553.512 452.779 554.76 452.779 556.584C452.779 558.408 454.107 559.672 455.963 559.672ZM383.814 576.52C385.862 576.52 387.206 577.704 387.206 580.12V585H386.07V580.232C386.07 578.456 385.174 577.544 383.654 577.544C381.926 577.544 380.838 578.664 380.838 580.584V585H379.702V580.232C379.702 578.456 378.806 577.544 377.27 577.544C375.558 577.544 374.454 578.664 374.454 580.584V585H373.318V576.584H374.406V578.12C374.998 577.112 376.086 576.52 377.494 576.52C378.886 576.52 379.974 577.112 380.486 578.296C381.094 577.208 382.294 576.52 383.814 576.52ZM393.231 576.52C395.407 576.52 396.639 577.608 396.639 579.784V585H395.551V583.688C395.039 584.552 394.047 585.08 392.655 585.08C390.751 585.08 389.583 584.088 389.583 582.632C389.583 581.336 390.415 580.248 392.831 580.248H395.503V579.736C395.503 578.296 394.687 577.512 393.119 577.512C392.031 577.512 391.007 577.896 390.319 578.504L389.807 577.656C390.655 576.936 391.903 576.52 393.231 576.52ZM392.831 584.184C394.111 584.184 395.055 583.576 395.503 582.472V581.096H392.863C391.231 581.096 390.703 581.736 390.703 582.6C390.703 583.576 391.487 584.184 392.831 584.184ZM404.013 576.52C406.061 576.52 407.469 577.704 407.469 580.12V585H406.333V580.232C406.333 578.456 405.405 577.544 403.805 577.544C401.997 577.544 400.861 578.664 400.861 580.584V585H399.725V576.584H400.813V578.136C401.421 577.112 402.557 576.52 404.013 576.52ZM417.001 576.584H418.137V585H417.049V583.464C416.457 584.488 415.369 585.08 414.025 585.08C411.881 585.08 410.473 583.88 410.473 581.464V576.584H411.609V581.352C411.609 583.144 412.537 584.056 414.137 584.056C415.897 584.056 417.001 582.92 417.001 581V576.584ZM424.102 574.008C423.126 574.008 422.614 574.552 422.614 575.592V576.584H425.206V577.544H422.646V585H421.51V577.544H420.006V576.584H421.51V575.544C421.51 574.04 422.406 573.048 424.054 573.048C424.678 573.048 425.318 573.224 425.734 573.576L425.35 574.424C425.03 574.152 424.582 574.008 424.102 574.008ZM429.528 576.52C431.704 576.52 432.936 577.608 432.936 579.784V585H431.848V583.688C431.336 584.552 430.344 585.08 428.952 585.08C427.048 585.08 425.88 584.088 425.88 582.632C425.88 581.336 426.712 580.248 429.128 580.248H431.8V579.736C431.8 578.296 430.984 577.512 429.416 577.512C428.328 577.512 427.304 577.896 426.616 578.504L426.104 577.656C426.952 576.936 428.2 576.52 429.528 576.52ZM429.128 584.184C430.408 584.184 431.352 583.576 431.8 582.472V581.096H429.16C427.528 581.096 427 581.736 427 582.6C427 583.576 427.784 584.184 429.128 584.184ZM439.541 585.08C437.029 585.08 435.205 583.304 435.205 580.792C435.205 578.28 437.029 576.52 439.541 576.52C440.965 576.52 442.165 577.08 442.837 578.184L441.989 578.76C441.413 577.912 440.517 577.512 439.541 577.512C437.701 577.512 436.357 578.824 436.357 580.792C436.357 582.776 437.701 584.072 439.541 584.072C440.517 584.072 441.413 583.688 441.989 582.84L442.837 583.416C442.165 584.504 440.965 585.08 439.541 585.08ZM449.194 583.672L449.594 584.488C449.146 584.888 448.474 585.08 447.818 585.08C446.234 585.08 445.354 584.184 445.354 582.632V577.544H443.85V576.584H445.354V574.744H446.49V576.584H449.05V577.544H446.49V582.568C446.49 583.56 447.002 584.104 447.946 584.104C448.41 584.104 448.874 583.96 449.194 583.672ZM458.11 576.584H459.246V585H458.158V583.464C457.566 584.488 456.478 585.08 455.134 585.08C452.99 585.08 451.582 583.88 451.582 581.464V576.584H452.718V581.352C452.718 583.144 453.646 584.056 455.246 584.056C457.006 584.056 458.11 582.92 458.11 581V576.584ZM463.516 578.232C464.044 577.112 465.116 576.52 466.668 576.52V577.624C466.572 577.624 466.476 577.608 466.396 577.608C464.636 577.608 463.564 578.728 463.564 580.712V585H462.428V576.584H463.516V578.232ZM469.301 574.744C468.837 574.744 468.469 574.376 468.469 573.928C468.469 573.496 468.837 573.128 469.301 573.128C469.765 573.128 470.133 573.48 470.133 573.912C470.133 574.376 469.781 574.744 469.301 574.744ZM468.725 585V576.584H469.861V585H468.725ZM477.31 576.52C479.358 576.52 480.766 577.704 480.766 580.12V585H479.63V580.232C479.63 578.456 478.702 577.544 477.102 577.544C475.294 577.544 474.158 578.664 474.158 580.584V585H473.022V576.584H474.11V578.136C474.718 577.112 475.854 576.52 477.31 576.52ZM490.585 576.584H491.673V583.976C491.673 586.872 490.249 588.184 487.465 588.184C485.929 588.184 484.425 587.72 483.545 586.888L484.121 586.024C484.921 586.744 486.137 587.176 487.433 587.176C489.561 587.176 490.537 586.2 490.537 584.12V583.048C489.833 584.12 488.633 584.68 487.257 584.68C484.857 584.68 483.033 583 483.033 580.584C483.033 578.168 484.857 576.52 487.257 576.52C488.665 576.52 489.881 577.096 490.585 578.2V576.584ZM487.369 583.672C489.225 583.672 490.569 582.408 490.569 580.584C490.569 578.76 489.225 577.512 487.369 577.512C485.513 577.512 484.185 578.76 484.185 580.584C484.185 582.408 485.513 583.672 487.369 583.672ZM407.779 600.52C410.179 600.52 411.971 602.248 411.971 604.792C411.971 607.352 410.179 609.08 407.779 609.08C406.435 609.08 405.283 608.504 404.579 607.416V612.104H403.443V600.584H404.531V602.248C405.219 601.128 406.387 600.52 407.779 600.52ZM407.699 608.072C409.475 608.072 410.835 606.76 410.835 604.792C410.835 602.84 409.475 601.512 407.699 601.512C405.907 601.512 404.563 602.84 404.563 604.792C404.563 606.76 405.907 608.072 407.699 608.072ZM415.375 602.232C415.903 601.112 416.975 600.52 418.527 600.52V601.624C418.431 601.624 418.335 601.608 418.255 601.608C416.495 601.608 415.423 602.728 415.423 604.712V609H414.287V600.584H415.375V602.232ZM423.946 609.08C421.482 609.08 419.658 607.288 419.658 604.792C419.658 602.296 421.482 600.52 423.946 600.52C426.41 600.52 428.218 602.296 428.218 604.792C428.218 607.288 426.41 609.08 423.946 609.08ZM423.946 608.072C425.738 608.072 427.066 606.76 427.066 604.792C427.066 602.824 425.738 601.512 423.946 601.512C422.154 601.512 420.81 602.824 420.81 604.792C420.81 606.76 422.154 608.072 423.946 608.072ZM434.025 609.08C431.513 609.08 429.689 607.304 429.689 604.792C429.689 602.28 431.513 600.52 434.025 600.52C435.449 600.52 436.649 601.08 437.321 602.184L436.473 602.76C435.897 601.912 435.001 601.512 434.025 601.512C432.185 601.512 430.841 602.824 430.841 604.792C430.841 606.776 432.185 608.072 434.025 608.072C435.001 608.072 435.897 607.688 436.473 606.84L437.321 607.416C436.649 608.504 435.449 609.08 434.025 609.08ZM446.756 604.792C446.756 604.888 446.74 605.016 446.74 605.144H439.7C439.828 606.904 441.172 608.072 443.012 608.072C444.036 608.072 444.948 607.704 445.588 606.968L446.228 607.704C445.476 608.6 444.308 609.08 442.98 609.08C440.356 609.08 438.564 607.288 438.564 604.792C438.564 602.296 440.308 600.52 442.676 600.52C445.044 600.52 446.756 602.264 446.756 604.792ZM442.676 601.496C441.044 601.496 439.844 602.648 439.7 604.296H445.668C445.524 602.648 444.324 601.496 442.676 601.496ZM451.324 609.08C449.932 609.08 448.588 608.632 447.9 608.04L448.412 607.144C449.084 607.672 450.22 608.088 451.404 608.088C453.004 608.088 453.66 607.544 453.66 606.712C453.66 604.52 448.204 606.248 448.204 602.92C448.204 601.544 449.388 600.52 451.532 600.52C452.62 600.52 453.804 600.824 454.508 601.304L454.012 602.216C453.276 601.704 452.396 601.496 451.532 601.496C450.012 601.496 449.34 602.088 449.34 602.888C449.34 605.16 454.796 603.448 454.796 606.68C454.796 608.136 453.516 609.08 451.324 609.08ZM459.153 609.08C457.761 609.08 456.417 608.632 455.729 608.04L456.241 607.144C456.913 607.672 458.049 608.088 459.233 608.088C460.833 608.088 461.489 607.544 461.489 606.712C461.489 604.52 456.033 606.248 456.033 602.92C456.033 601.544 457.217 600.52 459.361 600.52C460.449 600.52 461.633 600.824 462.337 601.304L461.841 602.216C461.105 601.704 460.225 601.496 459.361 601.496C457.841 601.496 457.169 602.088 457.169 602.888C457.169 605.16 462.625 603.448 462.625 606.68C462.625 608.136 461.345 609.08 459.153 609.08Z" fill="black"/>
<path d="M379 532H487" stroke="#5AF3BB" stroke-width="2" stroke-linecap="round"/>
<path d="M412.303 530.47C355.463 540.84 296.553 530.87 246.573 502.31C224.633 489.76 205.113 474.21 188.353 456.18C161.803 427.56 142.343 392.78 131.743 354.02C128.803 343.31 126.673 332.48 125.233 321.66C118.033 268.62 128.343 215.01 155.233 167.85C168.363 144.93 185.063 124.32 204.933 106.58C223.243 90.17 243.803 76.75 266.143 66.56L239.833 5C210.863 18.07 184.143 35.46 160.363 56.65C135.253 79.05 114.003 105.37 97.2525 134.79C55.9125 207.18 45.1925 291.26 67.1325 371.59C89.0725 451.92 141.013 518.95 213.513 560.36C277.263 596.75 352.123 609.6 424.163 596.41C443.453 592.84 462.513 587.48 480.773 580.4C482.023 579.02 483.143 577.57 484.363 576.17V505.01C461.883 517.1 437.583 525.85 412.303 530.48V530.47Z" fill="url(#paint0_linear_75_468)" fill-opacity="0.1"/>
<defs>
<linearGradient id="paint0_linear_75_468" x1="675.993" y1="692.61" x2="193.773" y2="257.93" gradientUnits="userSpaceOnUse">
<stop stop-color="#9FDB23"/>
<stop offset="0.99" stop-color="#24DBD7"/>
</linearGradient>
</defs>
</svg>
