<svg width="43" height="44" viewBox="0 0 43 44" fill="none" xmlns="http://www.w3.org/2000/svg">
<path d="M0 21.5C0 9.62588 9.62588 0 21.5 0C33.3741 0 43 9.62588 43 21.5V22.5C43 34.3741 33.3741 44 21.5 44C9.62588 44 0 34.3741 0 22.5V21.5Z" fill="#5AF3BB"/>
<path d="M14.4067 12C15.7334 12 16.8072 13.0795 16.8072 14.4064C16.8072 15.7334 15.7303 16.816 14.4067 16.816C13.083 16.816 12 15.7334 12 14.4064C12 13.0795 13.0768 12 14.4067 12ZM12.3301 18.6378H16.4801V32H12.3301V18.6378Z" fill="#FBFAFC"/>
<path d="M18.8071 18.6347H22.7812V20.4627H22.8367C23.3921 19.411 24.7436 18.3037 26.7615 18.3037C30.9577 18.3037 31.7291 21.0689 31.7291 24.6693V31.9969H27.5884V25.5014C27.5884 23.9486 27.5575 21.9598 25.4378 21.9598C23.3181 21.9598 22.9509 23.6455 22.9509 25.39V32H18.8102V18.6347H18.8071Z" fill="#FBFAFC"/>
</svg>
