<svg width="406" height="385" viewBox="0 0 406 385" fill="none" xmlns="http://www.w3.org/2000/svg">
<g clip-path="url(#clip0_26_253)">
<path d="M229.993 339.178C193.302 345.871 155.276 339.436 123.013 321.001C108.851 312.9 96.2508 302.863 85.4322 291.225C68.2941 272.752 55.7326 250.302 48.8903 225.284C46.9925 218.371 45.6176 211.38 44.6881 204.396C40.0405 170.16 46.6956 135.556 64.0532 105.116C72.5286 90.3213 83.3085 77.0181 96.1346 65.5673C107.954 54.9751 121.225 46.3128 135.646 39.7354L118.663 0C99.9625 8.43636 82.7146 19.6612 67.3646 33.3388C51.156 47.7974 37.4391 64.7863 26.6269 83.7762C-0.0581791 130.502 -6.97797 184.774 7.18436 236.625C21.3467 288.476 54.8741 331.742 101.673 358.471C142.824 381.96 191.146 390.254 237.648 381.74C250.1 379.436 262.403 375.976 274.19 371.406C274.997 370.516 275.72 369.58 276.507 368.676V322.744C261.997 330.548 246.311 336.196 229.993 339.184V339.178Z" fill="url(#paint0_linear_26_253)" fill-opacity="0.2"/>
<path d="M436.541 214.349C432.1 192.991 424.283 172.626 413.303 153.817C386.217 107.426 342.626 74.3394 290.567 60.6553C238.552 46.9971 184.343 54.3813 137.938 81.4654C97.6711 104.974 66.8677 141.759 50.6978 185.355C50.8786 198.025 52.6408 210.767 56.0684 223.321C61.4519 243.041 70.5728 261.082 82.7987 276.689C79.4485 252.336 81.7723 227.562 89.9702 203.789C102.293 168.017 127.074 137.815 159.73 118.755C196.233 97.4409 238.836 91.6187 279.683 102.353C320.486 113.074 354.697 139.087 376.025 175.614C384.655 190.396 390.794 206.365 394.267 223.076C394.673 225.013 395.035 226.955 395.371 228.905H439.013C438.367 224.031 437.554 219.178 436.554 214.356L436.541 214.349Z" fill="url(#paint1_linear_26_253)" fill-opacity="0.2"/>
</g>
<defs>
<linearGradient id="paint0_linear_26_253" x1="400.205" y1="443.835" x2="88.9429" y2="163.247" gradientUnits="userSpaceOnUse">
<stop stop-color="#9FDB23"/>
<stop offset="0.99" stop-color="#24DBD7"/>
</linearGradient>
<linearGradient id="paint1_linear_26_253" x1="50.6914" y1="165.326" x2="439" y2="165.326" gradientUnits="userSpaceOnUse">
<stop stop-color="#9FDB23"/>
<stop offset="1" stop-color="#24DBD7"/>
</linearGradient>
<clipPath id="clip0_26_253">
<rect width="439" height="385" fill="white"/>
</clipPath>
</defs>
</svg>
