<svg width="319" height="572" viewBox="0 0 319 572" fill="none" xmlns="http://www.w3.org/2000/svg">
<path d="M106.707 19.24C104.487 19.24 102.247 18.58 101.007 17.62L102.107 15.18C103.287 16.04 105.047 16.64 106.727 16.64C108.647 16.64 109.427 16 109.427 15.14C109.427 12.52 101.287 14.32 101.287 9.12C101.287 6.74 103.207 4.76 107.187 4.76C108.947 4.76 110.747 5.18 112.047 6L111.047 8.46C109.747 7.72 108.407 7.36 107.167 7.36C105.247 7.36 104.507 8.08 104.507 8.96C104.507 11.54 112.647 9.76 112.647 14.9C112.647 17.24 110.707 19.24 106.707 19.24ZM118.081 16.4H125.701V19H114.861V5H125.441V7.6H118.081V10.64H124.581V13.16H118.081V16.4ZM128.279 19V5H131.519V16.36H138.539V19H128.279ZM143.569 16.4H151.189V19H140.349V5H150.929V7.6H143.569V10.64H150.069V13.16H143.569V16.4ZM160.428 19.24C156.088 19.24 152.848 16.22 152.848 12C152.848 7.78 156.088 4.76 160.448 4.76C162.868 4.76 164.888 5.64 166.208 7.24L164.128 9.16C163.188 8.08 162.008 7.52 160.608 7.52C157.988 7.52 156.128 9.36 156.128 12C156.128 14.64 157.988 16.48 160.608 16.48C162.008 16.48 163.188 15.92 164.128 14.82L166.208 16.74C164.888 18.36 162.868 19.24 160.428 19.24ZM171.16 19V7.64H166.68V5H178.88V7.64H174.4V19H171.16ZM180.623 19V5H183.863V19H180.623ZM193.965 19.24C189.545 19.24 186.305 16.16 186.305 12C186.305 7.84 189.545 4.76 193.965 4.76C198.365 4.76 201.625 7.82 201.625 12C201.625 16.18 198.365 19.24 193.965 19.24ZM193.965 16.48C196.465 16.48 198.345 14.66 198.345 12C198.345 9.34 196.465 7.52 193.965 7.52C191.465 7.52 189.585 9.34 189.585 12C189.585 14.66 191.465 16.48 193.965 16.48ZM213.7 5H216.9V19H214.24L207.26 10.5V19H204.06V5H206.74L213.7 13.5V5Z" fill="#393939"/>
<path d="M42.7323 57.096C41.0523 57.096 39.4043 56.504 38.5723 55.64L39.0363 54.728C39.8363 55.512 41.2603 56.088 42.7323 56.088C44.8283 56.088 45.7403 55.208 45.7403 54.104C45.7403 51.032 38.8443 52.92 38.8443 48.776C38.8443 47.128 40.1243 45.704 42.9723 45.704C44.2363 45.704 45.5483 46.072 46.4443 46.696L46.0443 47.64C45.0843 47.016 43.9643 46.712 42.9723 46.712C40.9243 46.712 40.0123 47.624 40.0123 48.744C40.0123 51.816 46.9083 49.96 46.9083 54.04C46.9083 55.688 45.5963 57.096 42.7323 57.096ZM52.7361 57.08C50.2241 57.08 48.4001 55.304 48.4001 52.792C48.4001 50.28 50.2241 48.52 52.7361 48.52C54.1601 48.52 55.3601 49.08 56.0321 50.184L55.1841 50.76C54.6081 49.912 53.7121 49.512 52.7361 49.512C50.8961 49.512 49.5521 50.824 49.5521 52.792C49.5521 54.776 50.8961 56.072 52.7361 56.072C53.7121 56.072 54.6081 55.688 55.1841 54.84L56.0321 55.416C55.3601 56.504 54.1601 57.08 52.7361 57.08ZM59.3517 50.232C59.8797 49.112 60.9517 48.52 62.5037 48.52V49.624C62.4077 49.624 62.3117 49.608 62.2317 49.608C60.4717 49.608 59.3997 50.728 59.3997 52.712V57H58.2637V48.584H59.3517V50.232ZM71.8264 52.792C71.8264 52.888 71.8104 53.016 71.8104 53.144H64.7704C64.8984 54.904 66.2424 56.072 68.0824 56.072C69.1064 56.072 70.0184 55.704 70.6584 54.968L71.2984 55.704C70.5464 56.6 69.3784 57.08 68.0504 57.08C65.4264 57.08 63.6344 55.288 63.6344 52.792C63.6344 50.296 65.3784 48.52 67.7464 48.52C70.1144 48.52 71.8264 50.264 71.8264 52.792ZM67.7464 49.496C66.1144 49.496 64.9144 50.648 64.7704 52.296H70.7384C70.5944 50.648 69.3944 49.496 67.7464 49.496ZM81.4827 52.792C81.4827 52.888 81.4667 53.016 81.4667 53.144H74.4267C74.5547 54.904 75.8987 56.072 77.7387 56.072C78.7627 56.072 79.6747 55.704 80.3147 54.968L80.9547 55.704C80.2027 56.6 79.0347 57.08 77.7067 57.08C75.0827 57.08 73.2907 55.288 73.2907 52.792C73.2907 50.296 75.0347 48.52 77.4027 48.52C79.7707 48.52 81.4827 50.264 81.4827 52.792ZM77.4027 49.496C75.7707 49.496 74.5707 50.648 74.4267 52.296H80.3947C80.2507 50.648 79.0507 49.496 77.4027 49.496ZM88.0829 48.52C90.1309 48.52 91.5389 49.704 91.5389 52.12V57H90.4029V52.232C90.4029 50.456 89.4749 49.544 87.8749 49.544C86.0669 49.544 84.9309 50.664 84.9309 52.584V57H83.7949V48.584H84.8829V50.136C85.4909 49.112 86.6269 48.52 88.0829 48.52ZM95.1991 46.744C94.7351 46.744 94.3671 46.376 94.3671 45.928C94.3671 45.496 94.7351 45.128 95.1991 45.128C95.6631 45.128 96.0311 45.48 96.0311 45.912C96.0311 46.376 95.6791 46.744 95.1991 46.744ZM94.6231 57V48.584H95.7591V57H94.6231ZM103.208 48.52C105.256 48.52 106.664 49.704 106.664 52.12V57H105.528V52.232C105.528 50.456 104.6 49.544 103 49.544C101.192 49.544 100.056 50.664 100.056 52.584V57H98.9199V48.584H100.008V50.136C100.616 49.112 101.752 48.52 103.208 48.52ZM116.483 48.584H117.571V55.976C117.571 58.872 116.147 60.184 113.363 60.184C111.827 60.184 110.323 59.72 109.443 58.888L110.019 58.024C110.819 58.744 112.035 59.176 113.331 59.176C115.459 59.176 116.435 58.2 116.435 56.12V55.048C115.731 56.12 114.531 56.68 113.155 56.68C110.755 56.68 108.931 55 108.931 52.584C108.931 50.168 110.755 48.52 113.155 48.52C114.563 48.52 115.779 49.096 116.483 50.2V48.584ZM113.267 55.672C115.123 55.672 116.467 54.408 116.467 52.584C116.467 50.76 115.123 49.512 113.267 49.512C111.411 49.512 110.083 50.76 110.083 52.584C110.083 54.408 111.411 55.672 113.267 55.672ZM129.272 48.52C131.672 48.52 133.464 50.248 133.464 52.792C133.464 55.336 131.672 57.08 129.272 57.08C127.88 57.08 126.712 56.472 126.024 55.336V57H124.936V45.128H126.072V50.184C126.776 49.096 127.928 48.52 129.272 48.52ZM129.192 56.072C130.968 56.072 132.328 54.76 132.328 52.792C132.328 50.824 130.968 49.512 129.192 49.512C127.4 49.512 126.056 50.824 126.056 52.792C126.056 54.76 127.4 56.072 129.192 56.072ZM138.676 48.52C140.852 48.52 142.084 49.608 142.084 51.784V57H140.996V55.688C140.484 56.552 139.492 57.08 138.1 57.08C136.196 57.08 135.028 56.088 135.028 54.632C135.028 53.336 135.86 52.248 138.276 52.248H140.948V51.736C140.948 50.296 140.132 49.512 138.564 49.512C137.476 49.512 136.452 49.896 135.764 50.504L135.252 49.656C136.1 48.936 137.348 48.52 138.676 48.52ZM138.276 56.184C139.556 56.184 140.5 55.576 140.948 54.472V53.096H138.308C136.676 53.096 136.148 53.736 136.148 54.6C136.148 55.576 136.932 56.184 138.276 56.184ZM147.426 57.08C146.034 57.08 144.69 56.632 144.002 56.04L144.514 55.144C145.186 55.672 146.322 56.088 147.506 56.088C149.106 56.088 149.762 55.544 149.762 54.712C149.762 52.52 144.306 54.248 144.306 50.92C144.306 49.544 145.49 48.52 147.634 48.52C148.722 48.52 149.906 48.824 150.61 49.304L150.114 50.216C149.378 49.704 148.498 49.496 147.634 49.496C146.114 49.496 145.442 50.088 145.442 50.888C145.442 53.16 150.898 51.448 150.898 54.68C150.898 56.136 149.618 57.08 147.426 57.08ZM160.342 52.792C160.342 52.888 160.326 53.016 160.326 53.144H153.286C153.414 54.904 154.758 56.072 156.598 56.072C157.622 56.072 158.534 55.704 159.174 54.968L159.814 55.704C159.062 56.6 157.894 57.08 156.566 57.08C153.942 57.08 152.15 55.288 152.15 52.792C152.15 50.296 153.894 48.52 156.262 48.52C158.63 48.52 160.342 50.264 160.342 52.792ZM156.262 49.496C154.63 49.496 153.43 50.648 153.286 52.296H159.254C159.11 50.648 157.91 49.496 156.262 49.496ZM169.198 45.128H170.334V57H169.246V55.336C168.558 56.472 167.39 57.08 165.998 57.08C163.598 57.08 161.806 55.336 161.806 52.792C161.806 50.248 163.598 48.52 165.998 48.52C167.342 48.52 168.494 49.096 169.198 50.184V45.128ZM166.094 56.072C167.87 56.072 169.214 54.76 169.214 52.792C169.214 50.824 167.87 49.512 166.094 49.512C164.302 49.512 162.958 50.824 162.958 52.792C162.958 54.76 164.302 56.072 166.094 56.072ZM181.126 57.08C178.662 57.08 176.838 55.288 176.838 52.792C176.838 50.296 178.662 48.52 181.126 48.52C183.59 48.52 185.398 50.296 185.398 52.792C185.398 55.288 183.59 57.08 181.126 57.08ZM181.126 56.072C182.918 56.072 184.246 54.76 184.246 52.792C184.246 50.824 182.918 49.512 181.126 49.512C179.334 49.512 177.99 50.824 177.99 52.792C177.99 54.76 179.334 56.072 181.126 56.072ZM192.005 48.52C194.053 48.52 195.461 49.704 195.461 52.12V57H194.325V52.232C194.325 50.456 193.397 49.544 191.797 49.544C189.989 49.544 188.853 50.664 188.853 52.584V57H187.717V48.584H188.805V50.136C189.413 49.112 190.549 48.52 192.005 48.52ZM204.988 57.08C203.596 57.08 202.252 56.632 201.564 56.04L202.076 55.144C202.748 55.672 203.884 56.088 205.068 56.088C206.668 56.088 207.324 55.544 207.324 54.712C207.324 52.52 201.868 54.248 201.868 50.92C201.868 49.544 203.052 48.52 205.196 48.52C206.284 48.52 207.468 48.824 208.172 49.304L207.676 50.216C206.94 49.704 206.06 49.496 205.196 49.496C203.676 49.496 203.004 50.088 203.004 50.888C203.004 53.16 208.46 51.448 208.46 54.68C208.46 56.136 207.18 57.08 204.988 57.08ZM214.593 55.672L214.993 56.488C214.545 56.888 213.873 57.08 213.217 57.08C211.633 57.08 210.753 56.184 210.753 54.632V49.544H209.249V48.584H210.753V46.744H211.889V48.584H214.449V49.544H211.889V54.568C211.889 55.56 212.401 56.104 213.345 56.104C213.809 56.104 214.273 55.96 214.593 55.672ZM218.149 50.232C218.677 49.112 219.749 48.52 221.301 48.52V49.624C221.205 49.624 221.109 49.608 221.029 49.608C219.269 49.608 218.197 50.728 218.197 52.712V57H217.061V48.584H218.149V50.232ZM229.93 48.584H231.066V57H229.978V55.464C229.386 56.488 228.298 57.08 226.954 57.08C224.81 57.08 223.402 55.88 223.402 53.464V48.584H224.538V53.352C224.538 55.144 225.466 56.056 227.066 56.056C228.826 56.056 229.93 54.92 229.93 53V48.584ZM237.736 57.08C235.224 57.08 233.4 55.304 233.4 52.792C233.4 50.28 235.224 48.52 237.736 48.52C239.16 48.52 240.36 49.08 241.032 50.184L240.184 50.76C239.608 49.912 238.712 49.512 237.736 49.512C235.896 49.512 234.552 50.824 234.552 52.792C234.552 54.776 235.896 56.072 237.736 56.072C238.712 56.072 239.608 55.688 240.184 54.84L241.032 55.416C240.36 56.504 239.16 57.08 237.736 57.08ZM247.389 55.672L247.789 56.488C247.341 56.888 246.669 57.08 246.013 57.08C244.429 57.08 243.549 56.184 243.549 54.632V49.544H242.045V48.584H243.549V46.744H244.685V48.584H247.245V49.544H244.685V54.568C244.685 55.56 245.197 56.104 246.141 56.104C246.605 56.104 247.069 55.96 247.389 55.672ZM256.305 48.584H257.441V57H256.353V55.464C255.761 56.488 254.673 57.08 253.329 57.08C251.185 57.08 249.777 55.88 249.777 53.464V48.584H250.913V53.352C250.913 55.144 251.841 56.056 253.441 56.056C255.201 56.056 256.305 54.92 256.305 53V48.584ZM261.711 50.232C262.239 49.112 263.311 48.52 264.863 48.52V49.624C264.767 49.624 264.671 49.608 264.591 49.608C262.831 49.608 261.759 50.728 261.759 52.712V57H260.623V48.584H261.711V50.232ZM274.186 52.792C274.186 52.888 274.17 53.016 274.17 53.144H267.13C267.258 54.904 268.602 56.072 270.442 56.072C271.466 56.072 272.378 55.704 273.018 54.968L273.658 55.704C272.906 56.6 271.738 57.08 270.41 57.08C267.786 57.08 265.994 55.288 265.994 52.792C265.994 50.296 267.738 48.52 270.106 48.52C272.474 48.52 274.186 50.264 274.186 52.792ZM270.106 49.496C268.474 49.496 267.274 50.648 267.13 52.296H273.098C272.954 50.648 271.754 49.496 270.106 49.496ZM276.03 53.16V52.168H280.222V53.16H276.03ZM7.10563 81.08C5.71363 81.08 4.36963 80.632 3.68163 80.04L4.19363 79.144C4.86563 79.672 6.00163 80.088 7.18563 80.088C8.78563 80.088 9.44163 79.544 9.44163 78.712C9.44163 76.52 3.98563 78.248 3.98563 74.92C3.98563 73.544 5.16963 72.52 7.31363 72.52C8.40163 72.52 9.58563 72.824 10.2896 73.304L9.79363 74.216C9.05763 73.704 8.17763 73.496 7.31363 73.496C5.79363 73.496 5.12163 74.088 5.12163 74.888C5.12163 77.16 10.5776 75.448 10.5776 78.68C10.5776 80.136 9.29763 81.08 7.10563 81.08ZM20.0218 76.792C20.0218 76.888 20.0058 77.016 20.0058 77.144H12.9658C13.0938 78.904 14.4378 80.072 16.2778 80.072C17.3018 80.072 18.2138 79.704 18.8538 78.968L19.4938 79.704C18.7418 80.6 17.5738 81.08 16.2458 81.08C13.6218 81.08 11.8298 79.288 11.8298 76.792C11.8298 74.296 13.5738 72.52 15.9418 72.52C18.3098 72.52 20.0218 74.264 20.0218 76.792ZM15.9418 73.496C14.3098 73.496 13.1098 74.648 12.9658 76.296H18.9338C18.7898 74.648 17.5898 73.496 15.9418 73.496ZM22.334 81V69.128H23.47V81H22.334ZM33.9749 76.792C33.9749 76.888 33.9589 77.016 33.9589 77.144H26.9189C27.0469 78.904 28.3909 80.072 30.2309 80.072C31.2549 80.072 32.1669 79.704 32.8069 78.968L33.4469 79.704C32.6949 80.6 31.5269 81.08 30.1989 81.08C27.5749 81.08 25.7829 79.288 25.7829 76.792C25.7829 74.296 27.5269 72.52 29.8949 72.52C32.2629 72.52 33.9749 74.264 33.9749 76.792ZM29.8949 73.496C28.2629 73.496 27.0629 74.648 26.9189 76.296H32.8869C32.7429 74.648 31.5429 73.496 29.8949 73.496ZM39.7751 81.08C37.2631 81.08 35.4391 79.304 35.4391 76.792C35.4391 74.28 37.2631 72.52 39.7751 72.52C41.1991 72.52 42.3991 73.08 43.0711 74.184L42.2231 74.76C41.6471 73.912 40.7511 73.512 39.7751 73.512C37.9351 73.512 36.5911 74.824 36.5911 76.792C36.5911 78.776 37.9351 80.072 39.7751 80.072C40.7511 80.072 41.6471 79.688 42.2231 78.84L43.0711 79.416C42.3991 80.504 41.1991 81.08 39.7751 81.08ZM49.4285 79.672L49.8285 80.488C49.3805 80.888 48.7085 81.08 48.0525 81.08C46.4685 81.08 45.5885 80.184 45.5885 78.632V73.544H44.0845V72.584H45.5885V70.744H46.7245V72.584H49.2845V73.544H46.7245V78.568C46.7245 79.56 47.2365 80.104 48.1805 80.104C48.6445 80.104 49.1085 79.96 49.4285 79.672ZM52.4725 70.744C52.0085 70.744 51.6405 70.376 51.6405 69.928C51.6405 69.496 52.0085 69.128 52.4725 69.128C52.9365 69.128 53.3045 69.48 53.3045 69.912C53.3045 70.376 52.9525 70.744 52.4725 70.744ZM51.8965 81V72.584H53.0325V81H51.8965ZM59.6334 81.08C57.1694 81.08 55.3454 79.288 55.3454 76.792C55.3454 74.296 57.1694 72.52 59.6334 72.52C62.0974 72.52 63.9054 74.296 63.9054 76.792C63.9054 79.288 62.0974 81.08 59.6334 81.08ZM59.6334 80.072C61.4254 80.072 62.7534 78.76 62.7534 76.792C62.7534 74.824 61.4254 73.512 59.6334 73.512C57.8414 73.512 56.4974 74.824 56.4974 76.792C56.4974 78.76 57.8414 80.072 59.6334 80.072ZM70.5126 72.52C72.5606 72.52 73.9686 73.704 73.9686 76.12V81H72.8326V76.232C72.8326 74.456 71.9046 73.544 70.3046 73.544C68.4966 73.544 67.3606 74.664 67.3606 76.584V81H66.2246V72.584H67.3126V74.136C67.9206 73.112 69.0566 72.52 70.5126 72.52ZM76.4288 77.16V76.168H80.6208V77.16H76.4288ZM84.2501 74.232C84.7781 73.112 85.8501 72.52 87.4021 72.52V73.624C87.3061 73.624 87.2101 73.608 87.1301 73.608C85.3701 73.608 84.2981 74.728 84.2981 76.712V81H83.1621V72.584H84.2501V74.232ZM96.032 72.584H97.168V81H96.08V79.464C95.488 80.488 94.4 81.08 93.056 81.08C90.912 81.08 89.504 79.88 89.504 77.464V72.584H90.64V77.352C90.64 79.144 91.568 80.056 93.168 80.056C94.928 80.056 96.032 78.92 96.032 77V72.584ZM100.35 81V69.128H101.486V81H100.35ZM111.991 76.792C111.991 76.888 111.975 77.016 111.975 77.144H104.935C105.062 78.904 106.407 80.072 108.247 80.072C109.271 80.072 110.183 79.704 110.823 78.968L111.463 79.704C110.711 80.6 109.543 81.08 108.215 81.08C105.591 81.08 103.799 79.288 103.799 76.792C103.799 74.296 105.543 72.52 107.911 72.52C110.279 72.52 111.991 74.264 111.991 76.792ZM107.911 73.496C106.279 73.496 105.079 74.648 104.935 76.296H110.903C110.759 74.648 109.559 73.496 107.911 73.496ZM121.434 72.52C123.61 72.52 124.842 73.608 124.842 75.784V81H123.754V79.688C123.242 80.552 122.25 81.08 120.858 81.08C118.954 81.08 117.786 80.088 117.786 78.632C117.786 77.336 118.618 76.248 121.034 76.248H123.706V75.736C123.706 74.296 122.89 73.512 121.322 73.512C120.234 73.512 119.21 73.896 118.522 74.504L118.01 73.656C118.858 72.936 120.106 72.52 121.434 72.52ZM121.034 80.184C122.314 80.184 123.258 79.576 123.706 78.472V77.096H121.066C119.434 77.096 118.906 77.736 118.906 78.6C118.906 79.576 119.69 80.184 121.034 80.184ZM132.216 72.52C134.264 72.52 135.672 73.704 135.672 76.12V81H134.536V76.232C134.536 74.456 133.608 73.544 132.008 73.544C130.2 73.544 129.064 74.664 129.064 76.584V81H127.928V72.584H129.016V74.136C129.624 73.112 130.76 72.52 132.216 72.52ZM145.331 69.128H146.467V81H145.379V79.336C144.691 80.472 143.523 81.08 142.131 81.08C139.731 81.08 137.939 79.336 137.939 76.792C137.939 74.248 139.731 72.52 142.131 72.52C143.475 72.52 144.627 73.096 145.331 74.184V69.128ZM142.227 80.072C144.003 80.072 145.347 78.76 145.347 76.792C145.347 74.824 144.003 73.512 142.227 73.512C140.435 73.512 139.091 74.824 139.091 76.792C139.091 78.76 140.435 80.072 142.227 80.072ZM157.85 79.672L158.25 80.488C157.802 80.888 157.13 81.08 156.474 81.08C154.89 81.08 154.01 80.184 154.01 78.632V73.544H152.506V72.584H154.01V70.744H155.146V72.584H157.706V73.544H155.146V78.568C155.146 79.56 155.658 80.104 156.602 80.104C157.066 80.104 157.53 79.96 157.85 79.672ZM163.262 72.52C165.438 72.52 166.67 73.608 166.67 75.784V81H165.582V79.688C165.07 80.552 164.078 81.08 162.686 81.08C160.782 81.08 159.614 80.088 159.614 78.632C159.614 77.336 160.446 76.248 162.862 76.248H165.534V75.736C165.534 74.296 164.718 73.512 163.15 73.512C162.062 73.512 161.038 73.896 160.35 74.504L159.838 73.656C160.686 72.936 161.934 72.52 163.262 72.52ZM162.862 80.184C164.142 80.184 165.086 79.576 165.534 78.472V77.096H162.894C161.262 77.096 160.734 77.736 160.734 78.6C160.734 79.576 161.518 80.184 162.862 80.184ZM170.844 74.232C171.372 73.112 172.444 72.52 173.996 72.52V73.624C173.9 73.624 173.804 73.608 173.724 73.608C171.964 73.608 170.892 74.728 170.892 76.712V81H169.756V72.584H170.844V74.232ZM182.679 72.584H183.767V79.976C183.767 82.872 182.343 84.184 179.559 84.184C178.023 84.184 176.519 83.72 175.639 82.888L176.215 82.024C177.015 82.744 178.231 83.176 179.527 83.176C181.655 83.176 182.631 82.2 182.631 80.12V79.048C181.927 80.12 180.727 80.68 179.351 80.68C176.951 80.68 175.127 79 175.127 76.584C175.127 74.168 176.951 72.52 179.351 72.52C180.759 72.52 181.975 73.096 182.679 74.2V72.584ZM179.463 79.672C181.319 79.672 182.663 78.408 182.663 76.584C182.663 74.76 181.319 73.512 179.463 73.512C177.607 73.512 176.279 74.76 176.279 76.584C176.279 78.408 177.607 79.672 179.463 79.672ZM194.287 76.792C194.287 76.888 194.271 77.016 194.271 77.144H187.231C187.359 78.904 188.703 80.072 190.543 80.072C191.567 80.072 192.479 79.704 193.119 78.968L193.759 79.704C193.007 80.6 191.839 81.08 190.511 81.08C187.887 81.08 186.095 79.288 186.095 76.792C186.095 74.296 187.839 72.52 190.207 72.52C192.575 72.52 194.287 74.264 194.287 76.792ZM190.207 73.496C188.575 73.496 187.375 74.648 187.231 76.296H193.199C193.055 74.648 191.855 73.496 190.207 73.496ZM200.632 79.672L201.032 80.488C200.584 80.888 199.912 81.08 199.256 81.08C197.672 81.08 196.792 80.184 196.792 78.632V73.544H195.288V72.584H196.792V70.744H197.928V72.584H200.488V73.544H197.928V78.568C197.928 79.56 198.44 80.104 199.384 80.104C199.848 80.104 200.312 79.96 200.632 79.672ZM210.147 76.792C210.147 76.888 210.131 77.016 210.131 77.144H203.091C203.219 78.904 204.563 80.072 206.403 80.072C207.427 80.072 208.339 79.704 208.979 78.968L209.619 79.704C208.867 80.6 207.699 81.08 206.371 81.08C203.747 81.08 201.955 79.288 201.955 76.792C201.955 74.296 203.699 72.52 206.067 72.52C208.435 72.52 210.147 74.264 210.147 76.792ZM206.067 73.496C204.435 73.496 203.235 74.648 203.091 76.296H209.059C208.915 74.648 207.715 73.496 206.067 73.496ZM219.003 69.128H220.139V81H219.051V79.336C218.363 80.472 217.195 81.08 215.803 81.08C213.403 81.08 211.611 79.336 211.611 76.792C211.611 74.248 213.403 72.52 215.803 72.52C217.147 72.52 218.299 73.096 219.003 74.184V69.128ZM215.899 80.072C217.675 80.072 219.019 78.76 219.019 76.792C219.019 74.824 217.675 73.512 215.899 73.512C214.107 73.512 212.763 74.824 212.763 76.792C212.763 78.76 214.107 80.072 215.899 80.072ZM230.434 72.52C232.61 72.52 233.842 73.608 233.842 75.784V81H232.754V79.688C232.242 80.552 231.25 81.08 229.858 81.08C227.954 81.08 226.786 80.088 226.786 78.632C226.786 77.336 227.618 76.248 230.034 76.248H232.706V75.736C232.706 74.296 231.89 73.512 230.322 73.512C229.234 73.512 228.21 73.896 227.522 74.504L227.01 73.656C227.858 72.936 229.106 72.52 230.434 72.52ZM230.034 80.184C231.314 80.184 232.258 79.576 232.706 78.472V77.096H230.066C228.434 77.096 227.906 77.736 227.906 78.6C227.906 79.576 228.69 80.184 230.034 80.184ZM241.264 72.52C243.664 72.52 245.456 74.248 245.456 76.792C245.456 79.352 243.664 81.08 241.264 81.08C239.92 81.08 238.768 80.504 238.064 79.416V84.104H236.928V72.584H238.016V74.248C238.704 73.128 239.872 72.52 241.264 72.52ZM241.184 80.072C242.96 80.072 244.32 78.76 244.32 76.792C244.32 74.84 242.96 73.512 241.184 73.512C239.392 73.512 238.048 74.84 238.048 76.792C238.048 78.76 239.392 80.072 241.184 80.072ZM252.108 72.52C254.508 72.52 256.3 74.248 256.3 76.792C256.3 79.352 254.508 81.08 252.108 81.08C250.764 81.08 249.612 80.504 248.908 79.416V84.104H247.772V72.584H248.86V74.248C249.548 73.128 250.716 72.52 252.108 72.52ZM252.028 80.072C253.804 80.072 255.164 78.76 255.164 76.792C255.164 74.84 253.804 73.512 252.028 73.512C250.236 73.512 248.892 74.84 248.892 76.792C248.892 78.76 250.236 80.072 252.028 80.072ZM258.615 81V69.128H259.751V81H258.615ZM263.488 70.744C263.024 70.744 262.656 70.376 262.656 69.928C262.656 69.496 263.024 69.128 263.488 69.128C263.952 69.128 264.32 69.48 264.32 69.912C264.32 70.376 263.968 70.744 263.488 70.744ZM262.912 81V72.584H264.048V81H262.912ZM270.697 81.08C268.185 81.08 266.361 79.304 266.361 76.792C266.361 74.28 268.185 72.52 270.697 72.52C272.121 72.52 273.321 73.08 273.993 74.184L273.145 74.76C272.569 73.912 271.673 73.512 270.697 73.512C268.857 73.512 267.513 74.824 267.513 76.792C267.513 78.776 268.857 80.072 270.697 80.072C271.673 80.072 272.569 79.688 273.145 78.84L273.993 79.416C273.321 80.504 272.121 81.08 270.697 81.08ZM279.169 72.52C281.345 72.52 282.577 73.608 282.577 75.784V81H281.489V79.688C280.977 80.552 279.985 81.08 278.593 81.08C276.689 81.08 275.521 80.088 275.521 78.632C275.521 77.336 276.353 76.248 278.769 76.248H281.441V75.736C281.441 74.296 280.625 73.512 279.057 73.512C277.969 73.512 276.945 73.896 276.257 74.504L275.745 73.656C276.593 72.936 277.841 72.52 279.169 72.52ZM278.769 80.184C280.049 80.184 280.993 79.576 281.441 78.472V77.096H278.801C277.169 77.096 276.641 77.736 276.641 78.6C276.641 79.576 277.425 80.184 278.769 80.184ZM289.694 79.672L290.094 80.488C289.646 80.888 288.974 81.08 288.318 81.08C286.734 81.08 285.854 80.184 285.854 78.632V73.544H284.35V72.584H285.854V70.744H286.99V72.584H289.55V73.544H286.99V78.568C286.99 79.56 287.502 80.104 288.446 80.104C288.91 80.104 289.374 79.96 289.694 79.672ZM292.738 70.744C292.274 70.744 291.906 70.376 291.906 69.928C291.906 69.496 292.274 69.128 292.738 69.128C293.202 69.128 293.57 69.48 293.57 69.912C293.57 70.376 293.218 70.744 292.738 70.744ZM292.162 81V72.584H293.298V81H292.162ZM299.899 81.08C297.435 81.08 295.611 79.288 295.611 76.792C295.611 74.296 297.435 72.52 299.899 72.52C302.363 72.52 304.171 74.296 304.171 76.792C304.171 79.288 302.363 81.08 299.899 81.08ZM299.899 80.072C301.691 80.072 303.019 78.76 303.019 76.792C303.019 74.824 301.691 73.512 299.899 73.512C298.107 73.512 296.763 74.824 296.763 76.792C296.763 78.76 298.107 80.072 299.899 80.072ZM310.778 72.52C312.826 72.52 314.234 73.704 314.234 76.12V81H313.098V76.232C313.098 74.456 312.17 73.544 310.57 73.544C308.762 73.544 307.626 74.664 307.626 76.584V81H306.49V72.584H307.578V74.136C308.186 73.112 309.322 72.52 310.778 72.52Z" fill="black"/>
<path d="M110 29H210" stroke="#5AF3BB" stroke-width="2" stroke-linecap="round"/>
<path d="M107.762 146.24C105.542 146.24 103.302 145.58 102.062 144.62L103.162 142.18C104.342 143.04 106.102 143.64 107.782 143.64C109.702 143.64 110.482 143 110.482 142.14C110.482 139.52 102.342 141.32 102.342 136.12C102.342 133.74 104.262 131.76 108.242 131.76C110.002 131.76 111.802 132.18 113.102 133L112.102 135.46C110.802 134.72 109.462 134.36 108.222 134.36C106.302 134.36 105.562 135.08 105.562 135.96C105.562 138.54 113.702 136.76 113.702 141.9C113.702 144.24 111.762 146.24 107.762 146.24ZM127.783 132L122.343 141.04V146H119.103V141L113.683 132H117.123L120.863 138.22L124.603 132H127.783ZM138.642 132H141.842V146H139.182L132.202 137.5V146H129.002V132H131.682L138.642 140.5V132ZM148.054 146V134.64H143.574V132H155.774V134.64H151.294V146H148.054ZM167.118 132H170.358V146H167.118V140.26H160.758V146H157.518V132H160.758V137.52H167.118V132ZM176.89 143.4H184.51V146H173.67V132H184.25V134.6H176.89V137.64H183.39V140.16H176.89V143.4ZM191.688 146.24C189.468 146.24 187.228 145.58 185.988 144.62L187.088 142.18C188.268 143.04 190.028 143.64 191.708 143.64C193.628 143.64 194.408 143 194.408 142.14C194.408 139.52 186.268 141.32 186.268 136.12C186.268 133.74 188.188 131.76 192.168 131.76C193.928 131.76 195.728 132.18 197.028 133L196.028 135.46C194.728 134.72 193.388 134.36 192.148 134.36C190.228 134.36 189.488 135.08 189.488 135.96C189.488 138.54 197.628 136.76 197.628 141.9C197.628 144.24 195.688 146.24 191.688 146.24ZM199.842 146V132H203.082V146H199.842ZM211.004 146.24C208.784 146.24 206.544 145.58 205.304 144.62L206.404 142.18C207.584 143.04 209.344 143.64 211.024 143.64C212.944 143.64 213.724 143 213.724 142.14C213.724 139.52 205.584 141.32 205.584 136.12C205.584 133.74 207.504 131.76 211.484 131.76C213.244 131.76 215.044 132.18 216.344 133L215.344 135.46C214.044 134.72 212.704 134.36 211.464 134.36C209.544 134.36 208.804 135.08 208.804 135.96C208.804 138.54 216.944 136.76 216.944 141.9C216.944 144.24 215.004 146.24 211.004 146.24Z" fill="#393939"/>
<path d="M10.1834 184V172.8H14.7434C18.3274 172.8 20.7434 175.104 20.7434 178.4C20.7434 181.696 18.3274 184 14.7434 184H10.1834ZM11.3674 182.976H14.6794C17.6554 182.976 19.5754 181.088 19.5754 178.4C19.5754 175.712 17.6554 173.824 14.6794 173.824H11.3674V182.976ZM30.5061 179.792C30.5061 179.888 30.4901 180.016 30.4901 180.144H23.4501C23.5781 181.904 24.9221 183.072 26.7621 183.072C27.7861 183.072 28.6981 182.704 29.3381 181.968L29.9781 182.704C29.2261 183.6 28.0581 184.08 26.7301 184.08C24.1061 184.08 22.3141 182.288 22.3141 179.792C22.3141 177.296 24.0581 175.52 26.4261 175.52C28.7941 175.52 30.5061 177.264 30.5061 179.792ZM26.4261 176.496C24.7941 176.496 23.5941 177.648 23.4501 179.296H29.4181C29.2741 177.648 28.0741 176.496 26.4261 176.496ZM38.6141 175.584H39.7341L35.9901 184H34.8221L31.0941 175.584H32.2781L35.4301 182.752L38.6141 175.584ZM48.4436 179.792C48.4436 179.888 48.4276 180.016 48.4276 180.144H41.3876C41.5156 181.904 42.8596 183.072 44.6996 183.072C45.7236 183.072 46.6356 182.704 47.2756 181.968L47.9156 182.704C47.1636 183.6 45.9956 184.08 44.6676 184.08C42.0436 184.08 40.2516 182.288 40.2516 179.792C40.2516 177.296 41.9956 175.52 44.3636 175.52C46.7316 175.52 48.4436 177.264 48.4436 179.792ZM44.3636 176.496C42.7316 176.496 41.5316 177.648 41.3876 179.296H47.3556C47.2116 177.648 46.0116 176.496 44.3636 176.496ZM50.7559 184V172.128H51.8919V184H50.7559ZM58.4928 184.08C56.0288 184.08 54.2048 182.288 54.2048 179.792C54.2048 177.296 56.0288 175.52 58.4928 175.52C60.9568 175.52 62.7648 177.296 62.7648 179.792C62.7648 182.288 60.9568 184.08 58.4928 184.08ZM58.4928 183.072C60.2848 183.072 61.6128 181.76 61.6128 179.792C61.6128 177.824 60.2848 176.512 58.4928 176.512C56.7008 176.512 55.3568 177.824 55.3568 179.792C55.3568 181.76 56.7008 183.072 58.4928 183.072ZM69.42 175.52C71.82 175.52 73.612 177.248 73.612 179.792C73.612 182.352 71.82 184.08 69.42 184.08C68.076 184.08 66.924 183.504 66.22 182.416V187.104H65.084V175.584H66.172V177.248C66.86 176.128 68.028 175.52 69.42 175.52ZM69.34 183.072C71.116 183.072 72.476 181.76 72.476 179.792C72.476 177.84 71.116 176.512 69.34 176.512C67.548 176.512 66.204 177.84 66.204 179.792C66.204 181.76 67.548 183.072 69.34 183.072ZM76.5038 173.744C76.0398 173.744 75.6718 173.376 75.6718 172.928C75.6718 172.496 76.0398 172.128 76.5038 172.128C76.9678 172.128 77.3358 172.48 77.3358 172.912C77.3358 173.376 76.9838 173.744 76.5038 173.744ZM75.9278 184V175.584H77.0638V184H75.9278ZM84.5126 175.52C86.5606 175.52 87.9686 176.704 87.9686 179.12V184H86.8326V179.232C86.8326 177.456 85.9046 176.544 84.3046 176.544C82.4966 176.544 81.3606 177.664 81.3606 179.584V184H80.2246V175.584H81.3126V177.136C81.9206 176.112 83.0566 175.52 84.5126 175.52ZM97.788 175.584H98.876V182.976C98.876 185.872 97.452 187.184 94.668 187.184C93.132 187.184 91.628 186.72 90.748 185.888L91.324 185.024C92.124 185.744 93.34 186.176 94.636 186.176C96.764 186.176 97.74 185.2 97.74 183.12V182.048C97.036 183.12 95.836 183.68 94.46 183.68C92.06 183.68 90.236 182 90.236 179.584C90.236 177.168 92.06 175.52 94.46 175.52C95.868 175.52 97.084 176.096 97.788 177.2V175.584ZM94.572 182.672C96.428 182.672 97.772 181.408 97.772 179.584C97.772 177.76 96.428 176.512 94.572 176.512C92.716 176.512 91.388 177.76 91.388 179.584C91.388 181.408 92.716 182.672 94.572 182.672ZM109.184 175.52C111.36 175.52 112.592 176.608 112.592 178.784V184H111.504V182.688C110.992 183.552 110 184.08 108.608 184.08C106.704 184.08 105.536 183.088 105.536 181.632C105.536 180.336 106.368 179.248 108.784 179.248H111.456V178.736C111.456 177.296 110.64 176.512 109.072 176.512C107.984 176.512 106.96 176.896 106.272 177.504L105.76 176.656C106.608 175.936 107.856 175.52 109.184 175.52ZM108.784 183.184C110.064 183.184 111.008 182.576 111.456 181.472V180.096H108.816C107.184 180.096 106.656 180.736 106.656 181.6C106.656 182.576 107.44 183.184 108.784 183.184ZM119.966 175.52C122.014 175.52 123.422 176.704 123.422 179.12V184H122.286V179.232C122.286 177.456 121.358 176.544 119.758 176.544C117.95 176.544 116.814 177.664 116.814 179.584V184H115.678V175.584H116.766V177.136C117.374 176.112 118.51 175.52 119.966 175.52ZM138.037 179.792C138.037 179.888 138.021 180.016 138.021 180.144H130.981C131.109 181.904 132.453 183.072 134.293 183.072C135.317 183.072 136.229 182.704 136.869 181.968L137.509 182.704C136.757 183.6 135.589 184.08 134.261 184.08C131.637 184.08 129.845 182.288 129.845 179.792C129.845 177.296 131.589 175.52 133.957 175.52C136.325 175.52 138.037 177.264 138.037 179.792ZM133.957 176.496C132.325 176.496 131.125 177.648 130.981 179.296H136.949C136.805 177.648 135.605 176.496 133.957 176.496ZM143.134 173.008C142.158 173.008 141.646 173.552 141.646 174.592V175.584H144.238V176.544H141.678V184H140.542V176.544H139.038V175.584H140.542V174.544C140.542 173.04 141.438 172.048 143.086 172.048C143.71 172.048 144.35 172.224 144.766 172.576L144.382 173.424C144.062 173.152 143.614 173.008 143.134 173.008ZM148.556 173.008C147.58 173.008 147.068 173.552 147.068 174.592V175.584H149.66V176.544H147.1V184H145.964V176.544H144.46V175.584H145.964V174.544C145.964 173.04 146.86 172.048 148.508 172.048C149.132 172.048 149.772 172.224 150.188 172.576L149.804 173.424C149.484 173.152 149.036 173.008 148.556 173.008ZM158.397 179.792C158.397 179.888 158.381 180.016 158.381 180.144H151.341C151.469 181.904 152.813 183.072 154.653 183.072C155.677 183.072 156.589 182.704 157.229 181.968L157.869 182.704C157.117 183.6 155.949 184.08 154.621 184.08C151.997 184.08 150.205 182.288 150.205 179.792C150.205 177.296 151.949 175.52 154.317 175.52C156.685 175.52 158.397 177.264 158.397 179.792ZM154.317 176.496C152.685 176.496 151.485 177.648 151.341 179.296H157.309C157.165 177.648 155.965 176.496 154.317 176.496ZM164.197 184.08C161.685 184.08 159.861 182.304 159.861 179.792C159.861 177.28 161.685 175.52 164.197 175.52C165.621 175.52 166.821 176.08 167.493 177.184L166.645 177.76C166.069 176.912 165.173 176.512 164.197 176.512C162.357 176.512 161.013 177.824 161.013 179.792C161.013 181.776 162.357 183.072 164.197 183.072C165.173 183.072 166.069 182.688 166.645 181.84L167.493 182.416C166.821 183.504 165.621 184.08 164.197 184.08ZM173.85 182.672L174.25 183.488C173.802 183.888 173.13 184.08 172.474 184.08C170.89 184.08 170.01 183.184 170.01 181.632V176.544H168.506V175.584H170.01V173.744H171.146V175.584H173.706V176.544H171.146V181.568C171.146 182.56 171.658 183.104 172.602 183.104C173.066 183.104 173.53 182.96 173.85 182.672ZM176.894 173.744C176.43 173.744 176.062 173.376 176.062 172.928C176.062 172.496 176.43 172.128 176.894 172.128C177.358 172.128 177.726 172.48 177.726 172.912C177.726 173.376 177.374 173.744 176.894 173.744ZM176.318 184V175.584H177.454V184H176.318ZM186.567 175.584H187.687L183.943 184H182.775L179.047 175.584H180.231L183.383 182.752L186.567 175.584ZM196.397 179.792C196.397 179.888 196.381 180.016 196.381 180.144H189.341C189.469 181.904 190.813 183.072 192.653 183.072C193.677 183.072 194.589 182.704 195.229 181.968L195.869 182.704C195.117 183.6 193.949 184.08 192.621 184.08C189.997 184.08 188.205 182.288 188.205 179.792C188.205 177.296 189.949 175.52 192.317 175.52C194.685 175.52 196.397 177.264 196.397 179.792ZM192.317 176.496C190.685 176.496 189.485 177.648 189.341 179.296H195.309C195.165 177.648 193.965 176.496 192.317 176.496ZM205.153 184.08C203.761 184.08 202.417 183.632 201.729 183.04L202.241 182.144C202.913 182.672 204.049 183.088 205.233 183.088C206.833 183.088 207.489 182.544 207.489 181.712C207.489 179.52 202.033 181.248 202.033 177.92C202.033 176.544 203.217 175.52 205.361 175.52C206.449 175.52 207.633 175.824 208.337 176.304L207.841 177.216C207.105 176.704 206.225 176.496 205.361 176.496C203.841 176.496 203.169 177.088 203.169 177.888C203.169 180.16 208.625 178.448 208.625 181.68C208.625 183.136 207.345 184.08 205.153 184.08ZM216.52 175.584H217.64L213.432 185.008C212.728 186.656 211.832 187.184 210.632 187.184C209.848 187.184 209.096 186.928 208.584 186.416L209.112 185.568C209.528 185.984 210.04 186.208 210.648 186.208C211.4 186.208 211.912 185.856 212.392 184.8L212.76 183.984L209 175.584H210.184L213.352 182.736L216.52 175.584ZM223.528 175.52C225.576 175.52 226.984 176.704 226.984 179.12V184H225.848V179.232C225.848 177.456 224.92 176.544 223.32 176.544C221.512 176.544 220.376 177.664 220.376 179.584V184H219.24V175.584H220.328V177.136C220.936 176.112 222.072 175.52 223.528 175.52ZM234.1 182.672L234.5 183.488C234.052 183.888 233.38 184.08 232.724 184.08C231.14 184.08 230.26 183.184 230.26 181.632V176.544H228.756V175.584H230.26V173.744H231.396V175.584H233.956V176.544H231.396V181.568C231.396 182.56 231.908 183.104 232.852 183.104C233.316 183.104 233.78 182.96 234.1 182.672ZM240.856 175.52C242.904 175.52 244.312 176.704 244.312 179.12V184H243.176V179.232C243.176 177.456 242.248 176.544 240.648 176.544C238.84 176.544 237.704 177.664 237.704 179.584V184H236.568V172.128H237.704V177.056C238.328 176.08 239.432 175.52 240.856 175.52ZM254.772 179.792C254.772 179.888 254.756 180.016 254.756 180.144H247.716C247.844 181.904 249.188 183.072 251.028 183.072C252.052 183.072 252.964 182.704 253.604 181.968L254.244 182.704C253.492 183.6 252.324 184.08 250.996 184.08C248.372 184.08 246.58 182.288 246.58 179.792C246.58 177.296 248.324 175.52 250.692 175.52C253.06 175.52 254.772 177.264 254.772 179.792ZM250.692 176.496C249.06 176.496 247.86 177.648 247.716 179.296H253.684C253.54 177.648 252.34 176.496 250.692 176.496ZM261.116 182.672L261.516 183.488C261.068 183.888 260.396 184.08 259.74 184.08C258.156 184.08 257.276 183.184 257.276 181.632V176.544H255.772V175.584H257.276V173.744H258.412V175.584H260.972V176.544H258.412V181.568C258.412 182.56 258.924 183.104 259.868 183.104C260.332 183.104 260.796 182.96 261.116 182.672ZM264.16 173.744C263.696 173.744 263.328 173.376 263.328 172.928C263.328 172.496 263.696 172.128 264.16 172.128C264.624 172.128 264.992 172.48 264.992 172.912C264.992 173.376 264.64 173.744 264.16 173.744ZM263.584 184V175.584H264.72V184H263.584ZM271.369 184.08C268.857 184.08 267.033 182.304 267.033 179.792C267.033 177.28 268.857 175.52 271.369 175.52C272.793 175.52 273.993 176.08 274.665 177.184L273.817 177.76C273.241 176.912 272.345 176.512 271.369 176.512C269.529 176.512 268.185 177.824 268.185 179.792C268.185 181.776 269.529 183.072 271.369 183.072C272.345 183.072 273.241 182.688 273.817 181.84L274.665 182.416C273.993 183.504 272.793 184.08 271.369 184.08ZM284.028 175.52C286.204 175.52 287.436 176.608 287.436 178.784V184H286.348V182.688C285.836 183.552 284.844 184.08 283.452 184.08C281.548 184.08 280.38 183.088 280.38 181.632C280.38 180.336 281.212 179.248 283.628 179.248H286.3V178.736C286.3 177.296 285.484 176.512 283.916 176.512C282.828 176.512 281.804 176.896 281.116 177.504L280.604 176.656C281.452 175.936 282.7 175.52 284.028 175.52ZM283.628 183.184C284.908 183.184 285.852 182.576 286.3 181.472V180.096H283.66C282.028 180.096 281.5 180.736 281.5 181.6C281.5 182.576 282.284 183.184 283.628 183.184ZM294.81 175.52C296.858 175.52 298.266 176.704 298.266 179.12V184H297.13V179.232C297.13 177.456 296.202 176.544 294.602 176.544C292.794 176.544 291.658 177.664 291.658 179.584V184H290.522V175.584H291.61V177.136C292.218 176.112 293.354 175.52 294.81 175.52ZM307.925 172.128H309.061V184H307.973V182.336C307.285 183.472 306.117 184.08 304.725 184.08C302.325 184.08 300.533 182.336 300.533 179.792C300.533 177.248 302.325 175.52 304.725 175.52C306.069 175.52 307.221 176.096 307.925 177.184V172.128ZM304.821 183.072C306.597 183.072 307.941 181.76 307.941 179.792C307.941 177.824 306.597 176.512 304.821 176.512C303.029 176.512 301.685 177.824 301.685 179.792C301.685 181.76 303.029 183.072 304.821 183.072ZM97.5224 199.584H98.6104V206.976C98.6104 209.872 97.1864 211.184 94.4024 211.184C92.8664 211.184 91.3624 210.72 90.4824 209.888L91.0584 209.024C91.8584 209.744 93.0744 210.176 94.3704 210.176C96.4984 210.176 97.4744 209.2 97.4744 207.12V206.048C96.7704 207.12 95.5704 207.68 94.1944 207.68C91.7944 207.68 89.9704 206 89.9704 203.584C89.9704 201.168 91.7944 199.52 94.1944 199.52C95.6024 199.52 96.8184 200.096 97.5224 201.2V199.584ZM94.3064 206.672C96.1624 206.672 97.5064 205.408 97.5064 203.584C97.5064 201.76 96.1624 200.512 94.3064 200.512C92.4504 200.512 91.1224 201.76 91.1224 203.584C91.1224 205.408 92.4504 206.672 94.3064 206.672ZM102.875 201.232C103.403 200.112 104.475 199.52 106.027 199.52V200.624C105.931 200.624 105.835 200.608 105.755 200.608C103.995 200.608 102.923 201.728 102.923 203.712V208H101.787V199.584H102.875V201.232ZM111.446 208.08C108.982 208.08 107.158 206.288 107.158 203.792C107.158 201.296 108.982 199.52 111.446 199.52C113.91 199.52 115.718 201.296 115.718 203.792C115.718 206.288 113.91 208.08 111.446 208.08ZM111.446 207.072C113.238 207.072 114.566 205.76 114.566 203.792C114.566 201.824 113.238 200.512 111.446 200.512C109.654 200.512 108.31 201.824 108.31 203.792C108.31 205.76 109.654 207.072 111.446 207.072ZM129.115 199.584H130.155L126.971 208H125.899L123.243 201.104L120.587 208H119.515L116.347 199.584H117.435L120.075 206.736L122.779 199.584H123.755L126.443 206.736L129.115 199.584ZM132.441 197.744C131.977 197.744 131.609 197.376 131.609 196.928C131.609 196.496 131.977 196.128 132.441 196.128C132.905 196.128 133.273 196.48 133.273 196.912C133.273 197.376 132.921 197.744 132.441 197.744ZM131.865 208V199.584H133.001V208H131.865ZM140.45 199.52C142.498 199.52 143.906 200.704 143.906 203.12V208H142.77V203.232C142.77 201.456 141.842 200.544 140.242 200.544C138.434 200.544 137.298 201.664 137.298 203.584V208H136.162V199.584H137.25V201.136C137.858 200.112 138.994 199.52 140.45 199.52ZM153.726 199.584H154.814V206.976C154.814 209.872 153.39 211.184 150.606 211.184C149.07 211.184 147.566 210.72 146.686 209.888L147.262 209.024C148.062 209.744 149.278 210.176 150.574 210.176C152.702 210.176 153.678 209.2 153.678 207.12V206.048C152.974 207.12 151.774 207.68 150.398 207.68C147.998 207.68 146.174 206 146.174 203.584C146.174 201.168 147.998 199.52 150.398 199.52C151.806 199.52 153.022 200.096 153.726 201.2V199.584ZM150.51 206.672C152.366 206.672 153.71 205.408 153.71 203.584C153.71 201.76 152.366 200.512 150.51 200.512C148.654 200.512 147.326 201.76 147.326 203.584C147.326 205.408 148.654 206.672 150.51 206.672ZM166.514 199.52C168.914 199.52 170.706 201.248 170.706 203.792C170.706 206.352 168.914 208.08 166.514 208.08C165.17 208.08 164.018 207.504 163.314 206.416V211.104H162.178V199.584H163.266V201.248C163.954 200.128 165.122 199.52 166.514 199.52ZM166.434 207.072C168.21 207.072 169.57 205.76 169.57 203.792C169.57 201.84 168.21 200.512 166.434 200.512C164.642 200.512 163.298 201.84 163.298 203.792C163.298 205.76 164.642 207.072 166.434 207.072ZM175.919 199.52C178.095 199.52 179.327 200.608 179.327 202.784V208H178.239V206.688C177.727 207.552 176.735 208.08 175.343 208.08C173.439 208.08 172.271 207.088 172.271 205.632C172.271 204.336 173.103 203.248 175.519 203.248H178.191V202.736C178.191 201.296 177.375 200.512 175.807 200.512C174.719 200.512 173.695 200.896 173.007 201.504L172.495 200.656C173.343 199.936 174.591 199.52 175.919 199.52ZM175.519 207.184C176.799 207.184 177.743 206.576 178.191 205.472V204.096H175.551C173.919 204.096 173.391 204.736 173.391 205.6C173.391 206.576 174.175 207.184 175.519 207.184ZM186.444 206.672L186.844 207.488C186.396 207.888 185.724 208.08 185.068 208.08C183.484 208.08 182.604 207.184 182.604 205.632V200.544H181.1V199.584H182.604V197.744H183.74V199.584H186.3V200.544H183.74V205.568C183.74 206.56 184.252 207.104 185.196 207.104C185.66 207.104 186.124 206.96 186.444 206.672ZM193.2 199.52C195.248 199.52 196.656 200.704 196.656 203.12V208H195.52V203.232C195.52 201.456 194.592 200.544 192.992 200.544C191.184 200.544 190.048 201.664 190.048 203.584V208H188.912V196.128H190.048V201.056C190.672 200.08 191.776 199.52 193.2 199.52ZM210.896 199.584H211.936L208.752 208H207.68L205.024 201.104L202.368 208H201.296L198.128 199.584H199.216L201.856 206.736L204.56 199.584H205.536L208.224 206.736L210.896 199.584ZM216.341 199.52C218.517 199.52 219.749 200.608 219.749 202.784V208H218.661V206.688C218.149 207.552 217.157 208.08 215.765 208.08C213.861 208.08 212.693 207.088 212.693 205.632C212.693 204.336 213.525 203.248 215.941 203.248H218.613V202.736C218.613 201.296 217.797 200.512 216.229 200.512C215.141 200.512 214.117 200.896 213.429 201.504L212.917 200.656C213.765 199.936 215.013 199.52 216.341 199.52ZM215.941 207.184C217.221 207.184 218.165 206.576 218.613 205.472V204.096H215.973C214.341 204.096 213.812 204.736 213.812 205.6C213.812 206.576 214.597 207.184 215.941 207.184ZM228.63 199.584H229.75L225.542 209.008C224.838 210.656 223.942 211.184 222.742 211.184C221.958 211.184 221.206 210.928 220.694 210.416L221.222 209.568C221.638 209.984 222.15 210.208 222.758 210.208C223.51 210.208 224.022 209.856 224.502 208.8L224.87 207.984L221.11 199.584H222.294L225.462 206.736L228.63 199.584Z" fill="black"/>
<path d="M110 156H210" stroke="#5AF3BB" stroke-width="2" stroke-linecap="round"/>
<path d="M90.186 273.24C85.766 273.24 82.526 270.16 82.526 266C82.526 261.84 85.766 258.76 90.186 258.76C94.586 258.76 97.846 261.82 97.846 266C97.846 270.18 94.586 273.24 90.186 273.24ZM90.186 270.48C92.686 270.48 94.566 268.66 94.566 266C94.566 263.34 92.686 261.52 90.186 261.52C87.686 261.52 85.806 263.34 85.806 266C85.806 268.66 87.686 270.48 90.186 270.48ZM106.341 259C110.081 259 112.421 260.94 112.421 264.08C112.421 267.2 110.081 269.14 106.341 269.14H103.521V273H100.281V259H106.341ZM106.161 266.5C108.141 266.5 109.141 265.6 109.141 264.08C109.141 262.54 108.141 261.64 106.161 261.64H103.521V266.5H106.161ZM117.244 273V261.64H112.764V259H124.964V261.64H120.484V273H117.244ZM126.707 273V259H129.947V273H126.707ZM149.049 273H146.009L145.989 264.6L141.869 271.52H140.409L136.309 264.78V273H133.269V259H135.949L141.189 267.7L146.349 259H149.009L149.049 273ZM152.371 273V259H155.611V273H152.371ZM162.313 270.36H170.273V273H158.033V270.9L165.713 261.64H158.193V259H169.973V261.1L162.313 270.36ZM182.811 273L181.571 270H175.071L173.831 273H170.511L176.751 259H179.951L186.211 273H182.811ZM176.111 267.54H180.551L178.331 262.18L176.111 267.54ZM189.861 273V261.64H185.381V259H197.581V261.64H193.101V273H189.861ZM199.324 273V259H202.564V273H199.324ZM212.667 273.24C208.247 273.24 205.007 270.16 205.007 266C205.007 261.84 208.247 258.76 212.667 258.76C217.067 258.76 220.327 261.82 220.327 266C220.327 270.18 217.067 273.24 212.667 273.24ZM212.667 270.48C215.167 270.48 217.047 268.66 217.047 266C217.047 263.34 215.167 261.52 212.667 261.52C210.167 261.52 208.287 263.34 208.287 266C208.287 268.66 210.167 270.48 212.667 270.48ZM232.402 259H235.602V273H232.942L225.962 264.5V273H222.762V259H225.442L232.402 267.5V259Z" fill="#393939"/>
<path d="M53.2969 311V300.824H49.3609V299.8H58.4169V300.824H54.4809V311H53.2969ZM66.2976 302.584H67.4336V311H66.3456V309.464C65.7536 310.488 64.6656 311.08 63.3216 311.08C61.1776 311.08 59.7696 309.88 59.7696 307.464V302.584H60.9056V307.352C60.9056 309.144 61.8336 310.056 63.4336 310.056C65.1936 310.056 66.2976 308.92 66.2976 307V302.584ZM74.9033 302.52C76.9513 302.52 78.3593 303.704 78.3593 306.12V311H77.2233V306.232C77.2233 304.456 76.2953 303.544 74.6953 303.544C72.8873 303.544 71.7513 304.664 71.7513 306.584V311H70.6153V302.584H71.7033V304.136C72.3113 303.112 73.4473 302.52 74.9033 302.52ZM85.7314 302.52C87.7794 302.52 89.1874 303.704 89.1874 306.12V311H88.0514V306.232C88.0514 304.456 87.1234 303.544 85.5234 303.544C83.7154 303.544 82.5794 304.664 82.5794 306.584V311H81.4434V302.584H82.5314V304.136C83.1394 303.112 84.2754 302.52 85.7314 302.52ZM92.8475 300.744C92.3835 300.744 92.0155 300.376 92.0155 299.928C92.0155 299.496 92.3835 299.128 92.8475 299.128C93.3115 299.128 93.6795 299.48 93.6795 299.912C93.6795 300.376 93.3275 300.744 92.8475 300.744ZM92.2715 311V302.584H93.4075V311H92.2715ZM100.856 302.52C102.904 302.52 104.312 303.704 104.312 306.12V311H103.176V306.232C103.176 304.456 102.248 303.544 100.648 303.544C98.8404 303.544 97.7044 304.664 97.7044 306.584V311H96.5684V302.584H97.6564V304.136C98.2644 303.112 99.4004 302.52 100.856 302.52ZM114.132 302.584H115.22V309.976C115.22 312.872 113.796 314.184 111.012 314.184C109.476 314.184 107.972 313.72 107.092 312.888L107.668 312.024C108.468 312.744 109.684 313.176 110.98 313.176C113.108 313.176 114.084 312.2 114.084 310.12V309.048C113.38 310.12 112.18 310.68 110.804 310.68C108.404 310.68 106.58 309 106.58 306.584C106.58 304.168 108.404 302.52 110.804 302.52C112.212 302.52 113.428 303.096 114.132 304.2V302.584ZM110.916 309.672C112.772 309.672 114.116 308.408 114.116 306.584C114.116 304.76 112.772 303.512 110.916 303.512C109.06 303.512 107.732 304.76 107.732 306.584C107.732 308.408 109.06 309.672 110.916 309.672ZM124.84 311.08C123.448 311.08 122.104 310.632 121.416 310.04L121.928 309.144C122.6 309.672 123.736 310.088 124.92 310.088C126.52 310.088 127.176 309.544 127.176 308.712C127.176 306.52 121.72 308.248 121.72 304.92C121.72 303.544 122.904 302.52 125.048 302.52C126.136 302.52 127.32 302.824 128.024 303.304L127.528 304.216C126.792 303.704 125.912 303.496 125.048 303.496C123.528 303.496 122.856 304.088 122.856 304.888C122.856 307.16 128.312 305.448 128.312 308.68C128.312 310.136 127.032 311.08 124.84 311.08ZM136.208 302.584H137.328L133.12 312.008C132.416 313.656 131.52 314.184 130.32 314.184C129.536 314.184 128.784 313.928 128.272 313.416L128.8 312.568C129.216 312.984 129.728 313.208 130.336 313.208C131.088 313.208 131.6 312.856 132.08 311.8L132.448 310.984L128.688 302.584H129.872L133.04 309.736L136.208 302.584ZM143.216 302.52C145.264 302.52 146.672 303.704 146.672 306.12V311H145.536V306.232C145.536 304.456 144.608 303.544 143.008 303.544C141.2 303.544 140.064 304.664 140.064 306.584V311H138.928V302.584H140.016V304.136C140.624 303.112 141.76 302.52 143.216 302.52ZM153.788 309.672L154.188 310.488C153.74 310.888 153.068 311.08 152.412 311.08C150.828 311.08 149.948 310.184 149.948 308.632V303.544H148.444V302.584H149.948V300.744H151.084V302.584H153.644V303.544H151.084V308.568C151.084 309.56 151.596 310.104 152.54 310.104C153.004 310.104 153.468 309.96 153.788 309.672ZM160.544 302.52C162.592 302.52 164 303.704 164 306.12V311H162.864V306.232C162.864 304.456 161.936 303.544 160.336 303.544C158.528 303.544 157.392 304.664 157.392 306.584V311H156.256V299.128H157.392V304.056C158.016 303.08 159.12 302.52 160.544 302.52ZM174.459 306.792C174.459 306.888 174.443 307.016 174.443 307.144H167.403C167.531 308.904 168.875 310.072 170.715 310.072C171.739 310.072 172.651 309.704 173.291 308.968L173.931 309.704C173.179 310.6 172.011 311.08 170.683 311.08C168.059 311.08 166.267 309.288 166.267 306.792C166.267 304.296 168.011 302.52 170.379 302.52C172.747 302.52 174.459 304.264 174.459 306.792ZM170.379 303.496C168.747 303.496 167.547 304.648 167.403 306.296H173.371C173.227 304.648 172.027 303.496 170.379 303.496ZM180.804 309.672L181.204 310.488C180.756 310.888 180.084 311.08 179.428 311.08C177.844 311.08 176.964 310.184 176.964 308.632V303.544H175.46V302.584H176.964V300.744H178.1V302.584H180.66V303.544H178.1V308.568C178.1 309.56 178.612 310.104 179.556 310.104C180.02 310.104 180.484 309.96 180.804 309.672ZM183.848 300.744C183.384 300.744 183.016 300.376 183.016 299.928C183.016 299.496 183.384 299.128 183.848 299.128C184.312 299.128 184.68 299.48 184.68 299.912C184.68 300.376 184.328 300.744 183.848 300.744ZM183.272 311V302.584H184.408V311H183.272ZM191.056 311.08C188.544 311.08 186.72 309.304 186.72 306.792C186.72 304.28 188.544 302.52 191.056 302.52C192.48 302.52 193.68 303.08 194.352 304.184L193.504 304.76C192.928 303.912 192.032 303.512 191.056 303.512C189.216 303.512 187.872 304.824 187.872 306.792C187.872 308.776 189.216 310.072 191.056 310.072C192.032 310.072 192.928 309.688 193.504 308.84L194.352 309.416C193.68 310.504 192.48 311.08 191.056 311.08ZM206.724 302.584H207.844L204.1 311H202.932L199.204 302.584H200.388L203.54 309.752L206.724 302.584ZM212.137 302.52C214.313 302.52 215.545 303.608 215.545 305.784V311H214.457V309.688C213.945 310.552 212.953 311.08 211.561 311.08C209.657 311.08 208.489 310.088 208.489 308.632C208.489 307.336 209.321 306.248 211.737 306.248H214.409V305.736C214.409 304.296 213.593 303.512 212.025 303.512C210.937 303.512 209.913 303.896 209.225 304.504L208.713 303.656C209.561 302.936 210.809 302.52 212.137 302.52ZM211.737 310.184C213.017 310.184 213.961 309.576 214.409 308.472V307.096H211.769C210.137 307.096 209.609 307.736 209.609 308.6C209.609 309.576 210.393 310.184 211.737 310.184ZM219.719 304.232C220.247 303.112 221.319 302.52 222.871 302.52V303.624C222.775 303.624 222.679 303.608 222.599 303.608C220.839 303.608 219.767 304.728 219.767 306.712V311H218.631V302.584H219.719V304.232ZM225.504 300.744C225.04 300.744 224.672 300.376 224.672 299.928C224.672 299.496 225.04 299.128 225.504 299.128C225.968 299.128 226.336 299.48 226.336 299.912C226.336 300.376 225.984 300.744 225.504 300.744ZM224.928 311V302.584H226.064V311H224.928ZM232.169 302.52C234.345 302.52 235.577 303.608 235.577 305.784V311H234.489V309.688C233.977 310.552 232.985 311.08 231.593 311.08C229.689 311.08 228.521 310.088 228.521 308.632C228.521 307.336 229.353 306.248 231.769 306.248H234.441V305.736C234.441 304.296 233.625 303.512 232.057 303.512C230.969 303.512 229.945 303.896 229.257 304.504L228.745 303.656C229.593 302.936 230.841 302.52 232.169 302.52ZM231.769 310.184C233.049 310.184 233.993 309.576 234.441 308.472V307.096H231.801C230.169 307.096 229.641 307.736 229.641 308.6C229.641 309.576 230.425 310.184 231.769 310.184ZM242.998 302.52C245.398 302.52 247.19 304.248 247.19 306.792C247.19 309.336 245.398 311.08 242.998 311.08C241.606 311.08 240.438 310.472 239.75 309.336V311H238.662V299.128H239.798V304.184C240.502 303.096 241.654 302.52 242.998 302.52ZM242.918 310.072C244.694 310.072 246.054 308.76 246.054 306.792C246.054 304.824 244.694 303.512 242.918 303.512C241.126 303.512 239.782 304.824 239.782 306.792C239.782 308.76 241.126 310.072 242.918 310.072ZM249.506 311V299.128H250.642V311H249.506ZM261.147 306.792C261.147 306.888 261.131 307.016 261.131 307.144H254.091C254.219 308.904 255.563 310.072 257.403 310.072C258.427 310.072 259.339 309.704 259.979 308.968L260.619 309.704C259.867 310.6 258.699 311.08 257.371 311.08C254.747 311.08 252.955 309.288 252.955 306.792C252.955 304.296 254.699 302.52 257.067 302.52C259.435 302.52 261.147 304.264 261.147 306.792ZM257.067 303.496C255.435 303.496 254.235 304.648 254.091 306.296H260.059C259.915 304.648 258.715 303.496 257.067 303.496ZM265.715 311.08C264.323 311.08 262.979 310.632 262.291 310.04L262.803 309.144C263.475 309.672 264.611 310.088 265.795 310.088C267.395 310.088 268.051 309.544 268.051 308.712C268.051 306.52 262.595 308.248 262.595 304.92C262.595 303.544 263.779 302.52 265.923 302.52C267.011 302.52 268.195 302.824 268.899 303.304L268.403 304.216C267.667 303.704 266.787 303.496 265.923 303.496C264.403 303.496 263.731 304.088 263.731 304.888C263.731 307.16 269.187 305.448 269.187 308.68C269.187 310.136 267.907 311.08 265.715 311.08Z" fill="black"/>
<path d="M110 283H210" stroke="#5AF3BB" stroke-width="2" stroke-linecap="round"/>
<path d="M84.4954 362C88.2354 362 90.5754 363.94 90.5754 367.08C90.5754 370.2 88.2354 372.14 84.4954 372.14H81.6754V376H78.4354V362H84.4954ZM84.3154 369.5C86.2954 369.5 87.2954 368.6 87.2954 367.08C87.2954 365.54 86.2954 364.64 84.3154 364.64H81.6754V369.5H84.3154ZM96.1085 373.4H103.729V376H92.8885V362H103.469V364.6H96.1085V367.64H102.609V370.16H96.1085V373.4ZM118.706 376H115.226L112.526 372.1H112.366H109.546V376H106.306V362H112.366C116.106 362 118.446 363.94 118.446 367.08C118.446 369.18 117.386 370.72 115.566 371.5L118.706 376ZM115.166 367.08C115.166 365.54 114.166 364.64 112.186 364.64H109.546V369.52H112.186C114.166 369.52 115.166 368.6 115.166 367.08ZM131.594 364.6H124.254V368.3H130.734V370.9H124.254V376H121.014V362H131.594V364.6ZM140.43 376.24C136.01 376.24 132.77 373.16 132.77 369C132.77 364.84 136.01 361.76 140.43 361.76C144.83 361.76 148.09 364.82 148.09 369C148.09 373.18 144.83 376.24 140.43 376.24ZM140.43 373.48C142.93 373.48 144.81 371.66 144.81 369C144.81 366.34 142.93 364.52 140.43 364.52C137.93 364.52 136.05 366.34 136.05 369C136.05 371.66 137.93 373.48 140.43 373.48ZM162.925 376H159.445L156.745 372.1H156.585H153.765V376H150.525V362H156.585C160.325 362 162.665 363.94 162.665 367.08C162.665 369.18 161.605 370.72 159.785 371.5L162.925 376ZM159.385 367.08C159.385 365.54 158.385 364.64 156.405 364.64H153.765V369.52H156.405C158.385 369.52 159.385 368.6 159.385 367.08ZM181.012 376H177.972L177.952 367.6L173.832 374.52H172.372L168.272 367.78V376H165.232V362H167.912L173.152 370.7L178.312 362H180.972L181.012 376ZM194.794 376L193.554 373H187.054L185.814 376H182.494L188.734 362H191.934L198.194 376H194.794ZM188.094 370.54H192.534L190.314 365.18L188.094 370.54ZM209.286 362H212.486V376H209.826L202.846 367.5V376H199.646V362H202.326L209.286 370.5V362ZM222.499 376.24C218.159 376.24 214.919 373.22 214.919 369C214.919 364.78 218.159 361.76 222.519 361.76C224.939 361.76 226.959 362.64 228.279 364.24L226.199 366.16C225.259 365.08 224.079 364.52 222.679 364.52C220.059 364.52 218.199 366.36 218.199 369C218.199 371.64 220.059 373.48 222.679 373.48C224.079 373.48 225.259 372.92 226.199 371.82L228.279 373.74C226.959 375.36 224.939 376.24 222.499 376.24ZM233.687 373.4H241.307V376H230.467V362H241.047V364.6H233.687V367.64H240.187V370.16H233.687V373.4Z" fill="#393939"/>
<path d="M51.5481 414.096C48.1561 414.096 45.6601 411.664 45.6601 408.4C45.6601 405.136 48.1561 402.704 51.5481 402.704C54.9081 402.704 57.4201 405.12 57.4201 408.4C57.4201 411.68 54.9081 414.096 51.5481 414.096ZM51.5481 413.04C54.2361 413.04 56.2361 411.072 56.2361 408.4C56.2361 405.728 54.2361 403.76 51.5481 403.76C48.8441 403.76 46.8281 405.728 46.8281 408.4C46.8281 411.072 48.8441 413.04 51.5481 413.04ZM64.17 405.52C66.57 405.52 68.362 407.248 68.362 409.792C68.362 412.352 66.57 414.08 64.17 414.08C62.826 414.08 61.674 413.504 60.97 412.416V417.104H59.834V405.584H60.922V407.248C61.61 406.128 62.778 405.52 64.17 405.52ZM64.09 413.072C65.866 413.072 67.226 411.76 67.226 409.792C67.226 407.84 65.866 406.512 64.09 406.512C62.298 406.512 60.954 407.84 60.954 409.792C60.954 411.76 62.298 413.072 64.09 413.072ZM74.7097 412.672L75.1097 413.488C74.6617 413.888 73.9897 414.08 73.3337 414.08C71.7497 414.08 70.8697 413.184 70.8697 411.632V406.544H69.3657V405.584H70.8697V403.744H72.0057V405.584H74.5657V406.544H72.0057V411.568C72.0057 412.56 72.5177 413.104 73.4617 413.104C73.9257 413.104 74.3897 412.96 74.7097 412.672ZM77.7537 403.744C77.2897 403.744 76.9217 403.376 76.9217 402.928C76.9217 402.496 77.2897 402.128 77.7537 402.128C78.2177 402.128 78.5857 402.48 78.5857 402.912C78.5857 403.376 78.2337 403.744 77.7537 403.744ZM77.1777 414V405.584H78.3137V414H77.1777ZM91.9706 405.52C94.0186 405.52 95.3626 406.704 95.3626 409.12V414H94.2266V409.232C94.2266 407.456 93.3306 406.544 91.8106 406.544C90.0826 406.544 88.9946 407.664 88.9946 409.584V414H87.8586V409.232C87.8586 407.456 86.9626 406.544 85.4266 406.544C83.7146 406.544 82.6106 407.664 82.6106 409.584V414H81.4746V405.584H82.5626V407.12C83.1546 406.112 84.2426 405.52 85.6506 405.52C87.0426 405.52 88.1306 406.112 88.6426 407.296C89.2506 406.208 90.4506 405.52 91.9706 405.52ZM99.0193 403.744C98.5553 403.744 98.1873 403.376 98.1873 402.928C98.1873 402.496 98.5553 402.128 99.0193 402.128C99.4833 402.128 99.8513 402.48 99.8513 402.912C99.8513 403.376 99.4993 403.744 99.0193 403.744ZM98.4433 414V405.584H99.5793V414H98.4433ZM103.284 413.056H108.676V414H101.828V413.248L107.124 406.544H101.924V405.584H108.58V406.336L103.284 413.056ZM118.115 409.792C118.115 409.888 118.099 410.016 118.099 410.144H111.059C111.187 411.904 112.531 413.072 114.371 413.072C115.395 413.072 116.307 412.704 116.947 411.968L117.587 412.704C116.835 413.6 115.667 414.08 114.339 414.08C111.715 414.08 109.923 412.288 109.923 409.792C109.923 407.296 111.667 405.52 114.035 405.52C116.403 405.52 118.115 407.264 118.115 409.792ZM114.035 406.496C112.403 406.496 111.203 407.648 111.059 409.296H117.027C116.883 407.648 115.683 406.496 114.035 406.496ZM126.972 402.128H128.108V414H127.02V412.336C126.332 413.472 125.164 414.08 123.772 414.08C121.372 414.08 119.58 412.336 119.58 409.792C119.58 407.248 121.372 405.52 123.772 405.52C125.116 405.52 126.268 406.096 126.972 407.184V402.128ZM123.868 413.072C125.644 413.072 126.988 411.76 126.988 409.792C126.988 407.824 125.644 406.512 123.868 406.512C122.076 406.512 120.732 407.824 120.732 409.792C120.732 411.76 122.076 413.072 123.868 413.072ZM138.899 414.08C136.435 414.08 134.611 412.288 134.611 409.792C134.611 407.296 136.435 405.52 138.899 405.52C141.363 405.52 143.171 407.296 143.171 409.792C143.171 412.288 141.363 414.08 138.899 414.08ZM138.899 413.072C140.691 413.072 142.019 411.76 142.019 409.792C142.019 407.824 140.691 406.512 138.899 406.512C137.107 406.512 135.763 407.824 135.763 409.792C135.763 411.76 137.107 413.072 138.899 413.072ZM149.826 405.52C152.226 405.52 154.018 407.248 154.018 409.792C154.018 412.352 152.226 414.08 149.826 414.08C148.482 414.08 147.33 413.504 146.626 412.416V417.104H145.49V405.584H146.578V407.248C147.266 406.128 148.434 405.52 149.826 405.52ZM149.746 413.072C151.522 413.072 152.882 411.76 152.882 409.792C152.882 407.84 151.522 406.512 149.746 406.512C147.954 406.512 146.61 407.84 146.61 409.792C146.61 411.76 147.954 413.072 149.746 413.072ZM160.366 412.672L160.766 413.488C160.318 413.888 159.646 414.08 158.99 414.08C157.406 414.08 156.526 413.184 156.526 411.632V406.544H155.022V405.584H156.526V403.744H157.662V405.584H160.222V406.544H157.662V411.568C157.662 412.56 158.174 413.104 159.118 413.104C159.582 413.104 160.046 412.96 160.366 412.672ZM163.41 403.744C162.946 403.744 162.578 403.376 162.578 402.928C162.578 402.496 162.946 402.128 163.41 402.128C163.874 402.128 164.242 402.48 164.242 402.912C164.242 403.376 163.89 403.744 163.41 403.744ZM162.834 414V405.584H163.97V414H162.834ZM170.619 414.08C168.107 414.08 166.283 412.304 166.283 409.792C166.283 407.28 168.107 405.52 170.619 405.52C172.043 405.52 173.243 406.08 173.915 407.184L173.067 407.76C172.491 406.912 171.595 406.512 170.619 406.512C168.779 406.512 167.435 407.824 167.435 409.792C167.435 411.776 168.779 413.072 170.619 413.072C171.595 413.072 172.491 412.688 173.067 411.84L173.915 412.416C173.243 413.504 172.043 414.08 170.619 414.08ZM178.402 414.08C177.01 414.08 175.666 413.632 174.978 413.04L175.49 412.144C176.162 412.672 177.298 413.088 178.482 413.088C180.082 413.088 180.738 412.544 180.738 411.712C180.738 409.52 175.282 411.248 175.282 407.92C175.282 406.544 176.466 405.52 178.61 405.52C179.698 405.52 180.882 405.824 181.586 406.304L181.09 407.216C180.354 406.704 179.474 406.496 178.61 406.496C177.09 406.496 176.418 407.088 176.418 407.888C176.418 410.16 181.874 408.448 181.874 411.68C181.874 413.136 180.594 414.08 178.402 414.08ZM190.946 403.008C189.97 403.008 189.458 403.552 189.458 404.592V405.584H192.05V406.544H189.49V414H188.354V406.544H186.85V405.584H188.354V404.544C188.354 403.04 189.25 402.048 190.898 402.048C191.522 402.048 192.162 402.224 192.578 402.576L192.194 403.424C191.874 403.152 191.426 403.008 190.946 403.008ZM196.883 414.08C194.419 414.08 192.595 412.288 192.595 409.792C192.595 407.296 194.419 405.52 196.883 405.52C199.347 405.52 201.155 407.296 201.155 409.792C201.155 412.288 199.347 414.08 196.883 414.08ZM196.883 413.072C198.675 413.072 200.003 411.76 200.003 409.792C200.003 407.824 198.675 406.512 196.883 406.512C195.091 406.512 193.747 407.824 193.747 409.792C193.747 411.76 195.091 413.072 196.883 413.072ZM204.563 407.232C205.091 406.112 206.163 405.52 207.715 405.52V406.624C207.619 406.624 207.523 406.608 207.443 406.608C205.683 406.608 204.611 407.728 204.611 409.712V414H203.475V405.584H204.563V407.232ZM216.34 414.08C214.948 414.08 213.604 413.632 212.916 413.04L213.428 412.144C214.1 412.672 215.236 413.088 216.42 413.088C218.02 413.088 218.676 412.544 218.676 411.712C218.676 409.52 213.22 411.248 213.22 407.92C213.22 406.544 214.404 405.52 216.548 405.52C217.636 405.52 218.82 405.824 219.524 406.304L219.028 407.216C218.292 406.704 217.412 406.496 216.548 406.496C215.028 406.496 214.356 407.088 214.356 407.888C214.356 410.16 219.812 408.448 219.812 411.68C219.812 413.136 218.532 414.08 216.34 414.08ZM226.248 405.52C228.648 405.52 230.44 407.248 230.44 409.792C230.44 412.352 228.648 414.08 226.248 414.08C224.904 414.08 223.752 413.504 223.048 412.416V417.104H221.912V405.584H223V407.248C223.688 406.128 224.856 405.52 226.248 405.52ZM226.168 413.072C227.944 413.072 229.304 411.76 229.304 409.792C229.304 407.84 227.944 406.512 226.168 406.512C224.376 406.512 223.032 407.84 223.032 409.792C223.032 411.76 224.376 413.072 226.168 413.072ZM240.1 409.792C240.1 409.888 240.084 410.016 240.084 410.144H233.044C233.172 411.904 234.516 413.072 236.356 413.072C237.38 413.072 238.292 412.704 238.932 411.968L239.572 412.704C238.82 413.6 237.652 414.08 236.324 414.08C233.7 414.08 231.908 412.288 231.908 409.792C231.908 407.296 233.652 405.52 236.02 405.52C238.388 405.52 240.1 407.264 240.1 409.792ZM236.02 406.496C234.388 406.496 233.188 407.648 233.044 409.296H239.012C238.868 407.648 237.668 406.496 236.02 406.496ZM245.9 414.08C243.388 414.08 241.564 412.304 241.564 409.792C241.564 407.28 243.388 405.52 245.9 405.52C247.324 405.52 248.524 406.08 249.196 407.184L248.348 407.76C247.772 406.912 246.876 406.512 245.9 406.512C244.06 406.512 242.716 407.824 242.716 409.792C242.716 411.776 244.06 413.072 245.9 413.072C246.876 413.072 247.772 412.688 248.348 411.84L249.196 412.416C248.524 413.504 247.324 414.08 245.9 414.08ZM252.004 403.744C251.54 403.744 251.172 403.376 251.172 402.928C251.172 402.496 251.54 402.128 252.004 402.128C252.468 402.128 252.836 402.48 252.836 402.912C252.836 403.376 252.484 403.744 252.004 403.744ZM251.428 414V405.584H252.564V414H251.428ZM255.917 404.544C255.917 403.04 256.813 402.048 258.461 402.048C259.085 402.048 259.725 402.224 260.141 402.576L259.757 403.424C259.437 403.152 258.989 403.008 258.509 403.008C257.533 403.008 257.021 403.552 257.021 404.592V405.584H259.613V406.544H257.053V414H255.917V406.544H254.413V405.584H255.917V404.544ZM263.005 402.128C263.469 402.128 263.837 402.48 263.837 402.912C263.837 403.376 263.485 403.744 263.005 403.744C262.541 403.744 262.173 403.376 262.173 402.928C262.173 402.496 262.541 402.128 263.005 402.128ZM262.429 414V405.584H263.565V414H262.429ZM270.228 414.08C267.716 414.08 265.892 412.304 265.892 409.792C265.892 407.28 267.716 405.52 270.228 405.52C271.652 405.52 272.852 406.08 273.524 407.184L272.676 407.76C272.1 406.912 271.204 406.512 270.228 406.512C268.388 406.512 267.044 407.824 267.044 409.792C267.044 411.776 268.388 413.072 270.228 413.072C271.204 413.072 272.1 412.688 272.676 411.84L273.524 412.416C272.852 413.504 271.652 414.08 270.228 414.08ZM143.188 429.584H144.324V438H143.236V436.464C142.644 437.488 141.556 438.08 140.212 438.08C138.068 438.08 136.66 436.88 136.66 434.464V429.584H137.796V434.352C137.796 436.144 138.724 437.056 140.324 437.056C142.084 437.056 143.188 435.92 143.188 434V429.584ZM149.762 438.08C148.37 438.08 147.026 437.632 146.338 437.04L146.85 436.144C147.522 436.672 148.658 437.088 149.842 437.088C151.442 437.088 152.098 436.544 152.098 435.712C152.098 433.52 146.642 435.248 146.642 431.92C146.642 430.544 147.826 429.52 149.97 429.52C151.058 429.52 152.242 429.824 152.946 430.304L152.45 431.216C151.714 430.704 150.834 430.496 149.97 430.496C148.45 430.496 147.778 431.088 147.778 431.888C147.778 434.16 153.234 432.448 153.234 435.68C153.234 437.136 151.954 438.08 149.762 438.08ZM158.278 429.52C160.454 429.52 161.686 430.608 161.686 432.784V438H160.598V436.688C160.086 437.552 159.094 438.08 157.702 438.08C155.798 438.08 154.63 437.088 154.63 435.632C154.63 434.336 155.462 433.248 157.878 433.248H160.55V432.736C160.55 431.296 159.734 430.512 158.166 430.512C157.078 430.512 156.054 430.896 155.366 431.504L154.854 430.656C155.702 429.936 156.95 429.52 158.278 429.52ZM157.878 437.184C159.158 437.184 160.102 436.576 160.55 435.472V434.096H157.91C156.278 434.096 155.75 434.736 155.75 435.6C155.75 436.576 156.534 437.184 157.878 437.184ZM171.507 429.584H172.595V436.976C172.595 439.872 171.171 441.184 168.387 441.184C166.851 441.184 165.347 440.72 164.467 439.888L165.043 439.024C165.843 439.744 167.059 440.176 168.355 440.176C170.483 440.176 171.459 439.2 171.459 437.12V436.048C170.755 437.12 169.555 437.68 168.179 437.68C165.779 437.68 163.955 436 163.955 433.584C163.955 431.168 165.779 429.52 168.179 429.52C169.587 429.52 170.803 430.096 171.507 431.2V429.584ZM168.291 436.672C170.147 436.672 171.491 435.408 171.491 433.584C171.491 431.76 170.147 430.512 168.291 430.512C166.435 430.512 165.107 431.76 165.107 433.584C165.107 435.408 166.435 436.672 168.291 436.672ZM183.115 433.792C183.115 433.888 183.099 434.016 183.099 434.144H176.059C176.187 435.904 177.531 437.072 179.371 437.072C180.395 437.072 181.307 436.704 181.947 435.968L182.587 436.704C181.835 437.6 180.667 438.08 179.339 438.08C176.715 438.08 174.923 436.288 174.923 433.792C174.923 431.296 176.667 429.52 179.035 429.52C181.403 429.52 183.115 431.264 183.115 433.792ZM179.035 430.496C177.403 430.496 176.203 431.648 176.059 433.296H182.027C181.883 431.648 180.683 430.496 179.035 430.496Z" fill="black"/>
<path d="M111.167 386H207.833" stroke="#5AF3BB" stroke-width="2" stroke-linecap="round"/>
<path d="M94.8177 489C98.5577 489 100.898 490.94 100.898 494.08C100.898 497.2 98.5577 499.14 94.8177 499.14H91.9977V503H88.7577V489H94.8177ZM94.6377 496.5C96.6177 496.5 97.6177 495.6 97.6177 494.08C97.6177 492.54 96.6177 491.64 94.6377 491.64H91.9977V496.5H94.6377ZM115.611 503H112.131L109.431 499.1H109.271H106.451V503H103.211V489H109.271C113.011 489 115.351 490.94 115.351 494.08C115.351 496.18 114.291 497.72 112.471 498.5L115.611 503ZM112.071 494.08C112.071 492.54 111.071 491.64 109.091 491.64H106.451V496.52H109.091C111.071 496.52 112.071 495.6 112.071 494.08ZM124.698 503.24C120.278 503.24 117.038 500.16 117.038 496C117.038 491.84 120.278 488.76 124.698 488.76C129.098 488.76 132.358 491.82 132.358 496C132.358 500.18 129.098 503.24 124.698 503.24ZM124.698 500.48C127.198 500.48 129.078 498.66 129.078 496C129.078 493.34 127.198 491.52 124.698 491.52C122.198 491.52 120.318 493.34 120.318 496C120.318 498.66 122.198 500.48 124.698 500.48ZM134.793 503V489H141.153C145.733 489 148.873 491.76 148.873 496C148.873 500.24 145.733 503 141.153 503H134.793ZM138.033 500.34H140.993C143.773 500.34 145.593 498.68 145.593 496C145.593 493.32 143.773 491.66 140.993 491.66H138.033V500.34ZM157.536 503.24C153.556 503.24 151.196 500.96 151.196 496.84V489H154.436V496.72C154.436 499.38 155.596 500.48 157.556 500.48C159.536 500.48 160.676 499.38 160.676 496.72V489H163.876V496.84C163.876 500.96 161.516 503.24 157.536 503.24ZM173.778 503.24C169.438 503.24 166.198 500.22 166.198 496C166.198 491.78 169.438 488.76 173.798 488.76C176.218 488.76 178.238 489.64 179.558 491.24L177.478 493.16C176.538 492.08 175.358 491.52 173.958 491.52C171.338 491.52 169.478 493.36 169.478 496C169.478 498.64 171.338 500.48 173.958 500.48C175.358 500.48 176.538 499.92 177.478 498.82L179.558 500.74C178.238 502.36 176.218 503.24 173.778 503.24ZM184.509 503V491.64H180.029V489H192.229V491.64H187.749V503H184.509ZM193.973 503V489H197.213V503H193.973ZM207.315 503.24C202.895 503.24 199.655 500.16 199.655 496C199.655 491.84 202.895 488.76 207.315 488.76C211.715 488.76 214.975 491.82 214.975 496C214.975 500.18 211.715 503.24 207.315 503.24ZM207.315 500.48C209.815 500.48 211.695 498.66 211.695 496C211.695 493.34 209.815 491.52 207.315 491.52C204.815 491.52 202.935 493.34 202.935 496C202.935 498.66 204.815 500.48 207.315 500.48ZM227.05 489H230.25V503H227.59L220.61 494.5V503H217.41V489H220.09L227.05 497.5V489Z" fill="#393939"/>
<path d="M72.1932 542.096C70.5132 542.096 68.8652 541.504 68.0332 540.64L68.4972 539.728C69.2972 540.512 70.7212 541.088 72.1932 541.088C74.2892 541.088 75.2012 540.208 75.2012 539.104C75.2012 536.032 68.3052 537.92 68.3052 533.776C68.3052 532.128 69.5852 530.704 72.4332 530.704C73.6972 530.704 75.0092 531.072 75.9052 531.696L75.5052 532.64C74.5452 532.016 73.4252 531.712 72.4332 531.712C70.3852 531.712 69.4732 532.624 69.4732 533.744C69.4732 536.816 76.3692 534.96 76.3692 539.04C76.3692 540.688 75.0572 542.096 72.1932 542.096ZM82.197 542.08C79.685 542.08 77.861 540.304 77.861 537.792C77.861 535.28 79.685 533.52 82.197 533.52C83.621 533.52 84.821 534.08 85.493 535.184L84.645 535.76C84.069 534.912 83.173 534.512 82.197 534.512C80.357 534.512 79.013 535.824 79.013 537.792C79.013 539.776 80.357 541.072 82.197 541.072C83.173 541.072 84.069 540.688 84.645 539.84L85.493 540.416C84.821 541.504 83.621 542.08 82.197 542.08ZM90.6686 533.52C92.8446 533.52 94.0766 534.608 94.0766 536.784V542H92.9886V540.688C92.4766 541.552 91.4846 542.08 90.0926 542.08C88.1886 542.08 87.0206 541.088 87.0206 539.632C87.0206 538.336 87.8526 537.248 90.2686 537.248H92.9406V536.736C92.9406 535.296 92.1246 534.512 90.5566 534.512C89.4686 534.512 88.4446 534.896 87.7566 535.504L87.2446 534.656C88.0926 533.936 89.3406 533.52 90.6686 533.52ZM90.2686 541.184C91.5486 541.184 92.4926 540.576 92.9406 539.472V538.096H90.3006C88.6686 538.096 88.1406 538.736 88.1406 539.6C88.1406 540.576 88.9246 541.184 90.2686 541.184ZM97.1621 542V530.128H98.2981V542H97.1621ZM102.035 531.744C101.571 531.744 101.203 531.376 101.203 530.928C101.203 530.496 101.571 530.128 102.035 530.128C102.499 530.128 102.867 530.48 102.867 530.912C102.867 531.376 102.515 531.744 102.035 531.744ZM101.459 542V533.584H102.595V542H101.459ZM110.044 533.52C112.092 533.52 113.5 534.704 113.5 537.12V542H112.364V537.232C112.364 535.456 111.436 534.544 109.836 534.544C108.028 534.544 106.892 535.664 106.892 537.584V542H105.756V533.584H106.844V535.136C107.452 534.112 108.588 533.52 110.044 533.52ZM123.319 533.584H124.407V540.976C124.407 543.872 122.983 545.184 120.199 545.184C118.663 545.184 117.159 544.72 116.279 543.888L116.855 543.024C117.655 543.744 118.871 544.176 120.167 544.176C122.295 544.176 123.271 543.2 123.271 541.12V540.048C122.567 541.12 121.367 541.68 119.991 541.68C117.591 541.68 115.767 540 115.767 537.584C115.767 535.168 117.591 533.52 119.991 533.52C121.399 533.52 122.615 534.096 123.319 535.2V533.584ZM120.103 540.672C121.959 540.672 123.303 539.408 123.303 537.584C123.303 535.76 121.959 534.512 120.103 534.512C118.247 534.512 116.919 535.76 116.919 537.584C116.919 539.408 118.247 540.672 120.103 540.672ZM142.267 533.52C144.315 533.52 145.659 534.704 145.659 537.12V542H144.523V537.232C144.523 535.456 143.627 534.544 142.107 534.544C140.379 534.544 139.291 535.664 139.291 537.584V542H138.155V537.232C138.155 535.456 137.259 534.544 135.723 534.544C134.011 534.544 132.907 535.664 132.907 537.584V542H131.771V533.584H132.859V535.12C133.451 534.112 134.539 533.52 135.947 533.52C137.339 533.52 138.427 534.112 138.939 535.296C139.547 534.208 140.747 533.52 142.267 533.52ZM151.684 533.52C153.86 533.52 155.092 534.608 155.092 536.784V542H154.004V540.688C153.492 541.552 152.5 542.08 151.108 542.08C149.204 542.08 148.036 541.088 148.036 539.632C148.036 538.336 148.868 537.248 151.284 537.248H153.956V536.736C153.956 535.296 153.14 534.512 151.572 534.512C150.484 534.512 149.46 534.896 148.772 535.504L148.26 534.656C149.108 533.936 150.356 533.52 151.684 533.52ZM151.284 541.184C152.564 541.184 153.508 540.576 153.956 539.472V538.096H151.316C149.684 538.096 149.156 538.736 149.156 539.6C149.156 540.576 149.94 541.184 151.284 541.184ZM162.466 533.52C164.514 533.52 165.922 534.704 165.922 537.12V542H164.786V537.232C164.786 535.456 163.858 534.544 162.258 534.544C160.45 534.544 159.314 535.664 159.314 537.584V542H158.178V533.584H159.266V535.136C159.874 534.112 161.01 533.52 162.466 533.52ZM175.454 533.584H176.59V542H175.502V540.464C174.91 541.488 173.822 542.08 172.478 542.08C170.334 542.08 168.926 540.88 168.926 538.464V533.584H170.062V538.352C170.062 540.144 170.99 541.056 172.59 541.056C174.35 541.056 175.454 539.92 175.454 538V533.584ZM182.555 531.008C181.579 531.008 181.067 531.552 181.067 532.592V533.584H183.659V534.544H181.099V542H179.963V534.544H178.459V533.584H179.963V532.544C179.963 531.04 180.859 530.048 182.507 530.048C183.131 530.048 183.771 530.224 184.187 530.576L183.803 531.424C183.483 531.152 183.035 531.008 182.555 531.008ZM187.981 533.52C190.157 533.52 191.389 534.608 191.389 536.784V542H190.301V540.688C189.789 541.552 188.797 542.08 187.405 542.08C185.501 542.08 184.333 541.088 184.333 539.632C184.333 538.336 185.165 537.248 187.581 537.248H190.253V536.736C190.253 535.296 189.437 534.512 187.869 534.512C186.781 534.512 185.757 534.896 185.069 535.504L184.557 534.656C185.405 533.936 186.653 533.52 187.981 533.52ZM187.581 541.184C188.861 541.184 189.805 540.576 190.253 539.472V538.096H187.613C185.981 538.096 185.453 538.736 185.453 539.6C185.453 540.576 186.237 541.184 187.581 541.184ZM197.994 542.08C195.482 542.08 193.658 540.304 193.658 537.792C193.658 535.28 195.482 533.52 197.994 533.52C199.418 533.52 200.618 534.08 201.29 535.184L200.442 535.76C199.866 534.912 198.97 534.512 197.994 534.512C196.154 534.512 194.81 535.824 194.81 537.792C194.81 539.776 196.154 541.072 197.994 541.072C198.97 541.072 199.866 540.688 200.442 539.84L201.29 540.416C200.618 541.504 199.418 542.08 197.994 542.08ZM207.647 540.672L208.047 541.488C207.599 541.888 206.927 542.08 206.271 542.08C204.687 542.08 203.807 541.184 203.807 539.632V534.544H202.303V533.584H203.807V531.744H204.943V533.584H207.503V534.544H204.943V539.568C204.943 540.56 205.455 541.104 206.399 541.104C206.863 541.104 207.327 540.96 207.647 540.672ZM216.563 533.584H217.699V542H216.611V540.464C216.019 541.488 214.931 542.08 213.587 542.08C211.443 542.08 210.035 540.88 210.035 538.464V533.584H211.171V538.352C211.171 540.144 212.099 541.056 213.699 541.056C215.459 541.056 216.563 539.92 216.563 538V533.584ZM221.969 535.232C222.497 534.112 223.569 533.52 225.121 533.52V534.624C225.025 534.624 224.929 534.608 224.849 534.608C223.089 534.608 222.017 535.728 222.017 537.712V542H220.881V533.584H221.969V535.232ZM227.754 531.744C227.29 531.744 226.922 531.376 226.922 530.928C226.922 530.496 227.29 530.128 227.754 530.128C228.218 530.128 228.586 530.48 228.586 530.912C228.586 531.376 228.234 531.744 227.754 531.744ZM227.178 542V533.584H228.314V542H227.178ZM235.763 533.52C237.811 533.52 239.219 534.704 239.219 537.12V542H238.083V537.232C238.083 535.456 237.155 534.544 235.555 534.544C233.747 534.544 232.611 535.664 232.611 537.584V542H231.475V533.584H232.563V535.136C233.171 534.112 234.307 533.52 235.763 533.52ZM249.038 533.584H250.126V540.976C250.126 543.872 248.702 545.184 245.918 545.184C244.382 545.184 242.878 544.72 241.998 543.888L242.574 543.024C243.374 543.744 244.59 544.176 245.886 544.176C248.014 544.176 248.99 543.2 248.99 541.12V540.048C248.286 541.12 247.086 541.68 245.71 541.68C243.31 541.68 241.486 540 241.486 537.584C241.486 535.168 243.31 533.52 245.71 533.52C247.118 533.52 248.334 534.096 249.038 535.2V533.584ZM245.822 540.672C247.678 540.672 249.022 539.408 249.022 537.584C249.022 535.76 247.678 534.512 245.822 534.512C243.966 534.512 242.638 535.76 242.638 537.584C242.638 539.408 243.966 540.672 245.822 540.672ZM134.779 557.52C137.179 557.52 138.971 559.248 138.971 561.792C138.971 564.352 137.179 566.08 134.779 566.08C133.435 566.08 132.283 565.504 131.579 564.416V569.104H130.443V557.584H131.531V559.248C132.219 558.128 133.387 557.52 134.779 557.52ZM134.699 565.072C136.475 565.072 137.835 563.76 137.835 561.792C137.835 559.84 136.475 558.512 134.699 558.512C132.907 558.512 131.563 559.84 131.563 561.792C131.563 563.76 132.907 565.072 134.699 565.072ZM142.375 559.232C142.903 558.112 143.975 557.52 145.527 557.52V558.624C145.431 558.624 145.335 558.608 145.255 558.608C143.495 558.608 142.423 559.728 142.423 561.712V566H141.287V557.584H142.375V559.232ZM150.946 566.08C148.482 566.08 146.658 564.288 146.658 561.792C146.658 559.296 148.482 557.52 150.946 557.52C153.41 557.52 155.218 559.296 155.218 561.792C155.218 564.288 153.41 566.08 150.946 566.08ZM150.946 565.072C152.738 565.072 154.066 563.76 154.066 561.792C154.066 559.824 152.738 558.512 150.946 558.512C149.154 558.512 147.81 559.824 147.81 561.792C147.81 563.76 149.154 565.072 150.946 565.072ZM161.025 566.08C158.513 566.08 156.689 564.304 156.689 561.792C156.689 559.28 158.513 557.52 161.025 557.52C162.449 557.52 163.649 558.08 164.321 559.184L163.473 559.76C162.897 558.912 162.001 558.512 161.025 558.512C159.185 558.512 157.841 559.824 157.841 561.792C157.841 563.776 159.185 565.072 161.025 565.072C162.001 565.072 162.897 564.688 163.473 563.84L164.321 564.416C163.649 565.504 162.449 566.08 161.025 566.08ZM173.756 561.792C173.756 561.888 173.74 562.016 173.74 562.144H166.7C166.828 563.904 168.172 565.072 170.012 565.072C171.036 565.072 171.948 564.704 172.588 563.968L173.228 564.704C172.476 565.6 171.308 566.08 169.98 566.08C167.356 566.08 165.564 564.288 165.564 561.792C165.564 559.296 167.308 557.52 169.676 557.52C172.044 557.52 173.756 559.264 173.756 561.792ZM169.676 558.496C168.044 558.496 166.844 559.648 166.7 561.296H172.668C172.524 559.648 171.324 558.496 169.676 558.496ZM178.324 566.08C176.932 566.08 175.588 565.632 174.9 565.04L175.412 564.144C176.084 564.672 177.22 565.088 178.404 565.088C180.004 565.088 180.66 564.544 180.66 563.712C180.66 561.52 175.204 563.248 175.204 559.92C175.204 558.544 176.388 557.52 178.532 557.52C179.62 557.52 180.804 557.824 181.508 558.304L181.012 559.216C180.276 558.704 179.396 558.496 178.532 558.496C177.012 558.496 176.34 559.088 176.34 559.888C176.34 562.16 181.796 560.448 181.796 563.68C181.796 565.136 180.516 566.08 178.324 566.08ZM186.152 566.08C184.76 566.08 183.416 565.632 182.728 565.04L183.24 564.144C183.912 564.672 185.048 565.088 186.232 565.088C187.832 565.088 188.488 564.544 188.488 563.712C188.488 561.52 183.032 563.248 183.032 559.92C183.032 558.544 184.216 557.52 186.36 557.52C187.448 557.52 188.632 557.824 189.336 558.304L188.84 559.216C188.104 558.704 187.224 558.496 186.36 558.496C184.84 558.496 184.168 559.088 184.168 559.888C184.168 562.16 189.624 560.448 189.624 563.68C189.624 565.136 188.344 566.08 186.152 566.08Z" fill="black"/>
<path d="M110 513H210" stroke="#5AF3BB" stroke-width="2" stroke-linecap="round"/>
</svg>
