<svg width="43" height="44" viewBox="0 0 43 44" fill="none" xmlns="http://www.w3.org/2000/svg">
<path d="M0 21.5C0 9.62588 9.62588 0 21.5 0C33.3741 0 43 9.62588 43 21.5V22.5C43 34.3741 33.3741 44 21.5 44C9.62588 44 0 34.3741 0 22.5V21.5Z" fill="#24DBD7"/>
<g clip-path="url(#clip0_150_741)">
<path d="M30.0648 29.9598L23.362 20.4449L22.6042 19.3689L17.8099 12.5652L17.414 12H11.5216L12.9568 14.0402L19.3317 23.0896L20.0895 24.1656L25.2117 31.4378L25.6076 32H31.4969L30.0617 29.9598H30.0648ZM26.3097 30.6973L20.9896 23.144L20.2318 22.068L14.058 13.3027H16.7149L21.7072 20.3905L22.465 21.4665L28.9667 30.6973H26.3097Z" fill="#FBFAFC"/>
<path d="M20.2318 22.0679L20.9896 23.1439L20.0895 24.1655L13.1981 31.9999H11.5L19.3348 23.0895L20.2318 22.0679Z" fill="#FBFAFC"/>
<path d="M30.7917 12L23.3621 20.4449L22.4651 21.4665L21.7073 20.3905L22.6043 19.3689L27.6368 13.6473L29.0905 12H30.7917Z" fill="#FBFAFC"/>
</g>
<defs>
<clipPath id="clip0_150_741">
<rect width="20" height="20" fill="white" transform="translate(11.5 12)"/>
</clipPath>
</defs>
</svg>
